%TF.GenerationSoftware,KiCad,Pcbnew,8.0.2*%
%TF.CreationDate,2024-12-06T15:19:02+01:00*%
%TF.ProjectId,Przetwornica_4_to_400,50727a65-7477-46f7-926e-6963615f345f,rev?*%
%TF.SameCoordinates,Original*%
%TF.FileFunction,Drillmap*%
%TF.FilePolarity,Positive*%
%FSLAX45Y45*%
G04 Gerber Fmt 4.5, Leading zero omitted, Abs format (unit mm)*
G04 Created by KiCad (PCBNEW 8.0.2) date 2024-12-06 15:19:02*
%MOMM*%
%LPD*%
G01*
G04 APERTURE LIST*
%ADD10C,0.050000*%
%ADD11C,0.200000*%
%ADD12C,0.100000*%
%ADD13C,0.115000*%
G04 APERTURE END LIST*
D10*
X9400000Y-7000000D02*
G75*
G02*
X9100000Y-7000000I-150000J0D01*
G01*
X9100000Y-7000000D02*
G75*
G02*
X9400000Y-7000000I150000J0D01*
G01*
X9400000Y-4700000D02*
G75*
G02*
X9100000Y-4700000I-150000J0D01*
G01*
X9100000Y-4700000D02*
G75*
G02*
X9400000Y-4700000I150000J0D01*
G01*
X12650000Y-7000000D02*
G75*
G02*
X12350000Y-7000000I-150000J0D01*
G01*
X12350000Y-7000000D02*
G75*
G02*
X12650000Y-7000000I150000J0D01*
G01*
X12650000Y-4700000D02*
G75*
G02*
X12350000Y-4700000I-150000J0D01*
G01*
X12350000Y-4700000D02*
G75*
G02*
X12650000Y-4700000I150000J0D01*
G01*
X6250000Y-7000000D02*
G75*
G02*
X5950000Y-7000000I-150000J0D01*
G01*
X5950000Y-7000000D02*
G75*
G02*
X6250000Y-7000000I150000J0D01*
G01*
X6250000Y-4700000D02*
G75*
G02*
X5950000Y-4700000I-150000J0D01*
G01*
X5950000Y-4700000D02*
G75*
G02*
X6250000Y-4700000I150000J0D01*
G01*
X5350000Y-4650000D02*
X5350000Y-7050000D01*
X13500000Y-4650000D02*
X13500000Y-7050000D01*
X13200000Y-7350000D02*
X5650000Y-7350000D01*
X13200000Y-4350000D02*
X5650000Y-4350000D01*
X5650000Y-7350000D02*
X5350000Y-7050000D01*
X13200000Y-7350000D02*
X13500000Y-7050000D01*
X5650000Y-4350000D02*
X5350000Y-4650000D01*
X13200000Y-4350000D02*
X13500000Y-4650000D01*
D11*
D12*
X5410000Y-5610000D02*
X5440000Y-5640000D01*
X5440000Y-5610000D02*
X5410000Y-5640000D01*
X5435000Y-5260000D02*
X5465000Y-5290000D01*
X5465000Y-5260000D02*
X5435000Y-5290000D01*
X5435000Y-6235000D02*
X5465000Y-6265000D01*
X5465000Y-6235000D02*
X5435000Y-6265000D01*
X5435000Y-6860000D02*
X5465000Y-6890000D01*
X5465000Y-6860000D02*
X5435000Y-6890000D01*
X5460000Y-4685000D02*
X5490000Y-4715000D01*
X5490000Y-4685000D02*
X5460000Y-4715000D01*
X5660000Y-5385000D02*
X5690000Y-5415000D01*
X5690000Y-5385000D02*
X5660000Y-5415000D01*
X5735000Y-4535000D02*
X5765000Y-4565000D01*
X5765000Y-4535000D02*
X5735000Y-4565000D01*
X5785000Y-7185000D02*
X5815000Y-7215000D01*
X5815000Y-7185000D02*
X5785000Y-7215000D01*
X5835000Y-5185000D02*
X5865000Y-5215000D01*
X5865000Y-5185000D02*
X5835000Y-5215000D01*
X5835000Y-5560000D02*
X5865000Y-5590000D01*
X5865000Y-5560000D02*
X5835000Y-5590000D01*
X5860000Y-6585000D02*
X5890000Y-6615000D01*
X5890000Y-6585000D02*
X5860000Y-6615000D01*
X5935000Y-5285000D02*
X5965000Y-5315000D01*
X5965000Y-5285000D02*
X5935000Y-5315000D01*
X6010000Y-5710000D02*
X6040000Y-5740000D01*
X6040000Y-5710000D02*
X6010000Y-5740000D01*
X6035000Y-5385000D02*
X6065000Y-5415000D01*
X6065000Y-5385000D02*
X6035000Y-5415000D01*
X6035000Y-5960000D02*
X6065000Y-5990000D01*
X6065000Y-5960000D02*
X6035000Y-5990000D01*
X6035000Y-6335000D02*
X6065000Y-6365000D01*
X6065000Y-6335000D02*
X6035000Y-6365000D01*
X6060000Y-6110000D02*
X6090000Y-6140000D01*
X6090000Y-6110000D02*
X6060000Y-6140000D01*
X6185000Y-5435000D02*
X6215000Y-5465000D01*
X6215000Y-5435000D02*
X6185000Y-5465000D01*
X6285000Y-4985000D02*
X6315000Y-5015000D01*
X6315000Y-4985000D02*
X6285000Y-5015000D01*
X6310000Y-6160000D02*
X6340000Y-6190000D01*
X6340000Y-6160000D02*
X6310000Y-6190000D01*
X6335000Y-5435000D02*
X6365000Y-5465000D01*
X6365000Y-5435000D02*
X6335000Y-5465000D01*
X6435000Y-4710000D02*
X6465000Y-4740000D01*
X6465000Y-4710000D02*
X6435000Y-4740000D01*
X6435000Y-6285000D02*
X6465000Y-6315000D01*
X6465000Y-6285000D02*
X6435000Y-6315000D01*
X6435000Y-7210000D02*
X6465000Y-7240000D01*
X6465000Y-7210000D02*
X6435000Y-7240000D01*
X6460000Y-6935000D02*
X6490000Y-6965000D01*
X6490000Y-6935000D02*
X6460000Y-6965000D01*
X6485000Y-5435000D02*
X6515000Y-5465000D01*
X6515000Y-5435000D02*
X6485000Y-5465000D01*
X6635000Y-5435000D02*
X6665000Y-5465000D01*
X6665000Y-5435000D02*
X6635000Y-5465000D01*
X6635000Y-5785000D02*
X6665000Y-5815000D01*
X6665000Y-5785000D02*
X6635000Y-5815000D01*
X6685000Y-4535000D02*
X6715000Y-4565000D01*
X6715000Y-4535000D02*
X6685000Y-4565000D01*
X6760000Y-6460000D02*
X6790000Y-6490000D01*
X6790000Y-6460000D02*
X6760000Y-6490000D01*
X6760000Y-6585000D02*
X6790000Y-6615000D01*
X6790000Y-6585000D02*
X6760000Y-6615000D01*
X6760000Y-6735000D02*
X6790000Y-6765000D01*
X6790000Y-6735000D02*
X6760000Y-6765000D01*
X6785000Y-5435000D02*
X6815000Y-5465000D01*
X6815000Y-5435000D02*
X6785000Y-5465000D01*
X6810000Y-6335000D02*
X6840000Y-6365000D01*
X6840000Y-6335000D02*
X6810000Y-6365000D01*
X6860000Y-4985000D02*
X6890000Y-5015000D01*
X6890000Y-4985000D02*
X6860000Y-5015000D01*
X6885000Y-5835000D02*
X6915000Y-5865000D01*
X6915000Y-5835000D02*
X6885000Y-5865000D01*
X6935000Y-5435000D02*
X6965000Y-5465000D01*
X6965000Y-5435000D02*
X6935000Y-5465000D01*
X6935000Y-6585000D02*
X6965000Y-6615000D01*
X6965000Y-6585000D02*
X6935000Y-6615000D01*
X6985000Y-7210000D02*
X7015000Y-7240000D01*
X7015000Y-7210000D02*
X6985000Y-7240000D01*
X7035000Y-6385000D02*
X7065000Y-6415000D01*
X7065000Y-6385000D02*
X7035000Y-6415000D01*
X7085000Y-5435000D02*
X7115000Y-5465000D01*
X7115000Y-5435000D02*
X7085000Y-5465000D01*
X7135000Y-5785000D02*
X7165000Y-5815000D01*
X7165000Y-5785000D02*
X7135000Y-5815000D01*
X7160000Y-6410000D02*
X7190000Y-6440000D01*
X7190000Y-6410000D02*
X7160000Y-6440000D01*
X7235000Y-5535000D02*
X7265000Y-5565000D01*
X7265000Y-5535000D02*
X7235000Y-5565000D01*
X7285000Y-6410000D02*
X7315000Y-6440000D01*
X7315000Y-6410000D02*
X7285000Y-6440000D01*
X7310000Y-5910000D02*
X7340000Y-5940000D01*
X7340000Y-5910000D02*
X7310000Y-5940000D01*
X7410000Y-6410000D02*
X7440000Y-6440000D01*
X7440000Y-6410000D02*
X7410000Y-6440000D01*
X7435000Y-4535000D02*
X7465000Y-4565000D01*
X7465000Y-4535000D02*
X7435000Y-4565000D01*
X7435000Y-5535000D02*
X7465000Y-5565000D01*
X7465000Y-5535000D02*
X7435000Y-5565000D01*
X7460000Y-7210000D02*
X7490000Y-7240000D01*
X7490000Y-7210000D02*
X7460000Y-7240000D01*
X7535000Y-5885000D02*
X7565000Y-5915000D01*
X7565000Y-5885000D02*
X7535000Y-5915000D01*
X7560000Y-6410000D02*
X7590000Y-6440000D01*
X7590000Y-6410000D02*
X7560000Y-6440000D01*
X7585000Y-6035000D02*
X7615000Y-6065000D01*
X7615000Y-6035000D02*
X7585000Y-6065000D01*
X7610000Y-4985000D02*
X7640000Y-5015000D01*
X7640000Y-4985000D02*
X7610000Y-5015000D01*
X7610000Y-6160000D02*
X7640000Y-6190000D01*
X7640000Y-6160000D02*
X7610000Y-6190000D01*
X7635000Y-5535000D02*
X7665000Y-5565000D01*
X7665000Y-5535000D02*
X7635000Y-5565000D01*
X7710000Y-6410000D02*
X7740000Y-6440000D01*
X7740000Y-6410000D02*
X7710000Y-6440000D01*
X7735000Y-5635000D02*
X7765000Y-5665000D01*
X7765000Y-5635000D02*
X7735000Y-5665000D01*
X7735000Y-6160000D02*
X7765000Y-6190000D01*
X7765000Y-6160000D02*
X7735000Y-6190000D01*
X7810000Y-6760000D02*
X7840000Y-6790000D01*
X7840000Y-6760000D02*
X7810000Y-6790000D01*
X7885000Y-6410000D02*
X7915000Y-6440000D01*
X7915000Y-6410000D02*
X7885000Y-6440000D01*
X7985000Y-7210000D02*
X8015000Y-7240000D01*
X8015000Y-7210000D02*
X7985000Y-7240000D01*
X8235000Y-5310000D02*
X8265000Y-5340000D01*
X8265000Y-5310000D02*
X8235000Y-5340000D01*
X8260000Y-5735000D02*
X8290000Y-5765000D01*
X8290000Y-5735000D02*
X8260000Y-5765000D01*
X8260000Y-6210000D02*
X8290000Y-6240000D01*
X8290000Y-6210000D02*
X8260000Y-6240000D01*
X8285000Y-4510000D02*
X8315000Y-4540000D01*
X8315000Y-4510000D02*
X8285000Y-4540000D01*
X8285000Y-6710000D02*
X8315000Y-6740000D01*
X8315000Y-6710000D02*
X8285000Y-6740000D01*
X8360000Y-4985000D02*
X8390000Y-5015000D01*
X8390000Y-4985000D02*
X8360000Y-5015000D01*
X8385000Y-7185000D02*
X8415000Y-7215000D01*
X8415000Y-7185000D02*
X8385000Y-7215000D01*
X8560000Y-5160000D02*
X8590000Y-5190000D01*
X8590000Y-5160000D02*
X8560000Y-5190000D01*
X8560000Y-5585000D02*
X8590000Y-5615000D01*
X8590000Y-5585000D02*
X8560000Y-5615000D01*
X8560000Y-6060000D02*
X8590000Y-6090000D01*
X8590000Y-6060000D02*
X8560000Y-6090000D01*
X8585000Y-6510000D02*
X8615000Y-6540000D01*
X8615000Y-6510000D02*
X8585000Y-6540000D01*
X8585000Y-6960000D02*
X8615000Y-6990000D01*
X8615000Y-6960000D02*
X8585000Y-6990000D01*
X7075000Y-5600000D02*
G75*
G02*
X7025000Y-5600000I-25000J0D01*
G01*
X7025000Y-5600000D02*
G75*
G02*
X7075000Y-5600000I25000J0D01*
G01*
X7375000Y-6150000D02*
G75*
G02*
X7325000Y-6150000I-25000J0D01*
G01*
X7325000Y-6150000D02*
G75*
G02*
X7375000Y-6150000I25000J0D01*
G01*
X7475000Y-6050000D02*
G75*
G02*
X7425000Y-6050000I-25000J0D01*
G01*
X7425000Y-6050000D02*
G75*
G02*
X7475000Y-6050000I25000J0D01*
G01*
X7172260Y-6770000D02*
X7172260Y-6830000D01*
X7142260Y-6800000D02*
X7202260Y-6800000D01*
X7322260Y-6770000D02*
X7322260Y-6830000D01*
X7292260Y-6800000D02*
X7352260Y-6800000D01*
X10724749Y-5174749D02*
X10724749Y-5125251D01*
X10675251Y-5125251D01*
X10675251Y-5174749D01*
X10724749Y-5174749D01*
X10774749Y-6324749D02*
X10774749Y-6275251D01*
X10725251Y-6275251D01*
X10725251Y-6324749D01*
X10774749Y-6324749D01*
X5650000Y-4972500D02*
X5700000Y-4922500D01*
X5650000Y-4872500D01*
X5600000Y-4922500D01*
X5650000Y-4972500D01*
X5650000Y-5226500D02*
X5700000Y-5176500D01*
X5650000Y-5126500D01*
X5600000Y-5176500D01*
X5650000Y-5226500D01*
X5650000Y-5822500D02*
X5700000Y-5772500D01*
X5650000Y-5722500D01*
X5600000Y-5772500D01*
X5650000Y-5822500D01*
X5650000Y-6076500D02*
X5700000Y-6026500D01*
X5650000Y-5976500D01*
X5600000Y-6026500D01*
X5650000Y-6076500D01*
X13200000Y-5022500D02*
X13250000Y-4972500D01*
X13200000Y-4922500D01*
X13150000Y-4972500D01*
X13200000Y-5022500D01*
X13200000Y-5276500D02*
X13250000Y-5226500D01*
X13200000Y-5176500D01*
X13150000Y-5226500D01*
X13200000Y-5276500D01*
X13200000Y-6522500D02*
X13250000Y-6472500D01*
X13200000Y-6422500D01*
X13150000Y-6472500D01*
X13200000Y-6522500D01*
X13200000Y-6776500D02*
X13250000Y-6726500D01*
X13200000Y-6676500D01*
X13150000Y-6726500D01*
X13200000Y-6776500D01*
D13*
X11592500Y-4735000D02*
X11707500Y-4850000D01*
X11707500Y-4735000D02*
X11592500Y-4850000D01*
X11707500Y-4792500D02*
G75*
G02*
X11592500Y-4792500I-57500J0D01*
G01*
X11592500Y-4792500D02*
G75*
G02*
X11707500Y-4792500I57500J0D01*
G01*
X11592500Y-6235000D02*
X11707500Y-6350000D01*
X11707500Y-6235000D02*
X11592500Y-6350000D01*
X11707500Y-6292500D02*
G75*
G02*
X11592500Y-6292500I-57500J0D01*
G01*
X11592500Y-6292500D02*
G75*
G02*
X11707500Y-6292500I57500J0D01*
G01*
D11*
X5608277Y-7663984D02*
X5608277Y-7463984D01*
X5608277Y-7463984D02*
X5655896Y-7463984D01*
X5655896Y-7463984D02*
X5684467Y-7473508D01*
X5684467Y-7473508D02*
X5703515Y-7492555D01*
X5703515Y-7492555D02*
X5713039Y-7511603D01*
X5713039Y-7511603D02*
X5722562Y-7549698D01*
X5722562Y-7549698D02*
X5722562Y-7578269D01*
X5722562Y-7578269D02*
X5713039Y-7616365D01*
X5713039Y-7616365D02*
X5703515Y-7635412D01*
X5703515Y-7635412D02*
X5684467Y-7654460D01*
X5684467Y-7654460D02*
X5655896Y-7663984D01*
X5655896Y-7663984D02*
X5608277Y-7663984D01*
X5808277Y-7663984D02*
X5808277Y-7530650D01*
X5808277Y-7568746D02*
X5817801Y-7549698D01*
X5817801Y-7549698D02*
X5827324Y-7540174D01*
X5827324Y-7540174D02*
X5846372Y-7530650D01*
X5846372Y-7530650D02*
X5865420Y-7530650D01*
X5932086Y-7663984D02*
X5932086Y-7530650D01*
X5932086Y-7463984D02*
X5922562Y-7473508D01*
X5922562Y-7473508D02*
X5932086Y-7483031D01*
X5932086Y-7483031D02*
X5941610Y-7473508D01*
X5941610Y-7473508D02*
X5932086Y-7463984D01*
X5932086Y-7463984D02*
X5932086Y-7483031D01*
X6055896Y-7663984D02*
X6036848Y-7654460D01*
X6036848Y-7654460D02*
X6027324Y-7635412D01*
X6027324Y-7635412D02*
X6027324Y-7463984D01*
X6160658Y-7663984D02*
X6141610Y-7654460D01*
X6141610Y-7654460D02*
X6132086Y-7635412D01*
X6132086Y-7635412D02*
X6132086Y-7463984D01*
X6389229Y-7663984D02*
X6389229Y-7463984D01*
X6389229Y-7463984D02*
X6455896Y-7606841D01*
X6455896Y-7606841D02*
X6522562Y-7463984D01*
X6522562Y-7463984D02*
X6522562Y-7663984D01*
X6703515Y-7663984D02*
X6703515Y-7559222D01*
X6703515Y-7559222D02*
X6693991Y-7540174D01*
X6693991Y-7540174D02*
X6674943Y-7530650D01*
X6674943Y-7530650D02*
X6636848Y-7530650D01*
X6636848Y-7530650D02*
X6617801Y-7540174D01*
X6703515Y-7654460D02*
X6684467Y-7663984D01*
X6684467Y-7663984D02*
X6636848Y-7663984D01*
X6636848Y-7663984D02*
X6617801Y-7654460D01*
X6617801Y-7654460D02*
X6608277Y-7635412D01*
X6608277Y-7635412D02*
X6608277Y-7616365D01*
X6608277Y-7616365D02*
X6617801Y-7597317D01*
X6617801Y-7597317D02*
X6636848Y-7587793D01*
X6636848Y-7587793D02*
X6684467Y-7587793D01*
X6684467Y-7587793D02*
X6703515Y-7578269D01*
X6798753Y-7530650D02*
X6798753Y-7730650D01*
X6798753Y-7540174D02*
X6817801Y-7530650D01*
X6817801Y-7530650D02*
X6855896Y-7530650D01*
X6855896Y-7530650D02*
X6874943Y-7540174D01*
X6874943Y-7540174D02*
X6884467Y-7549698D01*
X6884467Y-7549698D02*
X6893991Y-7568746D01*
X6893991Y-7568746D02*
X6893991Y-7625888D01*
X6893991Y-7625888D02*
X6884467Y-7644936D01*
X6884467Y-7644936D02*
X6874943Y-7654460D01*
X6874943Y-7654460D02*
X6855896Y-7663984D01*
X6855896Y-7663984D02*
X6817801Y-7663984D01*
X6817801Y-7663984D02*
X6798753Y-7654460D01*
X6979705Y-7644936D02*
X6989229Y-7654460D01*
X6989229Y-7654460D02*
X6979705Y-7663984D01*
X6979705Y-7663984D02*
X6970182Y-7654460D01*
X6970182Y-7654460D02*
X6979705Y-7644936D01*
X6979705Y-7644936D02*
X6979705Y-7663984D01*
X6979705Y-7540174D02*
X6989229Y-7549698D01*
X6989229Y-7549698D02*
X6979705Y-7559222D01*
X6979705Y-7559222D02*
X6970182Y-7549698D01*
X6970182Y-7549698D02*
X6979705Y-7540174D01*
X6979705Y-7540174D02*
X6979705Y-7559222D01*
D12*
X5317500Y-7977500D02*
X5347500Y-8007500D01*
X5347500Y-7977500D02*
X5317500Y-8007500D01*
D11*
X5646372Y-7883984D02*
X5665420Y-7883984D01*
X5665420Y-7883984D02*
X5684467Y-7893508D01*
X5684467Y-7893508D02*
X5693991Y-7903031D01*
X5693991Y-7903031D02*
X5703515Y-7922079D01*
X5703515Y-7922079D02*
X5713039Y-7960174D01*
X5713039Y-7960174D02*
X5713039Y-8007793D01*
X5713039Y-8007793D02*
X5703515Y-8045888D01*
X5703515Y-8045888D02*
X5693991Y-8064936D01*
X5693991Y-8064936D02*
X5684467Y-8074460D01*
X5684467Y-8074460D02*
X5665420Y-8083984D01*
X5665420Y-8083984D02*
X5646372Y-8083984D01*
X5646372Y-8083984D02*
X5627324Y-8074460D01*
X5627324Y-8074460D02*
X5617801Y-8064936D01*
X5617801Y-8064936D02*
X5608277Y-8045888D01*
X5608277Y-8045888D02*
X5598753Y-8007793D01*
X5598753Y-8007793D02*
X5598753Y-7960174D01*
X5598753Y-7960174D02*
X5608277Y-7922079D01*
X5608277Y-7922079D02*
X5617801Y-7903031D01*
X5617801Y-7903031D02*
X5627324Y-7893508D01*
X5627324Y-7893508D02*
X5646372Y-7883984D01*
X5798753Y-8064936D02*
X5808277Y-8074460D01*
X5808277Y-8074460D02*
X5798753Y-8083984D01*
X5798753Y-8083984D02*
X5789229Y-8074460D01*
X5789229Y-8074460D02*
X5798753Y-8064936D01*
X5798753Y-8064936D02*
X5798753Y-8083984D01*
X5874943Y-7883984D02*
X5998753Y-7883984D01*
X5998753Y-7883984D02*
X5932086Y-7960174D01*
X5932086Y-7960174D02*
X5960658Y-7960174D01*
X5960658Y-7960174D02*
X5979705Y-7969698D01*
X5979705Y-7969698D02*
X5989229Y-7979222D01*
X5989229Y-7979222D02*
X5998753Y-7998269D01*
X5998753Y-7998269D02*
X5998753Y-8045888D01*
X5998753Y-8045888D02*
X5989229Y-8064936D01*
X5989229Y-8064936D02*
X5979705Y-8074460D01*
X5979705Y-8074460D02*
X5960658Y-8083984D01*
X5960658Y-8083984D02*
X5903515Y-8083984D01*
X5903515Y-8083984D02*
X5884467Y-8074460D01*
X5884467Y-8074460D02*
X5874943Y-8064936D01*
X6122562Y-7883984D02*
X6141610Y-7883984D01*
X6141610Y-7883984D02*
X6160658Y-7893508D01*
X6160658Y-7893508D02*
X6170182Y-7903031D01*
X6170182Y-7903031D02*
X6179705Y-7922079D01*
X6179705Y-7922079D02*
X6189229Y-7960174D01*
X6189229Y-7960174D02*
X6189229Y-8007793D01*
X6189229Y-8007793D02*
X6179705Y-8045888D01*
X6179705Y-8045888D02*
X6170182Y-8064936D01*
X6170182Y-8064936D02*
X6160658Y-8074460D01*
X6160658Y-8074460D02*
X6141610Y-8083984D01*
X6141610Y-8083984D02*
X6122562Y-8083984D01*
X6122562Y-8083984D02*
X6103515Y-8074460D01*
X6103515Y-8074460D02*
X6093991Y-8064936D01*
X6093991Y-8064936D02*
X6084467Y-8045888D01*
X6084467Y-8045888D02*
X6074943Y-8007793D01*
X6074943Y-8007793D02*
X6074943Y-7960174D01*
X6074943Y-7960174D02*
X6084467Y-7922079D01*
X6084467Y-7922079D02*
X6093991Y-7903031D01*
X6093991Y-7903031D02*
X6103515Y-7893508D01*
X6103515Y-7893508D02*
X6122562Y-7883984D01*
X6313039Y-7883984D02*
X6332086Y-7883984D01*
X6332086Y-7883984D02*
X6351134Y-7893508D01*
X6351134Y-7893508D02*
X6360658Y-7903031D01*
X6360658Y-7903031D02*
X6370182Y-7922079D01*
X6370182Y-7922079D02*
X6379705Y-7960174D01*
X6379705Y-7960174D02*
X6379705Y-8007793D01*
X6379705Y-8007793D02*
X6370182Y-8045888D01*
X6370182Y-8045888D02*
X6360658Y-8064936D01*
X6360658Y-8064936D02*
X6351134Y-8074460D01*
X6351134Y-8074460D02*
X6332086Y-8083984D01*
X6332086Y-8083984D02*
X6313039Y-8083984D01*
X6313039Y-8083984D02*
X6293991Y-8074460D01*
X6293991Y-8074460D02*
X6284467Y-8064936D01*
X6284467Y-8064936D02*
X6274943Y-8045888D01*
X6274943Y-8045888D02*
X6265420Y-8007793D01*
X6265420Y-8007793D02*
X6265420Y-7960174D01*
X6265420Y-7960174D02*
X6274943Y-7922079D01*
X6274943Y-7922079D02*
X6284467Y-7903031D01*
X6284467Y-7903031D02*
X6293991Y-7893508D01*
X6293991Y-7893508D02*
X6313039Y-7883984D01*
X6465420Y-8083984D02*
X6465420Y-7950650D01*
X6465420Y-7969698D02*
X6474943Y-7960174D01*
X6474943Y-7960174D02*
X6493991Y-7950650D01*
X6493991Y-7950650D02*
X6522563Y-7950650D01*
X6522563Y-7950650D02*
X6541610Y-7960174D01*
X6541610Y-7960174D02*
X6551134Y-7979222D01*
X6551134Y-7979222D02*
X6551134Y-8083984D01*
X6551134Y-7979222D02*
X6560658Y-7960174D01*
X6560658Y-7960174D02*
X6579705Y-7950650D01*
X6579705Y-7950650D02*
X6608277Y-7950650D01*
X6608277Y-7950650D02*
X6627324Y-7960174D01*
X6627324Y-7960174D02*
X6636848Y-7979222D01*
X6636848Y-7979222D02*
X6636848Y-8083984D01*
X6732086Y-8083984D02*
X6732086Y-7950650D01*
X6732086Y-7969698D02*
X6741610Y-7960174D01*
X6741610Y-7960174D02*
X6760658Y-7950650D01*
X6760658Y-7950650D02*
X6789229Y-7950650D01*
X6789229Y-7950650D02*
X6808277Y-7960174D01*
X6808277Y-7960174D02*
X6817801Y-7979222D01*
X6817801Y-7979222D02*
X6817801Y-8083984D01*
X6817801Y-7979222D02*
X6827324Y-7960174D01*
X6827324Y-7960174D02*
X6846372Y-7950650D01*
X6846372Y-7950650D02*
X6874943Y-7950650D01*
X6874943Y-7950650D02*
X6893991Y-7960174D01*
X6893991Y-7960174D02*
X6903515Y-7979222D01*
X6903515Y-7979222D02*
X6903515Y-8083984D01*
X7293991Y-7874460D02*
X7122563Y-8131603D01*
X7551134Y-7883984D02*
X7570182Y-7883984D01*
X7570182Y-7883984D02*
X7589229Y-7893508D01*
X7589229Y-7893508D02*
X7598753Y-7903031D01*
X7598753Y-7903031D02*
X7608277Y-7922079D01*
X7608277Y-7922079D02*
X7617801Y-7960174D01*
X7617801Y-7960174D02*
X7617801Y-8007793D01*
X7617801Y-8007793D02*
X7608277Y-8045888D01*
X7608277Y-8045888D02*
X7598753Y-8064936D01*
X7598753Y-8064936D02*
X7589229Y-8074460D01*
X7589229Y-8074460D02*
X7570182Y-8083984D01*
X7570182Y-8083984D02*
X7551134Y-8083984D01*
X7551134Y-8083984D02*
X7532086Y-8074460D01*
X7532086Y-8074460D02*
X7522563Y-8064936D01*
X7522563Y-8064936D02*
X7513039Y-8045888D01*
X7513039Y-8045888D02*
X7503515Y-8007793D01*
X7503515Y-8007793D02*
X7503515Y-7960174D01*
X7503515Y-7960174D02*
X7513039Y-7922079D01*
X7513039Y-7922079D02*
X7522563Y-7903031D01*
X7522563Y-7903031D02*
X7532086Y-7893508D01*
X7532086Y-7893508D02*
X7551134Y-7883984D01*
X7703515Y-8064936D02*
X7713039Y-8074460D01*
X7713039Y-8074460D02*
X7703515Y-8083984D01*
X7703515Y-8083984D02*
X7693991Y-8074460D01*
X7693991Y-8074460D02*
X7703515Y-8064936D01*
X7703515Y-8064936D02*
X7703515Y-8083984D01*
X7836848Y-7883984D02*
X7855896Y-7883984D01*
X7855896Y-7883984D02*
X7874944Y-7893508D01*
X7874944Y-7893508D02*
X7884467Y-7903031D01*
X7884467Y-7903031D02*
X7893991Y-7922079D01*
X7893991Y-7922079D02*
X7903515Y-7960174D01*
X7903515Y-7960174D02*
X7903515Y-8007793D01*
X7903515Y-8007793D02*
X7893991Y-8045888D01*
X7893991Y-8045888D02*
X7884467Y-8064936D01*
X7884467Y-8064936D02*
X7874944Y-8074460D01*
X7874944Y-8074460D02*
X7855896Y-8083984D01*
X7855896Y-8083984D02*
X7836848Y-8083984D01*
X7836848Y-8083984D02*
X7817801Y-8074460D01*
X7817801Y-8074460D02*
X7808277Y-8064936D01*
X7808277Y-8064936D02*
X7798753Y-8045888D01*
X7798753Y-8045888D02*
X7789229Y-8007793D01*
X7789229Y-8007793D02*
X7789229Y-7960174D01*
X7789229Y-7960174D02*
X7798753Y-7922079D01*
X7798753Y-7922079D02*
X7808277Y-7903031D01*
X7808277Y-7903031D02*
X7817801Y-7893508D01*
X7817801Y-7893508D02*
X7836848Y-7883984D01*
X8093991Y-8083984D02*
X7979706Y-8083984D01*
X8036848Y-8083984D02*
X8036848Y-7883984D01*
X8036848Y-7883984D02*
X8017801Y-7912555D01*
X8017801Y-7912555D02*
X7998753Y-7931603D01*
X7998753Y-7931603D02*
X7979706Y-7941127D01*
X8284467Y-8083984D02*
X8170182Y-8083984D01*
X8227325Y-8083984D02*
X8227325Y-7883984D01*
X8227325Y-7883984D02*
X8208277Y-7912555D01*
X8208277Y-7912555D02*
X8189229Y-7931603D01*
X8189229Y-7931603D02*
X8170182Y-7941127D01*
X8398753Y-7969698D02*
X8379706Y-7960174D01*
X8379706Y-7960174D02*
X8370182Y-7950650D01*
X8370182Y-7950650D02*
X8360658Y-7931603D01*
X8360658Y-7931603D02*
X8360658Y-7922079D01*
X8360658Y-7922079D02*
X8370182Y-7903031D01*
X8370182Y-7903031D02*
X8379706Y-7893508D01*
X8379706Y-7893508D02*
X8398753Y-7883984D01*
X8398753Y-7883984D02*
X8436849Y-7883984D01*
X8436849Y-7883984D02*
X8455896Y-7893508D01*
X8455896Y-7893508D02*
X8465420Y-7903031D01*
X8465420Y-7903031D02*
X8474944Y-7922079D01*
X8474944Y-7922079D02*
X8474944Y-7931603D01*
X8474944Y-7931603D02*
X8465420Y-7950650D01*
X8465420Y-7950650D02*
X8455896Y-7960174D01*
X8455896Y-7960174D02*
X8436849Y-7969698D01*
X8436849Y-7969698D02*
X8398753Y-7969698D01*
X8398753Y-7969698D02*
X8379706Y-7979222D01*
X8379706Y-7979222D02*
X8370182Y-7988746D01*
X8370182Y-7988746D02*
X8360658Y-8007793D01*
X8360658Y-8007793D02*
X8360658Y-8045888D01*
X8360658Y-8045888D02*
X8370182Y-8064936D01*
X8370182Y-8064936D02*
X8379706Y-8074460D01*
X8379706Y-8074460D02*
X8398753Y-8083984D01*
X8398753Y-8083984D02*
X8436849Y-8083984D01*
X8436849Y-8083984D02*
X8455896Y-8074460D01*
X8455896Y-8074460D02*
X8465420Y-8064936D01*
X8465420Y-8064936D02*
X8474944Y-8045888D01*
X8474944Y-8045888D02*
X8474944Y-8007793D01*
X8474944Y-8007793D02*
X8465420Y-7988746D01*
X8465420Y-7988746D02*
X8455896Y-7979222D01*
X8455896Y-7979222D02*
X8436849Y-7969698D01*
X8551134Y-7883984D02*
X8551134Y-7922079D01*
X8627325Y-7883984D02*
X8627325Y-7922079D01*
X8922563Y-8160174D02*
X8913039Y-8150650D01*
X8913039Y-8150650D02*
X8893991Y-8122079D01*
X8893991Y-8122079D02*
X8884468Y-8103031D01*
X8884468Y-8103031D02*
X8874944Y-8074460D01*
X8874944Y-8074460D02*
X8865420Y-8026841D01*
X8865420Y-8026841D02*
X8865420Y-7988746D01*
X8865420Y-7988746D02*
X8874944Y-7941127D01*
X8874944Y-7941127D02*
X8884468Y-7912555D01*
X8884468Y-7912555D02*
X8893991Y-7893508D01*
X8893991Y-7893508D02*
X8913039Y-7864936D01*
X8913039Y-7864936D02*
X8922563Y-7855412D01*
X8979706Y-7883984D02*
X9113039Y-7883984D01*
X9113039Y-7883984D02*
X9027325Y-8083984D01*
X9274944Y-7950650D02*
X9274944Y-8083984D01*
X9227325Y-7874460D02*
X9179706Y-8017317D01*
X9179706Y-8017317D02*
X9303515Y-8017317D01*
X9532087Y-8083984D02*
X9532087Y-7883984D01*
X9617801Y-8083984D02*
X9617801Y-7979222D01*
X9617801Y-7979222D02*
X9608277Y-7960174D01*
X9608277Y-7960174D02*
X9589230Y-7950650D01*
X9589230Y-7950650D02*
X9560658Y-7950650D01*
X9560658Y-7950650D02*
X9541611Y-7960174D01*
X9541611Y-7960174D02*
X9532087Y-7969698D01*
X9741611Y-8083984D02*
X9722563Y-8074460D01*
X9722563Y-8074460D02*
X9713039Y-8064936D01*
X9713039Y-8064936D02*
X9703515Y-8045888D01*
X9703515Y-8045888D02*
X9703515Y-7988746D01*
X9703515Y-7988746D02*
X9713039Y-7969698D01*
X9713039Y-7969698D02*
X9722563Y-7960174D01*
X9722563Y-7960174D02*
X9741611Y-7950650D01*
X9741611Y-7950650D02*
X9770182Y-7950650D01*
X9770182Y-7950650D02*
X9789230Y-7960174D01*
X9789230Y-7960174D02*
X9798753Y-7969698D01*
X9798753Y-7969698D02*
X9808277Y-7988746D01*
X9808277Y-7988746D02*
X9808277Y-8045888D01*
X9808277Y-8045888D02*
X9798753Y-8064936D01*
X9798753Y-8064936D02*
X9789230Y-8074460D01*
X9789230Y-8074460D02*
X9770182Y-8083984D01*
X9770182Y-8083984D02*
X9741611Y-8083984D01*
X9922563Y-8083984D02*
X9903515Y-8074460D01*
X9903515Y-8074460D02*
X9893992Y-8055412D01*
X9893992Y-8055412D02*
X9893992Y-7883984D01*
X10074944Y-8074460D02*
X10055896Y-8083984D01*
X10055896Y-8083984D02*
X10017801Y-8083984D01*
X10017801Y-8083984D02*
X9998753Y-8074460D01*
X9998753Y-8074460D02*
X9989230Y-8055412D01*
X9989230Y-8055412D02*
X9989230Y-7979222D01*
X9989230Y-7979222D02*
X9998753Y-7960174D01*
X9998753Y-7960174D02*
X10017801Y-7950650D01*
X10017801Y-7950650D02*
X10055896Y-7950650D01*
X10055896Y-7950650D02*
X10074944Y-7960174D01*
X10074944Y-7960174D02*
X10084468Y-7979222D01*
X10084468Y-7979222D02*
X10084468Y-7998269D01*
X10084468Y-7998269D02*
X9989230Y-8017317D01*
X10160658Y-8074460D02*
X10179706Y-8083984D01*
X10179706Y-8083984D02*
X10217801Y-8083984D01*
X10217801Y-8083984D02*
X10236849Y-8074460D01*
X10236849Y-8074460D02*
X10246373Y-8055412D01*
X10246373Y-8055412D02*
X10246373Y-8045888D01*
X10246373Y-8045888D02*
X10236849Y-8026841D01*
X10236849Y-8026841D02*
X10217801Y-8017317D01*
X10217801Y-8017317D02*
X10189230Y-8017317D01*
X10189230Y-8017317D02*
X10170182Y-8007793D01*
X10170182Y-8007793D02*
X10160658Y-7988746D01*
X10160658Y-7988746D02*
X10160658Y-7979222D01*
X10160658Y-7979222D02*
X10170182Y-7960174D01*
X10170182Y-7960174D02*
X10189230Y-7950650D01*
X10189230Y-7950650D02*
X10217801Y-7950650D01*
X10217801Y-7950650D02*
X10236849Y-7960174D01*
X10313039Y-8160174D02*
X10322563Y-8150650D01*
X10322563Y-8150650D02*
X10341611Y-8122079D01*
X10341611Y-8122079D02*
X10351134Y-8103031D01*
X10351134Y-8103031D02*
X10360658Y-8074460D01*
X10360658Y-8074460D02*
X10370182Y-8026841D01*
X10370182Y-8026841D02*
X10370182Y-7988746D01*
X10370182Y-7988746D02*
X10360658Y-7941127D01*
X10360658Y-7941127D02*
X10351134Y-7912555D01*
X10351134Y-7912555D02*
X10341611Y-7893508D01*
X10341611Y-7893508D02*
X10322563Y-7864936D01*
X10322563Y-7864936D02*
X10313039Y-7855412D01*
D12*
X5347500Y-8256500D02*
G75*
G02*
X5297500Y-8256500I-25000J0D01*
G01*
X5297500Y-8256500D02*
G75*
G02*
X5347500Y-8256500I25000J0D01*
G01*
D11*
X5646372Y-8147984D02*
X5665420Y-8147984D01*
X5665420Y-8147984D02*
X5684467Y-8157508D01*
X5684467Y-8157508D02*
X5693991Y-8167031D01*
X5693991Y-8167031D02*
X5703515Y-8186079D01*
X5703515Y-8186079D02*
X5713039Y-8224174D01*
X5713039Y-8224174D02*
X5713039Y-8271793D01*
X5713039Y-8271793D02*
X5703515Y-8309888D01*
X5703515Y-8309888D02*
X5693991Y-8328936D01*
X5693991Y-8328936D02*
X5684467Y-8338460D01*
X5684467Y-8338460D02*
X5665420Y-8347984D01*
X5665420Y-8347984D02*
X5646372Y-8347984D01*
X5646372Y-8347984D02*
X5627324Y-8338460D01*
X5627324Y-8338460D02*
X5617801Y-8328936D01*
X5617801Y-8328936D02*
X5608277Y-8309888D01*
X5608277Y-8309888D02*
X5598753Y-8271793D01*
X5598753Y-8271793D02*
X5598753Y-8224174D01*
X5598753Y-8224174D02*
X5608277Y-8186079D01*
X5608277Y-8186079D02*
X5617801Y-8167031D01*
X5617801Y-8167031D02*
X5627324Y-8157508D01*
X5627324Y-8157508D02*
X5646372Y-8147984D01*
X5798753Y-8328936D02*
X5808277Y-8338460D01*
X5808277Y-8338460D02*
X5798753Y-8347984D01*
X5798753Y-8347984D02*
X5789229Y-8338460D01*
X5789229Y-8338460D02*
X5798753Y-8328936D01*
X5798753Y-8328936D02*
X5798753Y-8347984D01*
X5989229Y-8147984D02*
X5893991Y-8147984D01*
X5893991Y-8147984D02*
X5884467Y-8243222D01*
X5884467Y-8243222D02*
X5893991Y-8233698D01*
X5893991Y-8233698D02*
X5913039Y-8224174D01*
X5913039Y-8224174D02*
X5960658Y-8224174D01*
X5960658Y-8224174D02*
X5979705Y-8233698D01*
X5979705Y-8233698D02*
X5989229Y-8243222D01*
X5989229Y-8243222D02*
X5998753Y-8262269D01*
X5998753Y-8262269D02*
X5998753Y-8309888D01*
X5998753Y-8309888D02*
X5989229Y-8328936D01*
X5989229Y-8328936D02*
X5979705Y-8338460D01*
X5979705Y-8338460D02*
X5960658Y-8347984D01*
X5960658Y-8347984D02*
X5913039Y-8347984D01*
X5913039Y-8347984D02*
X5893991Y-8338460D01*
X5893991Y-8338460D02*
X5884467Y-8328936D01*
X6122562Y-8147984D02*
X6141610Y-8147984D01*
X6141610Y-8147984D02*
X6160658Y-8157508D01*
X6160658Y-8157508D02*
X6170182Y-8167031D01*
X6170182Y-8167031D02*
X6179705Y-8186079D01*
X6179705Y-8186079D02*
X6189229Y-8224174D01*
X6189229Y-8224174D02*
X6189229Y-8271793D01*
X6189229Y-8271793D02*
X6179705Y-8309888D01*
X6179705Y-8309888D02*
X6170182Y-8328936D01*
X6170182Y-8328936D02*
X6160658Y-8338460D01*
X6160658Y-8338460D02*
X6141610Y-8347984D01*
X6141610Y-8347984D02*
X6122562Y-8347984D01*
X6122562Y-8347984D02*
X6103515Y-8338460D01*
X6103515Y-8338460D02*
X6093991Y-8328936D01*
X6093991Y-8328936D02*
X6084467Y-8309888D01*
X6084467Y-8309888D02*
X6074943Y-8271793D01*
X6074943Y-8271793D02*
X6074943Y-8224174D01*
X6074943Y-8224174D02*
X6084467Y-8186079D01*
X6084467Y-8186079D02*
X6093991Y-8167031D01*
X6093991Y-8167031D02*
X6103515Y-8157508D01*
X6103515Y-8157508D02*
X6122562Y-8147984D01*
X6313039Y-8147984D02*
X6332086Y-8147984D01*
X6332086Y-8147984D02*
X6351134Y-8157508D01*
X6351134Y-8157508D02*
X6360658Y-8167031D01*
X6360658Y-8167031D02*
X6370182Y-8186079D01*
X6370182Y-8186079D02*
X6379705Y-8224174D01*
X6379705Y-8224174D02*
X6379705Y-8271793D01*
X6379705Y-8271793D02*
X6370182Y-8309888D01*
X6370182Y-8309888D02*
X6360658Y-8328936D01*
X6360658Y-8328936D02*
X6351134Y-8338460D01*
X6351134Y-8338460D02*
X6332086Y-8347984D01*
X6332086Y-8347984D02*
X6313039Y-8347984D01*
X6313039Y-8347984D02*
X6293991Y-8338460D01*
X6293991Y-8338460D02*
X6284467Y-8328936D01*
X6284467Y-8328936D02*
X6274943Y-8309888D01*
X6274943Y-8309888D02*
X6265420Y-8271793D01*
X6265420Y-8271793D02*
X6265420Y-8224174D01*
X6265420Y-8224174D02*
X6274943Y-8186079D01*
X6274943Y-8186079D02*
X6284467Y-8167031D01*
X6284467Y-8167031D02*
X6293991Y-8157508D01*
X6293991Y-8157508D02*
X6313039Y-8147984D01*
X6465420Y-8347984D02*
X6465420Y-8214650D01*
X6465420Y-8233698D02*
X6474943Y-8224174D01*
X6474943Y-8224174D02*
X6493991Y-8214650D01*
X6493991Y-8214650D02*
X6522563Y-8214650D01*
X6522563Y-8214650D02*
X6541610Y-8224174D01*
X6541610Y-8224174D02*
X6551134Y-8243222D01*
X6551134Y-8243222D02*
X6551134Y-8347984D01*
X6551134Y-8243222D02*
X6560658Y-8224174D01*
X6560658Y-8224174D02*
X6579705Y-8214650D01*
X6579705Y-8214650D02*
X6608277Y-8214650D01*
X6608277Y-8214650D02*
X6627324Y-8224174D01*
X6627324Y-8224174D02*
X6636848Y-8243222D01*
X6636848Y-8243222D02*
X6636848Y-8347984D01*
X6732086Y-8347984D02*
X6732086Y-8214650D01*
X6732086Y-8233698D02*
X6741610Y-8224174D01*
X6741610Y-8224174D02*
X6760658Y-8214650D01*
X6760658Y-8214650D02*
X6789229Y-8214650D01*
X6789229Y-8214650D02*
X6808277Y-8224174D01*
X6808277Y-8224174D02*
X6817801Y-8243222D01*
X6817801Y-8243222D02*
X6817801Y-8347984D01*
X6817801Y-8243222D02*
X6827324Y-8224174D01*
X6827324Y-8224174D02*
X6846372Y-8214650D01*
X6846372Y-8214650D02*
X6874943Y-8214650D01*
X6874943Y-8214650D02*
X6893991Y-8224174D01*
X6893991Y-8224174D02*
X6903515Y-8243222D01*
X6903515Y-8243222D02*
X6903515Y-8347984D01*
X7293991Y-8138460D02*
X7122563Y-8395603D01*
X7551134Y-8147984D02*
X7570182Y-8147984D01*
X7570182Y-8147984D02*
X7589229Y-8157508D01*
X7589229Y-8157508D02*
X7598753Y-8167031D01*
X7598753Y-8167031D02*
X7608277Y-8186079D01*
X7608277Y-8186079D02*
X7617801Y-8224174D01*
X7617801Y-8224174D02*
X7617801Y-8271793D01*
X7617801Y-8271793D02*
X7608277Y-8309888D01*
X7608277Y-8309888D02*
X7598753Y-8328936D01*
X7598753Y-8328936D02*
X7589229Y-8338460D01*
X7589229Y-8338460D02*
X7570182Y-8347984D01*
X7570182Y-8347984D02*
X7551134Y-8347984D01*
X7551134Y-8347984D02*
X7532086Y-8338460D01*
X7532086Y-8338460D02*
X7522563Y-8328936D01*
X7522563Y-8328936D02*
X7513039Y-8309888D01*
X7513039Y-8309888D02*
X7503515Y-8271793D01*
X7503515Y-8271793D02*
X7503515Y-8224174D01*
X7503515Y-8224174D02*
X7513039Y-8186079D01*
X7513039Y-8186079D02*
X7522563Y-8167031D01*
X7522563Y-8167031D02*
X7532086Y-8157508D01*
X7532086Y-8157508D02*
X7551134Y-8147984D01*
X7703515Y-8328936D02*
X7713039Y-8338460D01*
X7713039Y-8338460D02*
X7703515Y-8347984D01*
X7703515Y-8347984D02*
X7693991Y-8338460D01*
X7693991Y-8338460D02*
X7703515Y-8328936D01*
X7703515Y-8328936D02*
X7703515Y-8347984D01*
X7836848Y-8147984D02*
X7855896Y-8147984D01*
X7855896Y-8147984D02*
X7874944Y-8157508D01*
X7874944Y-8157508D02*
X7884467Y-8167031D01*
X7884467Y-8167031D02*
X7893991Y-8186079D01*
X7893991Y-8186079D02*
X7903515Y-8224174D01*
X7903515Y-8224174D02*
X7903515Y-8271793D01*
X7903515Y-8271793D02*
X7893991Y-8309888D01*
X7893991Y-8309888D02*
X7884467Y-8328936D01*
X7884467Y-8328936D02*
X7874944Y-8338460D01*
X7874944Y-8338460D02*
X7855896Y-8347984D01*
X7855896Y-8347984D02*
X7836848Y-8347984D01*
X7836848Y-8347984D02*
X7817801Y-8338460D01*
X7817801Y-8338460D02*
X7808277Y-8328936D01*
X7808277Y-8328936D02*
X7798753Y-8309888D01*
X7798753Y-8309888D02*
X7789229Y-8271793D01*
X7789229Y-8271793D02*
X7789229Y-8224174D01*
X7789229Y-8224174D02*
X7798753Y-8186079D01*
X7798753Y-8186079D02*
X7808277Y-8167031D01*
X7808277Y-8167031D02*
X7817801Y-8157508D01*
X7817801Y-8157508D02*
X7836848Y-8147984D01*
X8093991Y-8347984D02*
X7979706Y-8347984D01*
X8036848Y-8347984D02*
X8036848Y-8147984D01*
X8036848Y-8147984D02*
X8017801Y-8176555D01*
X8017801Y-8176555D02*
X7998753Y-8195603D01*
X7998753Y-8195603D02*
X7979706Y-8205127D01*
X8189229Y-8347984D02*
X8227325Y-8347984D01*
X8227325Y-8347984D02*
X8246372Y-8338460D01*
X8246372Y-8338460D02*
X8255896Y-8328936D01*
X8255896Y-8328936D02*
X8274944Y-8300365D01*
X8274944Y-8300365D02*
X8284467Y-8262269D01*
X8284467Y-8262269D02*
X8284467Y-8186079D01*
X8284467Y-8186079D02*
X8274944Y-8167031D01*
X8274944Y-8167031D02*
X8265420Y-8157508D01*
X8265420Y-8157508D02*
X8246372Y-8147984D01*
X8246372Y-8147984D02*
X8208277Y-8147984D01*
X8208277Y-8147984D02*
X8189229Y-8157508D01*
X8189229Y-8157508D02*
X8179706Y-8167031D01*
X8179706Y-8167031D02*
X8170182Y-8186079D01*
X8170182Y-8186079D02*
X8170182Y-8233698D01*
X8170182Y-8233698D02*
X8179706Y-8252746D01*
X8179706Y-8252746D02*
X8189229Y-8262269D01*
X8189229Y-8262269D02*
X8208277Y-8271793D01*
X8208277Y-8271793D02*
X8246372Y-8271793D01*
X8246372Y-8271793D02*
X8265420Y-8262269D01*
X8265420Y-8262269D02*
X8274944Y-8252746D01*
X8274944Y-8252746D02*
X8284467Y-8233698D01*
X8351134Y-8147984D02*
X8484468Y-8147984D01*
X8484468Y-8147984D02*
X8398753Y-8347984D01*
X8551134Y-8147984D02*
X8551134Y-8186079D01*
X8627325Y-8147984D02*
X8627325Y-8186079D01*
X8922563Y-8424174D02*
X8913039Y-8414650D01*
X8913039Y-8414650D02*
X8893991Y-8386079D01*
X8893991Y-8386079D02*
X8884468Y-8367031D01*
X8884468Y-8367031D02*
X8874944Y-8338460D01*
X8874944Y-8338460D02*
X8865420Y-8290841D01*
X8865420Y-8290841D02*
X8865420Y-8252746D01*
X8865420Y-8252746D02*
X8874944Y-8205127D01*
X8874944Y-8205127D02*
X8884468Y-8176555D01*
X8884468Y-8176555D02*
X8893991Y-8157508D01*
X8893991Y-8157508D02*
X8913039Y-8128936D01*
X8913039Y-8128936D02*
X8922563Y-8119412D01*
X8979706Y-8147984D02*
X9103515Y-8147984D01*
X9103515Y-8147984D02*
X9036849Y-8224174D01*
X9036849Y-8224174D02*
X9065420Y-8224174D01*
X9065420Y-8224174D02*
X9084468Y-8233698D01*
X9084468Y-8233698D02*
X9093991Y-8243222D01*
X9093991Y-8243222D02*
X9103515Y-8262269D01*
X9103515Y-8262269D02*
X9103515Y-8309888D01*
X9103515Y-8309888D02*
X9093991Y-8328936D01*
X9093991Y-8328936D02*
X9084468Y-8338460D01*
X9084468Y-8338460D02*
X9065420Y-8347984D01*
X9065420Y-8347984D02*
X9008277Y-8347984D01*
X9008277Y-8347984D02*
X8989230Y-8338460D01*
X8989230Y-8338460D02*
X8979706Y-8328936D01*
X9341611Y-8347984D02*
X9341611Y-8147984D01*
X9427325Y-8347984D02*
X9427325Y-8243222D01*
X9427325Y-8243222D02*
X9417801Y-8224174D01*
X9417801Y-8224174D02*
X9398753Y-8214650D01*
X9398753Y-8214650D02*
X9370182Y-8214650D01*
X9370182Y-8214650D02*
X9351134Y-8224174D01*
X9351134Y-8224174D02*
X9341611Y-8233698D01*
X9551134Y-8347984D02*
X9532087Y-8338460D01*
X9532087Y-8338460D02*
X9522563Y-8328936D01*
X9522563Y-8328936D02*
X9513039Y-8309888D01*
X9513039Y-8309888D02*
X9513039Y-8252746D01*
X9513039Y-8252746D02*
X9522563Y-8233698D01*
X9522563Y-8233698D02*
X9532087Y-8224174D01*
X9532087Y-8224174D02*
X9551134Y-8214650D01*
X9551134Y-8214650D02*
X9579706Y-8214650D01*
X9579706Y-8214650D02*
X9598753Y-8224174D01*
X9598753Y-8224174D02*
X9608277Y-8233698D01*
X9608277Y-8233698D02*
X9617801Y-8252746D01*
X9617801Y-8252746D02*
X9617801Y-8309888D01*
X9617801Y-8309888D02*
X9608277Y-8328936D01*
X9608277Y-8328936D02*
X9598753Y-8338460D01*
X9598753Y-8338460D02*
X9579706Y-8347984D01*
X9579706Y-8347984D02*
X9551134Y-8347984D01*
X9732087Y-8347984D02*
X9713039Y-8338460D01*
X9713039Y-8338460D02*
X9703515Y-8319412D01*
X9703515Y-8319412D02*
X9703515Y-8147984D01*
X9884468Y-8338460D02*
X9865420Y-8347984D01*
X9865420Y-8347984D02*
X9827325Y-8347984D01*
X9827325Y-8347984D02*
X9808277Y-8338460D01*
X9808277Y-8338460D02*
X9798753Y-8319412D01*
X9798753Y-8319412D02*
X9798753Y-8243222D01*
X9798753Y-8243222D02*
X9808277Y-8224174D01*
X9808277Y-8224174D02*
X9827325Y-8214650D01*
X9827325Y-8214650D02*
X9865420Y-8214650D01*
X9865420Y-8214650D02*
X9884468Y-8224174D01*
X9884468Y-8224174D02*
X9893992Y-8243222D01*
X9893992Y-8243222D02*
X9893992Y-8262269D01*
X9893992Y-8262269D02*
X9798753Y-8281317D01*
X9970182Y-8338460D02*
X9989230Y-8347984D01*
X9989230Y-8347984D02*
X10027325Y-8347984D01*
X10027325Y-8347984D02*
X10046373Y-8338460D01*
X10046373Y-8338460D02*
X10055896Y-8319412D01*
X10055896Y-8319412D02*
X10055896Y-8309888D01*
X10055896Y-8309888D02*
X10046373Y-8290841D01*
X10046373Y-8290841D02*
X10027325Y-8281317D01*
X10027325Y-8281317D02*
X9998753Y-8281317D01*
X9998753Y-8281317D02*
X9979706Y-8271793D01*
X9979706Y-8271793D02*
X9970182Y-8252746D01*
X9970182Y-8252746D02*
X9970182Y-8243222D01*
X9970182Y-8243222D02*
X9979706Y-8224174D01*
X9979706Y-8224174D02*
X9998753Y-8214650D01*
X9998753Y-8214650D02*
X10027325Y-8214650D01*
X10027325Y-8214650D02*
X10046373Y-8224174D01*
X10122563Y-8424174D02*
X10132087Y-8414650D01*
X10132087Y-8414650D02*
X10151134Y-8386079D01*
X10151134Y-8386079D02*
X10160658Y-8367031D01*
X10160658Y-8367031D02*
X10170182Y-8338460D01*
X10170182Y-8338460D02*
X10179706Y-8290841D01*
X10179706Y-8290841D02*
X10179706Y-8252746D01*
X10179706Y-8252746D02*
X10170182Y-8205127D01*
X10170182Y-8205127D02*
X10160658Y-8176555D01*
X10160658Y-8176555D02*
X10151134Y-8157508D01*
X10151134Y-8157508D02*
X10132087Y-8128936D01*
X10132087Y-8128936D02*
X10122563Y-8119412D01*
D12*
X5317500Y-8490500D02*
X5317500Y-8550500D01*
X5287500Y-8520500D02*
X5347500Y-8520500D01*
D11*
X5646372Y-8411984D02*
X5665420Y-8411984D01*
X5665420Y-8411984D02*
X5684467Y-8421508D01*
X5684467Y-8421508D02*
X5693991Y-8431031D01*
X5693991Y-8431031D02*
X5703515Y-8450079D01*
X5703515Y-8450079D02*
X5713039Y-8488174D01*
X5713039Y-8488174D02*
X5713039Y-8535793D01*
X5713039Y-8535793D02*
X5703515Y-8573889D01*
X5703515Y-8573889D02*
X5693991Y-8592936D01*
X5693991Y-8592936D02*
X5684467Y-8602460D01*
X5684467Y-8602460D02*
X5665420Y-8611984D01*
X5665420Y-8611984D02*
X5646372Y-8611984D01*
X5646372Y-8611984D02*
X5627324Y-8602460D01*
X5627324Y-8602460D02*
X5617801Y-8592936D01*
X5617801Y-8592936D02*
X5608277Y-8573889D01*
X5608277Y-8573889D02*
X5598753Y-8535793D01*
X5598753Y-8535793D02*
X5598753Y-8488174D01*
X5598753Y-8488174D02*
X5608277Y-8450079D01*
X5608277Y-8450079D02*
X5617801Y-8431031D01*
X5617801Y-8431031D02*
X5627324Y-8421508D01*
X5627324Y-8421508D02*
X5646372Y-8411984D01*
X5798753Y-8592936D02*
X5808277Y-8602460D01*
X5808277Y-8602460D02*
X5798753Y-8611984D01*
X5798753Y-8611984D02*
X5789229Y-8602460D01*
X5789229Y-8602460D02*
X5798753Y-8592936D01*
X5798753Y-8592936D02*
X5798753Y-8611984D01*
X5979705Y-8411984D02*
X5941610Y-8411984D01*
X5941610Y-8411984D02*
X5922562Y-8421508D01*
X5922562Y-8421508D02*
X5913039Y-8431031D01*
X5913039Y-8431031D02*
X5893991Y-8459603D01*
X5893991Y-8459603D02*
X5884467Y-8497698D01*
X5884467Y-8497698D02*
X5884467Y-8573889D01*
X5884467Y-8573889D02*
X5893991Y-8592936D01*
X5893991Y-8592936D02*
X5903515Y-8602460D01*
X5903515Y-8602460D02*
X5922562Y-8611984D01*
X5922562Y-8611984D02*
X5960658Y-8611984D01*
X5960658Y-8611984D02*
X5979705Y-8602460D01*
X5979705Y-8602460D02*
X5989229Y-8592936D01*
X5989229Y-8592936D02*
X5998753Y-8573889D01*
X5998753Y-8573889D02*
X5998753Y-8526270D01*
X5998753Y-8526270D02*
X5989229Y-8507222D01*
X5989229Y-8507222D02*
X5979705Y-8497698D01*
X5979705Y-8497698D02*
X5960658Y-8488174D01*
X5960658Y-8488174D02*
X5922562Y-8488174D01*
X5922562Y-8488174D02*
X5903515Y-8497698D01*
X5903515Y-8497698D02*
X5893991Y-8507222D01*
X5893991Y-8507222D02*
X5884467Y-8526270D01*
X6122562Y-8411984D02*
X6141610Y-8411984D01*
X6141610Y-8411984D02*
X6160658Y-8421508D01*
X6160658Y-8421508D02*
X6170182Y-8431031D01*
X6170182Y-8431031D02*
X6179705Y-8450079D01*
X6179705Y-8450079D02*
X6189229Y-8488174D01*
X6189229Y-8488174D02*
X6189229Y-8535793D01*
X6189229Y-8535793D02*
X6179705Y-8573889D01*
X6179705Y-8573889D02*
X6170182Y-8592936D01*
X6170182Y-8592936D02*
X6160658Y-8602460D01*
X6160658Y-8602460D02*
X6141610Y-8611984D01*
X6141610Y-8611984D02*
X6122562Y-8611984D01*
X6122562Y-8611984D02*
X6103515Y-8602460D01*
X6103515Y-8602460D02*
X6093991Y-8592936D01*
X6093991Y-8592936D02*
X6084467Y-8573889D01*
X6084467Y-8573889D02*
X6074943Y-8535793D01*
X6074943Y-8535793D02*
X6074943Y-8488174D01*
X6074943Y-8488174D02*
X6084467Y-8450079D01*
X6084467Y-8450079D02*
X6093991Y-8431031D01*
X6093991Y-8431031D02*
X6103515Y-8421508D01*
X6103515Y-8421508D02*
X6122562Y-8411984D01*
X6313039Y-8411984D02*
X6332086Y-8411984D01*
X6332086Y-8411984D02*
X6351134Y-8421508D01*
X6351134Y-8421508D02*
X6360658Y-8431031D01*
X6360658Y-8431031D02*
X6370182Y-8450079D01*
X6370182Y-8450079D02*
X6379705Y-8488174D01*
X6379705Y-8488174D02*
X6379705Y-8535793D01*
X6379705Y-8535793D02*
X6370182Y-8573889D01*
X6370182Y-8573889D02*
X6360658Y-8592936D01*
X6360658Y-8592936D02*
X6351134Y-8602460D01*
X6351134Y-8602460D02*
X6332086Y-8611984D01*
X6332086Y-8611984D02*
X6313039Y-8611984D01*
X6313039Y-8611984D02*
X6293991Y-8602460D01*
X6293991Y-8602460D02*
X6284467Y-8592936D01*
X6284467Y-8592936D02*
X6274943Y-8573889D01*
X6274943Y-8573889D02*
X6265420Y-8535793D01*
X6265420Y-8535793D02*
X6265420Y-8488174D01*
X6265420Y-8488174D02*
X6274943Y-8450079D01*
X6274943Y-8450079D02*
X6284467Y-8431031D01*
X6284467Y-8431031D02*
X6293991Y-8421508D01*
X6293991Y-8421508D02*
X6313039Y-8411984D01*
X6465420Y-8611984D02*
X6465420Y-8478650D01*
X6465420Y-8497698D02*
X6474943Y-8488174D01*
X6474943Y-8488174D02*
X6493991Y-8478650D01*
X6493991Y-8478650D02*
X6522563Y-8478650D01*
X6522563Y-8478650D02*
X6541610Y-8488174D01*
X6541610Y-8488174D02*
X6551134Y-8507222D01*
X6551134Y-8507222D02*
X6551134Y-8611984D01*
X6551134Y-8507222D02*
X6560658Y-8488174D01*
X6560658Y-8488174D02*
X6579705Y-8478650D01*
X6579705Y-8478650D02*
X6608277Y-8478650D01*
X6608277Y-8478650D02*
X6627324Y-8488174D01*
X6627324Y-8488174D02*
X6636848Y-8507222D01*
X6636848Y-8507222D02*
X6636848Y-8611984D01*
X6732086Y-8611984D02*
X6732086Y-8478650D01*
X6732086Y-8497698D02*
X6741610Y-8488174D01*
X6741610Y-8488174D02*
X6760658Y-8478650D01*
X6760658Y-8478650D02*
X6789229Y-8478650D01*
X6789229Y-8478650D02*
X6808277Y-8488174D01*
X6808277Y-8488174D02*
X6817801Y-8507222D01*
X6817801Y-8507222D02*
X6817801Y-8611984D01*
X6817801Y-8507222D02*
X6827324Y-8488174D01*
X6827324Y-8488174D02*
X6846372Y-8478650D01*
X6846372Y-8478650D02*
X6874943Y-8478650D01*
X6874943Y-8478650D02*
X6893991Y-8488174D01*
X6893991Y-8488174D02*
X6903515Y-8507222D01*
X6903515Y-8507222D02*
X6903515Y-8611984D01*
X7293991Y-8402460D02*
X7122563Y-8659603D01*
X7551134Y-8411984D02*
X7570182Y-8411984D01*
X7570182Y-8411984D02*
X7589229Y-8421508D01*
X7589229Y-8421508D02*
X7598753Y-8431031D01*
X7598753Y-8431031D02*
X7608277Y-8450079D01*
X7608277Y-8450079D02*
X7617801Y-8488174D01*
X7617801Y-8488174D02*
X7617801Y-8535793D01*
X7617801Y-8535793D02*
X7608277Y-8573889D01*
X7608277Y-8573889D02*
X7598753Y-8592936D01*
X7598753Y-8592936D02*
X7589229Y-8602460D01*
X7589229Y-8602460D02*
X7570182Y-8611984D01*
X7570182Y-8611984D02*
X7551134Y-8611984D01*
X7551134Y-8611984D02*
X7532086Y-8602460D01*
X7532086Y-8602460D02*
X7522563Y-8592936D01*
X7522563Y-8592936D02*
X7513039Y-8573889D01*
X7513039Y-8573889D02*
X7503515Y-8535793D01*
X7503515Y-8535793D02*
X7503515Y-8488174D01*
X7503515Y-8488174D02*
X7513039Y-8450079D01*
X7513039Y-8450079D02*
X7522563Y-8431031D01*
X7522563Y-8431031D02*
X7532086Y-8421508D01*
X7532086Y-8421508D02*
X7551134Y-8411984D01*
X7703515Y-8592936D02*
X7713039Y-8602460D01*
X7713039Y-8602460D02*
X7703515Y-8611984D01*
X7703515Y-8611984D02*
X7693991Y-8602460D01*
X7693991Y-8602460D02*
X7703515Y-8592936D01*
X7703515Y-8592936D02*
X7703515Y-8611984D01*
X7836848Y-8411984D02*
X7855896Y-8411984D01*
X7855896Y-8411984D02*
X7874944Y-8421508D01*
X7874944Y-8421508D02*
X7884467Y-8431031D01*
X7884467Y-8431031D02*
X7893991Y-8450079D01*
X7893991Y-8450079D02*
X7903515Y-8488174D01*
X7903515Y-8488174D02*
X7903515Y-8535793D01*
X7903515Y-8535793D02*
X7893991Y-8573889D01*
X7893991Y-8573889D02*
X7884467Y-8592936D01*
X7884467Y-8592936D02*
X7874944Y-8602460D01*
X7874944Y-8602460D02*
X7855896Y-8611984D01*
X7855896Y-8611984D02*
X7836848Y-8611984D01*
X7836848Y-8611984D02*
X7817801Y-8602460D01*
X7817801Y-8602460D02*
X7808277Y-8592936D01*
X7808277Y-8592936D02*
X7798753Y-8573889D01*
X7798753Y-8573889D02*
X7789229Y-8535793D01*
X7789229Y-8535793D02*
X7789229Y-8488174D01*
X7789229Y-8488174D02*
X7798753Y-8450079D01*
X7798753Y-8450079D02*
X7808277Y-8431031D01*
X7808277Y-8431031D02*
X7817801Y-8421508D01*
X7817801Y-8421508D02*
X7836848Y-8411984D01*
X7979706Y-8431031D02*
X7989229Y-8421508D01*
X7989229Y-8421508D02*
X8008277Y-8411984D01*
X8008277Y-8411984D02*
X8055896Y-8411984D01*
X8055896Y-8411984D02*
X8074944Y-8421508D01*
X8074944Y-8421508D02*
X8084467Y-8431031D01*
X8084467Y-8431031D02*
X8093991Y-8450079D01*
X8093991Y-8450079D02*
X8093991Y-8469127D01*
X8093991Y-8469127D02*
X8084467Y-8497698D01*
X8084467Y-8497698D02*
X7970182Y-8611984D01*
X7970182Y-8611984D02*
X8093991Y-8611984D01*
X8160658Y-8411984D02*
X8284467Y-8411984D01*
X8284467Y-8411984D02*
X8217801Y-8488174D01*
X8217801Y-8488174D02*
X8246372Y-8488174D01*
X8246372Y-8488174D02*
X8265420Y-8497698D01*
X8265420Y-8497698D02*
X8274944Y-8507222D01*
X8274944Y-8507222D02*
X8284467Y-8526270D01*
X8284467Y-8526270D02*
X8284467Y-8573889D01*
X8284467Y-8573889D02*
X8274944Y-8592936D01*
X8274944Y-8592936D02*
X8265420Y-8602460D01*
X8265420Y-8602460D02*
X8246372Y-8611984D01*
X8246372Y-8611984D02*
X8189229Y-8611984D01*
X8189229Y-8611984D02*
X8170182Y-8602460D01*
X8170182Y-8602460D02*
X8160658Y-8592936D01*
X8455896Y-8411984D02*
X8417801Y-8411984D01*
X8417801Y-8411984D02*
X8398753Y-8421508D01*
X8398753Y-8421508D02*
X8389229Y-8431031D01*
X8389229Y-8431031D02*
X8370182Y-8459603D01*
X8370182Y-8459603D02*
X8360658Y-8497698D01*
X8360658Y-8497698D02*
X8360658Y-8573889D01*
X8360658Y-8573889D02*
X8370182Y-8592936D01*
X8370182Y-8592936D02*
X8379706Y-8602460D01*
X8379706Y-8602460D02*
X8398753Y-8611984D01*
X8398753Y-8611984D02*
X8436849Y-8611984D01*
X8436849Y-8611984D02*
X8455896Y-8602460D01*
X8455896Y-8602460D02*
X8465420Y-8592936D01*
X8465420Y-8592936D02*
X8474944Y-8573889D01*
X8474944Y-8573889D02*
X8474944Y-8526270D01*
X8474944Y-8526270D02*
X8465420Y-8507222D01*
X8465420Y-8507222D02*
X8455896Y-8497698D01*
X8455896Y-8497698D02*
X8436849Y-8488174D01*
X8436849Y-8488174D02*
X8398753Y-8488174D01*
X8398753Y-8488174D02*
X8379706Y-8497698D01*
X8379706Y-8497698D02*
X8370182Y-8507222D01*
X8370182Y-8507222D02*
X8360658Y-8526270D01*
X8551134Y-8411984D02*
X8551134Y-8450079D01*
X8627325Y-8411984D02*
X8627325Y-8450079D01*
X8922563Y-8688174D02*
X8913039Y-8678650D01*
X8913039Y-8678650D02*
X8893991Y-8650079D01*
X8893991Y-8650079D02*
X8884468Y-8631031D01*
X8884468Y-8631031D02*
X8874944Y-8602460D01*
X8874944Y-8602460D02*
X8865420Y-8554841D01*
X8865420Y-8554841D02*
X8865420Y-8516746D01*
X8865420Y-8516746D02*
X8874944Y-8469127D01*
X8874944Y-8469127D02*
X8884468Y-8440555D01*
X8884468Y-8440555D02*
X8893991Y-8421508D01*
X8893991Y-8421508D02*
X8913039Y-8392936D01*
X8913039Y-8392936D02*
X8922563Y-8383412D01*
X8989230Y-8431031D02*
X8998753Y-8421508D01*
X8998753Y-8421508D02*
X9017801Y-8411984D01*
X9017801Y-8411984D02*
X9065420Y-8411984D01*
X9065420Y-8411984D02*
X9084468Y-8421508D01*
X9084468Y-8421508D02*
X9093991Y-8431031D01*
X9093991Y-8431031D02*
X9103515Y-8450079D01*
X9103515Y-8450079D02*
X9103515Y-8469127D01*
X9103515Y-8469127D02*
X9093991Y-8497698D01*
X9093991Y-8497698D02*
X8979706Y-8611984D01*
X8979706Y-8611984D02*
X9103515Y-8611984D01*
X9341611Y-8611984D02*
X9341611Y-8411984D01*
X9427325Y-8611984D02*
X9427325Y-8507222D01*
X9427325Y-8507222D02*
X9417801Y-8488174D01*
X9417801Y-8488174D02*
X9398753Y-8478650D01*
X9398753Y-8478650D02*
X9370182Y-8478650D01*
X9370182Y-8478650D02*
X9351134Y-8488174D01*
X9351134Y-8488174D02*
X9341611Y-8497698D01*
X9551134Y-8611984D02*
X9532087Y-8602460D01*
X9532087Y-8602460D02*
X9522563Y-8592936D01*
X9522563Y-8592936D02*
X9513039Y-8573889D01*
X9513039Y-8573889D02*
X9513039Y-8516746D01*
X9513039Y-8516746D02*
X9522563Y-8497698D01*
X9522563Y-8497698D02*
X9532087Y-8488174D01*
X9532087Y-8488174D02*
X9551134Y-8478650D01*
X9551134Y-8478650D02*
X9579706Y-8478650D01*
X9579706Y-8478650D02*
X9598753Y-8488174D01*
X9598753Y-8488174D02*
X9608277Y-8497698D01*
X9608277Y-8497698D02*
X9617801Y-8516746D01*
X9617801Y-8516746D02*
X9617801Y-8573889D01*
X9617801Y-8573889D02*
X9608277Y-8592936D01*
X9608277Y-8592936D02*
X9598753Y-8602460D01*
X9598753Y-8602460D02*
X9579706Y-8611984D01*
X9579706Y-8611984D02*
X9551134Y-8611984D01*
X9732087Y-8611984D02*
X9713039Y-8602460D01*
X9713039Y-8602460D02*
X9703515Y-8583412D01*
X9703515Y-8583412D02*
X9703515Y-8411984D01*
X9884468Y-8602460D02*
X9865420Y-8611984D01*
X9865420Y-8611984D02*
X9827325Y-8611984D01*
X9827325Y-8611984D02*
X9808277Y-8602460D01*
X9808277Y-8602460D02*
X9798753Y-8583412D01*
X9798753Y-8583412D02*
X9798753Y-8507222D01*
X9798753Y-8507222D02*
X9808277Y-8488174D01*
X9808277Y-8488174D02*
X9827325Y-8478650D01*
X9827325Y-8478650D02*
X9865420Y-8478650D01*
X9865420Y-8478650D02*
X9884468Y-8488174D01*
X9884468Y-8488174D02*
X9893992Y-8507222D01*
X9893992Y-8507222D02*
X9893992Y-8526270D01*
X9893992Y-8526270D02*
X9798753Y-8545317D01*
X9970182Y-8602460D02*
X9989230Y-8611984D01*
X9989230Y-8611984D02*
X10027325Y-8611984D01*
X10027325Y-8611984D02*
X10046373Y-8602460D01*
X10046373Y-8602460D02*
X10055896Y-8583412D01*
X10055896Y-8583412D02*
X10055896Y-8573889D01*
X10055896Y-8573889D02*
X10046373Y-8554841D01*
X10046373Y-8554841D02*
X10027325Y-8545317D01*
X10027325Y-8545317D02*
X9998753Y-8545317D01*
X9998753Y-8545317D02*
X9979706Y-8535793D01*
X9979706Y-8535793D02*
X9970182Y-8516746D01*
X9970182Y-8516746D02*
X9970182Y-8507222D01*
X9970182Y-8507222D02*
X9979706Y-8488174D01*
X9979706Y-8488174D02*
X9998753Y-8478650D01*
X9998753Y-8478650D02*
X10027325Y-8478650D01*
X10027325Y-8478650D02*
X10046373Y-8488174D01*
X10122563Y-8688174D02*
X10132087Y-8678650D01*
X10132087Y-8678650D02*
X10151134Y-8650079D01*
X10151134Y-8650079D02*
X10160658Y-8631031D01*
X10160658Y-8631031D02*
X10170182Y-8602460D01*
X10170182Y-8602460D02*
X10179706Y-8554841D01*
X10179706Y-8554841D02*
X10179706Y-8516746D01*
X10179706Y-8516746D02*
X10170182Y-8469127D01*
X10170182Y-8469127D02*
X10160658Y-8440555D01*
X10160658Y-8440555D02*
X10151134Y-8421508D01*
X10151134Y-8421508D02*
X10132087Y-8392936D01*
X10132087Y-8392936D02*
X10122563Y-8383412D01*
D12*
X5337249Y-8809249D02*
X5337249Y-8759751D01*
X5287751Y-8759751D01*
X5287751Y-8809249D01*
X5337249Y-8809249D01*
D11*
X5646372Y-8675984D02*
X5665420Y-8675984D01*
X5665420Y-8675984D02*
X5684467Y-8685508D01*
X5684467Y-8685508D02*
X5693991Y-8695031D01*
X5693991Y-8695031D02*
X5703515Y-8714079D01*
X5703515Y-8714079D02*
X5713039Y-8752174D01*
X5713039Y-8752174D02*
X5713039Y-8799793D01*
X5713039Y-8799793D02*
X5703515Y-8837889D01*
X5703515Y-8837889D02*
X5693991Y-8856936D01*
X5693991Y-8856936D02*
X5684467Y-8866460D01*
X5684467Y-8866460D02*
X5665420Y-8875984D01*
X5665420Y-8875984D02*
X5646372Y-8875984D01*
X5646372Y-8875984D02*
X5627324Y-8866460D01*
X5627324Y-8866460D02*
X5617801Y-8856936D01*
X5617801Y-8856936D02*
X5608277Y-8837889D01*
X5608277Y-8837889D02*
X5598753Y-8799793D01*
X5598753Y-8799793D02*
X5598753Y-8752174D01*
X5598753Y-8752174D02*
X5608277Y-8714079D01*
X5608277Y-8714079D02*
X5617801Y-8695031D01*
X5617801Y-8695031D02*
X5627324Y-8685508D01*
X5627324Y-8685508D02*
X5646372Y-8675984D01*
X5798753Y-8856936D02*
X5808277Y-8866460D01*
X5808277Y-8866460D02*
X5798753Y-8875984D01*
X5798753Y-8875984D02*
X5789229Y-8866460D01*
X5789229Y-8866460D02*
X5798753Y-8856936D01*
X5798753Y-8856936D02*
X5798753Y-8875984D01*
X5874943Y-8675984D02*
X6008277Y-8675984D01*
X6008277Y-8675984D02*
X5922562Y-8875984D01*
X6122562Y-8675984D02*
X6141610Y-8675984D01*
X6141610Y-8675984D02*
X6160658Y-8685508D01*
X6160658Y-8685508D02*
X6170182Y-8695031D01*
X6170182Y-8695031D02*
X6179705Y-8714079D01*
X6179705Y-8714079D02*
X6189229Y-8752174D01*
X6189229Y-8752174D02*
X6189229Y-8799793D01*
X6189229Y-8799793D02*
X6179705Y-8837889D01*
X6179705Y-8837889D02*
X6170182Y-8856936D01*
X6170182Y-8856936D02*
X6160658Y-8866460D01*
X6160658Y-8866460D02*
X6141610Y-8875984D01*
X6141610Y-8875984D02*
X6122562Y-8875984D01*
X6122562Y-8875984D02*
X6103515Y-8866460D01*
X6103515Y-8866460D02*
X6093991Y-8856936D01*
X6093991Y-8856936D02*
X6084467Y-8837889D01*
X6084467Y-8837889D02*
X6074943Y-8799793D01*
X6074943Y-8799793D02*
X6074943Y-8752174D01*
X6074943Y-8752174D02*
X6084467Y-8714079D01*
X6084467Y-8714079D02*
X6093991Y-8695031D01*
X6093991Y-8695031D02*
X6103515Y-8685508D01*
X6103515Y-8685508D02*
X6122562Y-8675984D01*
X6313039Y-8675984D02*
X6332086Y-8675984D01*
X6332086Y-8675984D02*
X6351134Y-8685508D01*
X6351134Y-8685508D02*
X6360658Y-8695031D01*
X6360658Y-8695031D02*
X6370182Y-8714079D01*
X6370182Y-8714079D02*
X6379705Y-8752174D01*
X6379705Y-8752174D02*
X6379705Y-8799793D01*
X6379705Y-8799793D02*
X6370182Y-8837889D01*
X6370182Y-8837889D02*
X6360658Y-8856936D01*
X6360658Y-8856936D02*
X6351134Y-8866460D01*
X6351134Y-8866460D02*
X6332086Y-8875984D01*
X6332086Y-8875984D02*
X6313039Y-8875984D01*
X6313039Y-8875984D02*
X6293991Y-8866460D01*
X6293991Y-8866460D02*
X6284467Y-8856936D01*
X6284467Y-8856936D02*
X6274943Y-8837889D01*
X6274943Y-8837889D02*
X6265420Y-8799793D01*
X6265420Y-8799793D02*
X6265420Y-8752174D01*
X6265420Y-8752174D02*
X6274943Y-8714079D01*
X6274943Y-8714079D02*
X6284467Y-8695031D01*
X6284467Y-8695031D02*
X6293991Y-8685508D01*
X6293991Y-8685508D02*
X6313039Y-8675984D01*
X6465420Y-8875984D02*
X6465420Y-8742650D01*
X6465420Y-8761698D02*
X6474943Y-8752174D01*
X6474943Y-8752174D02*
X6493991Y-8742650D01*
X6493991Y-8742650D02*
X6522563Y-8742650D01*
X6522563Y-8742650D02*
X6541610Y-8752174D01*
X6541610Y-8752174D02*
X6551134Y-8771222D01*
X6551134Y-8771222D02*
X6551134Y-8875984D01*
X6551134Y-8771222D02*
X6560658Y-8752174D01*
X6560658Y-8752174D02*
X6579705Y-8742650D01*
X6579705Y-8742650D02*
X6608277Y-8742650D01*
X6608277Y-8742650D02*
X6627324Y-8752174D01*
X6627324Y-8752174D02*
X6636848Y-8771222D01*
X6636848Y-8771222D02*
X6636848Y-8875984D01*
X6732086Y-8875984D02*
X6732086Y-8742650D01*
X6732086Y-8761698D02*
X6741610Y-8752174D01*
X6741610Y-8752174D02*
X6760658Y-8742650D01*
X6760658Y-8742650D02*
X6789229Y-8742650D01*
X6789229Y-8742650D02*
X6808277Y-8752174D01*
X6808277Y-8752174D02*
X6817801Y-8771222D01*
X6817801Y-8771222D02*
X6817801Y-8875984D01*
X6817801Y-8771222D02*
X6827324Y-8752174D01*
X6827324Y-8752174D02*
X6846372Y-8742650D01*
X6846372Y-8742650D02*
X6874943Y-8742650D01*
X6874943Y-8742650D02*
X6893991Y-8752174D01*
X6893991Y-8752174D02*
X6903515Y-8771222D01*
X6903515Y-8771222D02*
X6903515Y-8875984D01*
X7293991Y-8666460D02*
X7122563Y-8923603D01*
X7551134Y-8675984D02*
X7570182Y-8675984D01*
X7570182Y-8675984D02*
X7589229Y-8685508D01*
X7589229Y-8685508D02*
X7598753Y-8695031D01*
X7598753Y-8695031D02*
X7608277Y-8714079D01*
X7608277Y-8714079D02*
X7617801Y-8752174D01*
X7617801Y-8752174D02*
X7617801Y-8799793D01*
X7617801Y-8799793D02*
X7608277Y-8837889D01*
X7608277Y-8837889D02*
X7598753Y-8856936D01*
X7598753Y-8856936D02*
X7589229Y-8866460D01*
X7589229Y-8866460D02*
X7570182Y-8875984D01*
X7570182Y-8875984D02*
X7551134Y-8875984D01*
X7551134Y-8875984D02*
X7532086Y-8866460D01*
X7532086Y-8866460D02*
X7522563Y-8856936D01*
X7522563Y-8856936D02*
X7513039Y-8837889D01*
X7513039Y-8837889D02*
X7503515Y-8799793D01*
X7503515Y-8799793D02*
X7503515Y-8752174D01*
X7503515Y-8752174D02*
X7513039Y-8714079D01*
X7513039Y-8714079D02*
X7522563Y-8695031D01*
X7522563Y-8695031D02*
X7532086Y-8685508D01*
X7532086Y-8685508D02*
X7551134Y-8675984D01*
X7703515Y-8856936D02*
X7713039Y-8866460D01*
X7713039Y-8866460D02*
X7703515Y-8875984D01*
X7703515Y-8875984D02*
X7693991Y-8866460D01*
X7693991Y-8866460D02*
X7703515Y-8856936D01*
X7703515Y-8856936D02*
X7703515Y-8875984D01*
X7836848Y-8675984D02*
X7855896Y-8675984D01*
X7855896Y-8675984D02*
X7874944Y-8685508D01*
X7874944Y-8685508D02*
X7884467Y-8695031D01*
X7884467Y-8695031D02*
X7893991Y-8714079D01*
X7893991Y-8714079D02*
X7903515Y-8752174D01*
X7903515Y-8752174D02*
X7903515Y-8799793D01*
X7903515Y-8799793D02*
X7893991Y-8837889D01*
X7893991Y-8837889D02*
X7884467Y-8856936D01*
X7884467Y-8856936D02*
X7874944Y-8866460D01*
X7874944Y-8866460D02*
X7855896Y-8875984D01*
X7855896Y-8875984D02*
X7836848Y-8875984D01*
X7836848Y-8875984D02*
X7817801Y-8866460D01*
X7817801Y-8866460D02*
X7808277Y-8856936D01*
X7808277Y-8856936D02*
X7798753Y-8837889D01*
X7798753Y-8837889D02*
X7789229Y-8799793D01*
X7789229Y-8799793D02*
X7789229Y-8752174D01*
X7789229Y-8752174D02*
X7798753Y-8714079D01*
X7798753Y-8714079D02*
X7808277Y-8695031D01*
X7808277Y-8695031D02*
X7817801Y-8685508D01*
X7817801Y-8685508D02*
X7836848Y-8675984D01*
X7979706Y-8695031D02*
X7989229Y-8685508D01*
X7989229Y-8685508D02*
X8008277Y-8675984D01*
X8008277Y-8675984D02*
X8055896Y-8675984D01*
X8055896Y-8675984D02*
X8074944Y-8685508D01*
X8074944Y-8685508D02*
X8084467Y-8695031D01*
X8084467Y-8695031D02*
X8093991Y-8714079D01*
X8093991Y-8714079D02*
X8093991Y-8733127D01*
X8093991Y-8733127D02*
X8084467Y-8761698D01*
X8084467Y-8761698D02*
X7970182Y-8875984D01*
X7970182Y-8875984D02*
X8093991Y-8875984D01*
X8160658Y-8675984D02*
X8293991Y-8675984D01*
X8293991Y-8675984D02*
X8208277Y-8875984D01*
X8455896Y-8675984D02*
X8417801Y-8675984D01*
X8417801Y-8675984D02*
X8398753Y-8685508D01*
X8398753Y-8685508D02*
X8389229Y-8695031D01*
X8389229Y-8695031D02*
X8370182Y-8723603D01*
X8370182Y-8723603D02*
X8360658Y-8761698D01*
X8360658Y-8761698D02*
X8360658Y-8837889D01*
X8360658Y-8837889D02*
X8370182Y-8856936D01*
X8370182Y-8856936D02*
X8379706Y-8866460D01*
X8379706Y-8866460D02*
X8398753Y-8875984D01*
X8398753Y-8875984D02*
X8436849Y-8875984D01*
X8436849Y-8875984D02*
X8455896Y-8866460D01*
X8455896Y-8866460D02*
X8465420Y-8856936D01*
X8465420Y-8856936D02*
X8474944Y-8837889D01*
X8474944Y-8837889D02*
X8474944Y-8790270D01*
X8474944Y-8790270D02*
X8465420Y-8771222D01*
X8465420Y-8771222D02*
X8455896Y-8761698D01*
X8455896Y-8761698D02*
X8436849Y-8752174D01*
X8436849Y-8752174D02*
X8398753Y-8752174D01*
X8398753Y-8752174D02*
X8379706Y-8761698D01*
X8379706Y-8761698D02*
X8370182Y-8771222D01*
X8370182Y-8771222D02*
X8360658Y-8790270D01*
X8551134Y-8675984D02*
X8551134Y-8714079D01*
X8627325Y-8675984D02*
X8627325Y-8714079D01*
X8922563Y-8952174D02*
X8913039Y-8942650D01*
X8913039Y-8942650D02*
X8893991Y-8914079D01*
X8893991Y-8914079D02*
X8884468Y-8895031D01*
X8884468Y-8895031D02*
X8874944Y-8866460D01*
X8874944Y-8866460D02*
X8865420Y-8818841D01*
X8865420Y-8818841D02*
X8865420Y-8780746D01*
X8865420Y-8780746D02*
X8874944Y-8733127D01*
X8874944Y-8733127D02*
X8884468Y-8704555D01*
X8884468Y-8704555D02*
X8893991Y-8685508D01*
X8893991Y-8685508D02*
X8913039Y-8656936D01*
X8913039Y-8656936D02*
X8922563Y-8647412D01*
X8989230Y-8695031D02*
X8998753Y-8685508D01*
X8998753Y-8685508D02*
X9017801Y-8675984D01*
X9017801Y-8675984D02*
X9065420Y-8675984D01*
X9065420Y-8675984D02*
X9084468Y-8685508D01*
X9084468Y-8685508D02*
X9093991Y-8695031D01*
X9093991Y-8695031D02*
X9103515Y-8714079D01*
X9103515Y-8714079D02*
X9103515Y-8733127D01*
X9103515Y-8733127D02*
X9093991Y-8761698D01*
X9093991Y-8761698D02*
X8979706Y-8875984D01*
X8979706Y-8875984D02*
X9103515Y-8875984D01*
X9341611Y-8875984D02*
X9341611Y-8675984D01*
X9427325Y-8875984D02*
X9427325Y-8771222D01*
X9427325Y-8771222D02*
X9417801Y-8752174D01*
X9417801Y-8752174D02*
X9398753Y-8742650D01*
X9398753Y-8742650D02*
X9370182Y-8742650D01*
X9370182Y-8742650D02*
X9351134Y-8752174D01*
X9351134Y-8752174D02*
X9341611Y-8761698D01*
X9551134Y-8875984D02*
X9532087Y-8866460D01*
X9532087Y-8866460D02*
X9522563Y-8856936D01*
X9522563Y-8856936D02*
X9513039Y-8837889D01*
X9513039Y-8837889D02*
X9513039Y-8780746D01*
X9513039Y-8780746D02*
X9522563Y-8761698D01*
X9522563Y-8761698D02*
X9532087Y-8752174D01*
X9532087Y-8752174D02*
X9551134Y-8742650D01*
X9551134Y-8742650D02*
X9579706Y-8742650D01*
X9579706Y-8742650D02*
X9598753Y-8752174D01*
X9598753Y-8752174D02*
X9608277Y-8761698D01*
X9608277Y-8761698D02*
X9617801Y-8780746D01*
X9617801Y-8780746D02*
X9617801Y-8837889D01*
X9617801Y-8837889D02*
X9608277Y-8856936D01*
X9608277Y-8856936D02*
X9598753Y-8866460D01*
X9598753Y-8866460D02*
X9579706Y-8875984D01*
X9579706Y-8875984D02*
X9551134Y-8875984D01*
X9732087Y-8875984D02*
X9713039Y-8866460D01*
X9713039Y-8866460D02*
X9703515Y-8847412D01*
X9703515Y-8847412D02*
X9703515Y-8675984D01*
X9884468Y-8866460D02*
X9865420Y-8875984D01*
X9865420Y-8875984D02*
X9827325Y-8875984D01*
X9827325Y-8875984D02*
X9808277Y-8866460D01*
X9808277Y-8866460D02*
X9798753Y-8847412D01*
X9798753Y-8847412D02*
X9798753Y-8771222D01*
X9798753Y-8771222D02*
X9808277Y-8752174D01*
X9808277Y-8752174D02*
X9827325Y-8742650D01*
X9827325Y-8742650D02*
X9865420Y-8742650D01*
X9865420Y-8742650D02*
X9884468Y-8752174D01*
X9884468Y-8752174D02*
X9893992Y-8771222D01*
X9893992Y-8771222D02*
X9893992Y-8790270D01*
X9893992Y-8790270D02*
X9798753Y-8809317D01*
X9970182Y-8866460D02*
X9989230Y-8875984D01*
X9989230Y-8875984D02*
X10027325Y-8875984D01*
X10027325Y-8875984D02*
X10046373Y-8866460D01*
X10046373Y-8866460D02*
X10055896Y-8847412D01*
X10055896Y-8847412D02*
X10055896Y-8837889D01*
X10055896Y-8837889D02*
X10046373Y-8818841D01*
X10046373Y-8818841D02*
X10027325Y-8809317D01*
X10027325Y-8809317D02*
X9998753Y-8809317D01*
X9998753Y-8809317D02*
X9979706Y-8799793D01*
X9979706Y-8799793D02*
X9970182Y-8780746D01*
X9970182Y-8780746D02*
X9970182Y-8771222D01*
X9970182Y-8771222D02*
X9979706Y-8752174D01*
X9979706Y-8752174D02*
X9998753Y-8742650D01*
X9998753Y-8742650D02*
X10027325Y-8742650D01*
X10027325Y-8742650D02*
X10046373Y-8752174D01*
X10122563Y-8952174D02*
X10132087Y-8942650D01*
X10132087Y-8942650D02*
X10151134Y-8914079D01*
X10151134Y-8914079D02*
X10160658Y-8895031D01*
X10160658Y-8895031D02*
X10170182Y-8866460D01*
X10170182Y-8866460D02*
X10179706Y-8818841D01*
X10179706Y-8818841D02*
X10179706Y-8780746D01*
X10179706Y-8780746D02*
X10170182Y-8733127D01*
X10170182Y-8733127D02*
X10160658Y-8704555D01*
X10160658Y-8704555D02*
X10151134Y-8685508D01*
X10151134Y-8685508D02*
X10132087Y-8656936D01*
X10132087Y-8656936D02*
X10122563Y-8647412D01*
D12*
X5297500Y-9098500D02*
X5347500Y-9048500D01*
X5297500Y-8998500D01*
X5247500Y-9048500D01*
X5297500Y-9098500D01*
D11*
X5713039Y-9139984D02*
X5598753Y-9139984D01*
X5655896Y-9139984D02*
X5655896Y-8939984D01*
X5655896Y-8939984D02*
X5636848Y-8968555D01*
X5636848Y-8968555D02*
X5617801Y-8987603D01*
X5617801Y-8987603D02*
X5598753Y-8997127D01*
X5798753Y-9120936D02*
X5808277Y-9130460D01*
X5808277Y-9130460D02*
X5798753Y-9139984D01*
X5798753Y-9139984D02*
X5789229Y-9130460D01*
X5789229Y-9130460D02*
X5798753Y-9120936D01*
X5798753Y-9120936D02*
X5798753Y-9139984D01*
X5932086Y-8939984D02*
X5951134Y-8939984D01*
X5951134Y-8939984D02*
X5970182Y-8949508D01*
X5970182Y-8949508D02*
X5979705Y-8959031D01*
X5979705Y-8959031D02*
X5989229Y-8978079D01*
X5989229Y-8978079D02*
X5998753Y-9016174D01*
X5998753Y-9016174D02*
X5998753Y-9063793D01*
X5998753Y-9063793D02*
X5989229Y-9101889D01*
X5989229Y-9101889D02*
X5979705Y-9120936D01*
X5979705Y-9120936D02*
X5970182Y-9130460D01*
X5970182Y-9130460D02*
X5951134Y-9139984D01*
X5951134Y-9139984D02*
X5932086Y-9139984D01*
X5932086Y-9139984D02*
X5913039Y-9130460D01*
X5913039Y-9130460D02*
X5903515Y-9120936D01*
X5903515Y-9120936D02*
X5893991Y-9101889D01*
X5893991Y-9101889D02*
X5884467Y-9063793D01*
X5884467Y-9063793D02*
X5884467Y-9016174D01*
X5884467Y-9016174D02*
X5893991Y-8978079D01*
X5893991Y-8978079D02*
X5903515Y-8959031D01*
X5903515Y-8959031D02*
X5913039Y-8949508D01*
X5913039Y-8949508D02*
X5932086Y-8939984D01*
X6122562Y-8939984D02*
X6141610Y-8939984D01*
X6141610Y-8939984D02*
X6160658Y-8949508D01*
X6160658Y-8949508D02*
X6170182Y-8959031D01*
X6170182Y-8959031D02*
X6179705Y-8978079D01*
X6179705Y-8978079D02*
X6189229Y-9016174D01*
X6189229Y-9016174D02*
X6189229Y-9063793D01*
X6189229Y-9063793D02*
X6179705Y-9101889D01*
X6179705Y-9101889D02*
X6170182Y-9120936D01*
X6170182Y-9120936D02*
X6160658Y-9130460D01*
X6160658Y-9130460D02*
X6141610Y-9139984D01*
X6141610Y-9139984D02*
X6122562Y-9139984D01*
X6122562Y-9139984D02*
X6103515Y-9130460D01*
X6103515Y-9130460D02*
X6093991Y-9120936D01*
X6093991Y-9120936D02*
X6084467Y-9101889D01*
X6084467Y-9101889D02*
X6074943Y-9063793D01*
X6074943Y-9063793D02*
X6074943Y-9016174D01*
X6074943Y-9016174D02*
X6084467Y-8978079D01*
X6084467Y-8978079D02*
X6093991Y-8959031D01*
X6093991Y-8959031D02*
X6103515Y-8949508D01*
X6103515Y-8949508D02*
X6122562Y-8939984D01*
X6313039Y-8939984D02*
X6332086Y-8939984D01*
X6332086Y-8939984D02*
X6351134Y-8949508D01*
X6351134Y-8949508D02*
X6360658Y-8959031D01*
X6360658Y-8959031D02*
X6370182Y-8978079D01*
X6370182Y-8978079D02*
X6379705Y-9016174D01*
X6379705Y-9016174D02*
X6379705Y-9063793D01*
X6379705Y-9063793D02*
X6370182Y-9101889D01*
X6370182Y-9101889D02*
X6360658Y-9120936D01*
X6360658Y-9120936D02*
X6351134Y-9130460D01*
X6351134Y-9130460D02*
X6332086Y-9139984D01*
X6332086Y-9139984D02*
X6313039Y-9139984D01*
X6313039Y-9139984D02*
X6293991Y-9130460D01*
X6293991Y-9130460D02*
X6284467Y-9120936D01*
X6284467Y-9120936D02*
X6274943Y-9101889D01*
X6274943Y-9101889D02*
X6265420Y-9063793D01*
X6265420Y-9063793D02*
X6265420Y-9016174D01*
X6265420Y-9016174D02*
X6274943Y-8978079D01*
X6274943Y-8978079D02*
X6284467Y-8959031D01*
X6284467Y-8959031D02*
X6293991Y-8949508D01*
X6293991Y-8949508D02*
X6313039Y-8939984D01*
X6465420Y-9139984D02*
X6465420Y-9006650D01*
X6465420Y-9025698D02*
X6474943Y-9016174D01*
X6474943Y-9016174D02*
X6493991Y-9006650D01*
X6493991Y-9006650D02*
X6522563Y-9006650D01*
X6522563Y-9006650D02*
X6541610Y-9016174D01*
X6541610Y-9016174D02*
X6551134Y-9035222D01*
X6551134Y-9035222D02*
X6551134Y-9139984D01*
X6551134Y-9035222D02*
X6560658Y-9016174D01*
X6560658Y-9016174D02*
X6579705Y-9006650D01*
X6579705Y-9006650D02*
X6608277Y-9006650D01*
X6608277Y-9006650D02*
X6627324Y-9016174D01*
X6627324Y-9016174D02*
X6636848Y-9035222D01*
X6636848Y-9035222D02*
X6636848Y-9139984D01*
X6732086Y-9139984D02*
X6732086Y-9006650D01*
X6732086Y-9025698D02*
X6741610Y-9016174D01*
X6741610Y-9016174D02*
X6760658Y-9006650D01*
X6760658Y-9006650D02*
X6789229Y-9006650D01*
X6789229Y-9006650D02*
X6808277Y-9016174D01*
X6808277Y-9016174D02*
X6817801Y-9035222D01*
X6817801Y-9035222D02*
X6817801Y-9139984D01*
X6817801Y-9035222D02*
X6827324Y-9016174D01*
X6827324Y-9016174D02*
X6846372Y-9006650D01*
X6846372Y-9006650D02*
X6874943Y-9006650D01*
X6874943Y-9006650D02*
X6893991Y-9016174D01*
X6893991Y-9016174D02*
X6903515Y-9035222D01*
X6903515Y-9035222D02*
X6903515Y-9139984D01*
X7293991Y-8930460D02*
X7122563Y-9187603D01*
X7551134Y-8939984D02*
X7570182Y-8939984D01*
X7570182Y-8939984D02*
X7589229Y-8949508D01*
X7589229Y-8949508D02*
X7598753Y-8959031D01*
X7598753Y-8959031D02*
X7608277Y-8978079D01*
X7608277Y-8978079D02*
X7617801Y-9016174D01*
X7617801Y-9016174D02*
X7617801Y-9063793D01*
X7617801Y-9063793D02*
X7608277Y-9101889D01*
X7608277Y-9101889D02*
X7598753Y-9120936D01*
X7598753Y-9120936D02*
X7589229Y-9130460D01*
X7589229Y-9130460D02*
X7570182Y-9139984D01*
X7570182Y-9139984D02*
X7551134Y-9139984D01*
X7551134Y-9139984D02*
X7532086Y-9130460D01*
X7532086Y-9130460D02*
X7522563Y-9120936D01*
X7522563Y-9120936D02*
X7513039Y-9101889D01*
X7513039Y-9101889D02*
X7503515Y-9063793D01*
X7503515Y-9063793D02*
X7503515Y-9016174D01*
X7503515Y-9016174D02*
X7513039Y-8978079D01*
X7513039Y-8978079D02*
X7522563Y-8959031D01*
X7522563Y-8959031D02*
X7532086Y-8949508D01*
X7532086Y-8949508D02*
X7551134Y-8939984D01*
X7703515Y-9120936D02*
X7713039Y-9130460D01*
X7713039Y-9130460D02*
X7703515Y-9139984D01*
X7703515Y-9139984D02*
X7693991Y-9130460D01*
X7693991Y-9130460D02*
X7703515Y-9120936D01*
X7703515Y-9120936D02*
X7703515Y-9139984D01*
X7836848Y-8939984D02*
X7855896Y-8939984D01*
X7855896Y-8939984D02*
X7874944Y-8949508D01*
X7874944Y-8949508D02*
X7884467Y-8959031D01*
X7884467Y-8959031D02*
X7893991Y-8978079D01*
X7893991Y-8978079D02*
X7903515Y-9016174D01*
X7903515Y-9016174D02*
X7903515Y-9063793D01*
X7903515Y-9063793D02*
X7893991Y-9101889D01*
X7893991Y-9101889D02*
X7884467Y-9120936D01*
X7884467Y-9120936D02*
X7874944Y-9130460D01*
X7874944Y-9130460D02*
X7855896Y-9139984D01*
X7855896Y-9139984D02*
X7836848Y-9139984D01*
X7836848Y-9139984D02*
X7817801Y-9130460D01*
X7817801Y-9130460D02*
X7808277Y-9120936D01*
X7808277Y-9120936D02*
X7798753Y-9101889D01*
X7798753Y-9101889D02*
X7789229Y-9063793D01*
X7789229Y-9063793D02*
X7789229Y-9016174D01*
X7789229Y-9016174D02*
X7798753Y-8978079D01*
X7798753Y-8978079D02*
X7808277Y-8959031D01*
X7808277Y-8959031D02*
X7817801Y-8949508D01*
X7817801Y-8949508D02*
X7836848Y-8939984D01*
X7970182Y-8939984D02*
X8093991Y-8939984D01*
X8093991Y-8939984D02*
X8027325Y-9016174D01*
X8027325Y-9016174D02*
X8055896Y-9016174D01*
X8055896Y-9016174D02*
X8074944Y-9025698D01*
X8074944Y-9025698D02*
X8084467Y-9035222D01*
X8084467Y-9035222D02*
X8093991Y-9054270D01*
X8093991Y-9054270D02*
X8093991Y-9101889D01*
X8093991Y-9101889D02*
X8084467Y-9120936D01*
X8084467Y-9120936D02*
X8074944Y-9130460D01*
X8074944Y-9130460D02*
X8055896Y-9139984D01*
X8055896Y-9139984D02*
X7998753Y-9139984D01*
X7998753Y-9139984D02*
X7979706Y-9130460D01*
X7979706Y-9130460D02*
X7970182Y-9120936D01*
X8189229Y-9139984D02*
X8227325Y-9139984D01*
X8227325Y-9139984D02*
X8246372Y-9130460D01*
X8246372Y-9130460D02*
X8255896Y-9120936D01*
X8255896Y-9120936D02*
X8274944Y-9092365D01*
X8274944Y-9092365D02*
X8284467Y-9054270D01*
X8284467Y-9054270D02*
X8284467Y-8978079D01*
X8284467Y-8978079D02*
X8274944Y-8959031D01*
X8274944Y-8959031D02*
X8265420Y-8949508D01*
X8265420Y-8949508D02*
X8246372Y-8939984D01*
X8246372Y-8939984D02*
X8208277Y-8939984D01*
X8208277Y-8939984D02*
X8189229Y-8949508D01*
X8189229Y-8949508D02*
X8179706Y-8959031D01*
X8179706Y-8959031D02*
X8170182Y-8978079D01*
X8170182Y-8978079D02*
X8170182Y-9025698D01*
X8170182Y-9025698D02*
X8179706Y-9044746D01*
X8179706Y-9044746D02*
X8189229Y-9054270D01*
X8189229Y-9054270D02*
X8208277Y-9063793D01*
X8208277Y-9063793D02*
X8246372Y-9063793D01*
X8246372Y-9063793D02*
X8265420Y-9054270D01*
X8265420Y-9054270D02*
X8274944Y-9044746D01*
X8274944Y-9044746D02*
X8284467Y-9025698D01*
X8455896Y-9006650D02*
X8455896Y-9139984D01*
X8408277Y-8930460D02*
X8360658Y-9073317D01*
X8360658Y-9073317D02*
X8484468Y-9073317D01*
X8551134Y-8939984D02*
X8551134Y-8978079D01*
X8627325Y-8939984D02*
X8627325Y-8978079D01*
X8922563Y-9216174D02*
X8913039Y-9206650D01*
X8913039Y-9206650D02*
X8893991Y-9178079D01*
X8893991Y-9178079D02*
X8884468Y-9159031D01*
X8884468Y-9159031D02*
X8874944Y-9130460D01*
X8874944Y-9130460D02*
X8865420Y-9082841D01*
X8865420Y-9082841D02*
X8865420Y-9044746D01*
X8865420Y-9044746D02*
X8874944Y-8997127D01*
X8874944Y-8997127D02*
X8884468Y-8968555D01*
X8884468Y-8968555D02*
X8893991Y-8949508D01*
X8893991Y-8949508D02*
X8913039Y-8920936D01*
X8913039Y-8920936D02*
X8922563Y-8911412D01*
X9027325Y-9025698D02*
X9008277Y-9016174D01*
X9008277Y-9016174D02*
X8998753Y-9006650D01*
X8998753Y-9006650D02*
X8989230Y-8987603D01*
X8989230Y-8987603D02*
X8989230Y-8978079D01*
X8989230Y-8978079D02*
X8998753Y-8959031D01*
X8998753Y-8959031D02*
X9008277Y-8949508D01*
X9008277Y-8949508D02*
X9027325Y-8939984D01*
X9027325Y-8939984D02*
X9065420Y-8939984D01*
X9065420Y-8939984D02*
X9084468Y-8949508D01*
X9084468Y-8949508D02*
X9093991Y-8959031D01*
X9093991Y-8959031D02*
X9103515Y-8978079D01*
X9103515Y-8978079D02*
X9103515Y-8987603D01*
X9103515Y-8987603D02*
X9093991Y-9006650D01*
X9093991Y-9006650D02*
X9084468Y-9016174D01*
X9084468Y-9016174D02*
X9065420Y-9025698D01*
X9065420Y-9025698D02*
X9027325Y-9025698D01*
X9027325Y-9025698D02*
X9008277Y-9035222D01*
X9008277Y-9035222D02*
X8998753Y-9044746D01*
X8998753Y-9044746D02*
X8989230Y-9063793D01*
X8989230Y-9063793D02*
X8989230Y-9101889D01*
X8989230Y-9101889D02*
X8998753Y-9120936D01*
X8998753Y-9120936D02*
X9008277Y-9130460D01*
X9008277Y-9130460D02*
X9027325Y-9139984D01*
X9027325Y-9139984D02*
X9065420Y-9139984D01*
X9065420Y-9139984D02*
X9084468Y-9130460D01*
X9084468Y-9130460D02*
X9093991Y-9120936D01*
X9093991Y-9120936D02*
X9103515Y-9101889D01*
X9103515Y-9101889D02*
X9103515Y-9063793D01*
X9103515Y-9063793D02*
X9093991Y-9044746D01*
X9093991Y-9044746D02*
X9084468Y-9035222D01*
X9084468Y-9035222D02*
X9065420Y-9025698D01*
X9341611Y-9139984D02*
X9341611Y-8939984D01*
X9427325Y-9139984D02*
X9427325Y-9035222D01*
X9427325Y-9035222D02*
X9417801Y-9016174D01*
X9417801Y-9016174D02*
X9398753Y-9006650D01*
X9398753Y-9006650D02*
X9370182Y-9006650D01*
X9370182Y-9006650D02*
X9351134Y-9016174D01*
X9351134Y-9016174D02*
X9341611Y-9025698D01*
X9551134Y-9139984D02*
X9532087Y-9130460D01*
X9532087Y-9130460D02*
X9522563Y-9120936D01*
X9522563Y-9120936D02*
X9513039Y-9101889D01*
X9513039Y-9101889D02*
X9513039Y-9044746D01*
X9513039Y-9044746D02*
X9522563Y-9025698D01*
X9522563Y-9025698D02*
X9532087Y-9016174D01*
X9532087Y-9016174D02*
X9551134Y-9006650D01*
X9551134Y-9006650D02*
X9579706Y-9006650D01*
X9579706Y-9006650D02*
X9598753Y-9016174D01*
X9598753Y-9016174D02*
X9608277Y-9025698D01*
X9608277Y-9025698D02*
X9617801Y-9044746D01*
X9617801Y-9044746D02*
X9617801Y-9101889D01*
X9617801Y-9101889D02*
X9608277Y-9120936D01*
X9608277Y-9120936D02*
X9598753Y-9130460D01*
X9598753Y-9130460D02*
X9579706Y-9139984D01*
X9579706Y-9139984D02*
X9551134Y-9139984D01*
X9732087Y-9139984D02*
X9713039Y-9130460D01*
X9713039Y-9130460D02*
X9703515Y-9111412D01*
X9703515Y-9111412D02*
X9703515Y-8939984D01*
X9884468Y-9130460D02*
X9865420Y-9139984D01*
X9865420Y-9139984D02*
X9827325Y-9139984D01*
X9827325Y-9139984D02*
X9808277Y-9130460D01*
X9808277Y-9130460D02*
X9798753Y-9111412D01*
X9798753Y-9111412D02*
X9798753Y-9035222D01*
X9798753Y-9035222D02*
X9808277Y-9016174D01*
X9808277Y-9016174D02*
X9827325Y-9006650D01*
X9827325Y-9006650D02*
X9865420Y-9006650D01*
X9865420Y-9006650D02*
X9884468Y-9016174D01*
X9884468Y-9016174D02*
X9893992Y-9035222D01*
X9893992Y-9035222D02*
X9893992Y-9054270D01*
X9893992Y-9054270D02*
X9798753Y-9073317D01*
X9970182Y-9130460D02*
X9989230Y-9139984D01*
X9989230Y-9139984D02*
X10027325Y-9139984D01*
X10027325Y-9139984D02*
X10046373Y-9130460D01*
X10046373Y-9130460D02*
X10055896Y-9111412D01*
X10055896Y-9111412D02*
X10055896Y-9101889D01*
X10055896Y-9101889D02*
X10046373Y-9082841D01*
X10046373Y-9082841D02*
X10027325Y-9073317D01*
X10027325Y-9073317D02*
X9998753Y-9073317D01*
X9998753Y-9073317D02*
X9979706Y-9063793D01*
X9979706Y-9063793D02*
X9970182Y-9044746D01*
X9970182Y-9044746D02*
X9970182Y-9035222D01*
X9970182Y-9035222D02*
X9979706Y-9016174D01*
X9979706Y-9016174D02*
X9998753Y-9006650D01*
X9998753Y-9006650D02*
X10027325Y-9006650D01*
X10027325Y-9006650D02*
X10046373Y-9016174D01*
X10122563Y-9216174D02*
X10132087Y-9206650D01*
X10132087Y-9206650D02*
X10151134Y-9178079D01*
X10151134Y-9178079D02*
X10160658Y-9159031D01*
X10160658Y-9159031D02*
X10170182Y-9130460D01*
X10170182Y-9130460D02*
X10179706Y-9082841D01*
X10179706Y-9082841D02*
X10179706Y-9044746D01*
X10179706Y-9044746D02*
X10170182Y-8997127D01*
X10170182Y-8997127D02*
X10160658Y-8968555D01*
X10160658Y-8968555D02*
X10151134Y-8949508D01*
X10151134Y-8949508D02*
X10132087Y-8920936D01*
X10132087Y-8920936D02*
X10122563Y-8911412D01*
D13*
X5232500Y-9255000D02*
X5347500Y-9370000D01*
X5347500Y-9255000D02*
X5232500Y-9370000D01*
X5347500Y-9312500D02*
G75*
G02*
X5232500Y-9312500I-57500J0D01*
G01*
X5232500Y-9312500D02*
G75*
G02*
X5347500Y-9312500I57500J0D01*
G01*
D11*
X5713039Y-9403984D02*
X5598753Y-9403984D01*
X5655896Y-9403984D02*
X5655896Y-9203984D01*
X5655896Y-9203984D02*
X5636848Y-9232555D01*
X5636848Y-9232555D02*
X5617801Y-9251603D01*
X5617801Y-9251603D02*
X5598753Y-9261127D01*
X5798753Y-9384936D02*
X5808277Y-9394460D01*
X5808277Y-9394460D02*
X5798753Y-9403984D01*
X5798753Y-9403984D02*
X5789229Y-9394460D01*
X5789229Y-9394460D02*
X5798753Y-9384936D01*
X5798753Y-9384936D02*
X5798753Y-9403984D01*
X5998753Y-9403984D02*
X5884467Y-9403984D01*
X5941610Y-9403984D02*
X5941610Y-9203984D01*
X5941610Y-9203984D02*
X5922562Y-9232555D01*
X5922562Y-9232555D02*
X5903515Y-9251603D01*
X5903515Y-9251603D02*
X5884467Y-9261127D01*
X6179705Y-9203984D02*
X6084467Y-9203984D01*
X6084467Y-9203984D02*
X6074943Y-9299222D01*
X6074943Y-9299222D02*
X6084467Y-9289698D01*
X6084467Y-9289698D02*
X6103515Y-9280174D01*
X6103515Y-9280174D02*
X6151134Y-9280174D01*
X6151134Y-9280174D02*
X6170182Y-9289698D01*
X6170182Y-9289698D02*
X6179705Y-9299222D01*
X6179705Y-9299222D02*
X6189229Y-9318270D01*
X6189229Y-9318270D02*
X6189229Y-9365889D01*
X6189229Y-9365889D02*
X6179705Y-9384936D01*
X6179705Y-9384936D02*
X6170182Y-9394460D01*
X6170182Y-9394460D02*
X6151134Y-9403984D01*
X6151134Y-9403984D02*
X6103515Y-9403984D01*
X6103515Y-9403984D02*
X6084467Y-9394460D01*
X6084467Y-9394460D02*
X6074943Y-9384936D01*
X6313039Y-9203984D02*
X6332086Y-9203984D01*
X6332086Y-9203984D02*
X6351134Y-9213508D01*
X6351134Y-9213508D02*
X6360658Y-9223031D01*
X6360658Y-9223031D02*
X6370182Y-9242079D01*
X6370182Y-9242079D02*
X6379705Y-9280174D01*
X6379705Y-9280174D02*
X6379705Y-9327793D01*
X6379705Y-9327793D02*
X6370182Y-9365889D01*
X6370182Y-9365889D02*
X6360658Y-9384936D01*
X6360658Y-9384936D02*
X6351134Y-9394460D01*
X6351134Y-9394460D02*
X6332086Y-9403984D01*
X6332086Y-9403984D02*
X6313039Y-9403984D01*
X6313039Y-9403984D02*
X6293991Y-9394460D01*
X6293991Y-9394460D02*
X6284467Y-9384936D01*
X6284467Y-9384936D02*
X6274943Y-9365889D01*
X6274943Y-9365889D02*
X6265420Y-9327793D01*
X6265420Y-9327793D02*
X6265420Y-9280174D01*
X6265420Y-9280174D02*
X6274943Y-9242079D01*
X6274943Y-9242079D02*
X6284467Y-9223031D01*
X6284467Y-9223031D02*
X6293991Y-9213508D01*
X6293991Y-9213508D02*
X6313039Y-9203984D01*
X6465420Y-9403984D02*
X6465420Y-9270650D01*
X6465420Y-9289698D02*
X6474943Y-9280174D01*
X6474943Y-9280174D02*
X6493991Y-9270650D01*
X6493991Y-9270650D02*
X6522563Y-9270650D01*
X6522563Y-9270650D02*
X6541610Y-9280174D01*
X6541610Y-9280174D02*
X6551134Y-9299222D01*
X6551134Y-9299222D02*
X6551134Y-9403984D01*
X6551134Y-9299222D02*
X6560658Y-9280174D01*
X6560658Y-9280174D02*
X6579705Y-9270650D01*
X6579705Y-9270650D02*
X6608277Y-9270650D01*
X6608277Y-9270650D02*
X6627324Y-9280174D01*
X6627324Y-9280174D02*
X6636848Y-9299222D01*
X6636848Y-9299222D02*
X6636848Y-9403984D01*
X6732086Y-9403984D02*
X6732086Y-9270650D01*
X6732086Y-9289698D02*
X6741610Y-9280174D01*
X6741610Y-9280174D02*
X6760658Y-9270650D01*
X6760658Y-9270650D02*
X6789229Y-9270650D01*
X6789229Y-9270650D02*
X6808277Y-9280174D01*
X6808277Y-9280174D02*
X6817801Y-9299222D01*
X6817801Y-9299222D02*
X6817801Y-9403984D01*
X6817801Y-9299222D02*
X6827324Y-9280174D01*
X6827324Y-9280174D02*
X6846372Y-9270650D01*
X6846372Y-9270650D02*
X6874943Y-9270650D01*
X6874943Y-9270650D02*
X6893991Y-9280174D01*
X6893991Y-9280174D02*
X6903515Y-9299222D01*
X6903515Y-9299222D02*
X6903515Y-9403984D01*
X7293991Y-9194460D02*
X7122563Y-9451603D01*
X7551134Y-9203984D02*
X7570182Y-9203984D01*
X7570182Y-9203984D02*
X7589229Y-9213508D01*
X7589229Y-9213508D02*
X7598753Y-9223031D01*
X7598753Y-9223031D02*
X7608277Y-9242079D01*
X7608277Y-9242079D02*
X7617801Y-9280174D01*
X7617801Y-9280174D02*
X7617801Y-9327793D01*
X7617801Y-9327793D02*
X7608277Y-9365889D01*
X7608277Y-9365889D02*
X7598753Y-9384936D01*
X7598753Y-9384936D02*
X7589229Y-9394460D01*
X7589229Y-9394460D02*
X7570182Y-9403984D01*
X7570182Y-9403984D02*
X7551134Y-9403984D01*
X7551134Y-9403984D02*
X7532086Y-9394460D01*
X7532086Y-9394460D02*
X7522563Y-9384936D01*
X7522563Y-9384936D02*
X7513039Y-9365889D01*
X7513039Y-9365889D02*
X7503515Y-9327793D01*
X7503515Y-9327793D02*
X7503515Y-9280174D01*
X7503515Y-9280174D02*
X7513039Y-9242079D01*
X7513039Y-9242079D02*
X7522563Y-9223031D01*
X7522563Y-9223031D02*
X7532086Y-9213508D01*
X7532086Y-9213508D02*
X7551134Y-9203984D01*
X7703515Y-9384936D02*
X7713039Y-9394460D01*
X7713039Y-9394460D02*
X7703515Y-9403984D01*
X7703515Y-9403984D02*
X7693991Y-9394460D01*
X7693991Y-9394460D02*
X7703515Y-9384936D01*
X7703515Y-9384936D02*
X7703515Y-9403984D01*
X7836848Y-9203984D02*
X7855896Y-9203984D01*
X7855896Y-9203984D02*
X7874944Y-9213508D01*
X7874944Y-9213508D02*
X7884467Y-9223031D01*
X7884467Y-9223031D02*
X7893991Y-9242079D01*
X7893991Y-9242079D02*
X7903515Y-9280174D01*
X7903515Y-9280174D02*
X7903515Y-9327793D01*
X7903515Y-9327793D02*
X7893991Y-9365889D01*
X7893991Y-9365889D02*
X7884467Y-9384936D01*
X7884467Y-9384936D02*
X7874944Y-9394460D01*
X7874944Y-9394460D02*
X7855896Y-9403984D01*
X7855896Y-9403984D02*
X7836848Y-9403984D01*
X7836848Y-9403984D02*
X7817801Y-9394460D01*
X7817801Y-9394460D02*
X7808277Y-9384936D01*
X7808277Y-9384936D02*
X7798753Y-9365889D01*
X7798753Y-9365889D02*
X7789229Y-9327793D01*
X7789229Y-9327793D02*
X7789229Y-9280174D01*
X7789229Y-9280174D02*
X7798753Y-9242079D01*
X7798753Y-9242079D02*
X7808277Y-9223031D01*
X7808277Y-9223031D02*
X7817801Y-9213508D01*
X7817801Y-9213508D02*
X7836848Y-9203984D01*
X8074944Y-9270650D02*
X8074944Y-9403984D01*
X8027325Y-9194460D02*
X7979706Y-9337317D01*
X7979706Y-9337317D02*
X8103515Y-9337317D01*
X8274944Y-9203984D02*
X8179706Y-9203984D01*
X8179706Y-9203984D02*
X8170182Y-9299222D01*
X8170182Y-9299222D02*
X8179706Y-9289698D01*
X8179706Y-9289698D02*
X8198753Y-9280174D01*
X8198753Y-9280174D02*
X8246372Y-9280174D01*
X8246372Y-9280174D02*
X8265420Y-9289698D01*
X8265420Y-9289698D02*
X8274944Y-9299222D01*
X8274944Y-9299222D02*
X8284467Y-9318270D01*
X8284467Y-9318270D02*
X8284467Y-9365889D01*
X8284467Y-9365889D02*
X8274944Y-9384936D01*
X8274944Y-9384936D02*
X8265420Y-9394460D01*
X8265420Y-9394460D02*
X8246372Y-9403984D01*
X8246372Y-9403984D02*
X8198753Y-9403984D01*
X8198753Y-9403984D02*
X8179706Y-9394460D01*
X8179706Y-9394460D02*
X8170182Y-9384936D01*
X8351134Y-9203984D02*
X8474944Y-9203984D01*
X8474944Y-9203984D02*
X8408277Y-9280174D01*
X8408277Y-9280174D02*
X8436849Y-9280174D01*
X8436849Y-9280174D02*
X8455896Y-9289698D01*
X8455896Y-9289698D02*
X8465420Y-9299222D01*
X8465420Y-9299222D02*
X8474944Y-9318270D01*
X8474944Y-9318270D02*
X8474944Y-9365889D01*
X8474944Y-9365889D02*
X8465420Y-9384936D01*
X8465420Y-9384936D02*
X8455896Y-9394460D01*
X8455896Y-9394460D02*
X8436849Y-9403984D01*
X8436849Y-9403984D02*
X8379706Y-9403984D01*
X8379706Y-9403984D02*
X8360658Y-9394460D01*
X8360658Y-9394460D02*
X8351134Y-9384936D01*
X8551134Y-9203984D02*
X8551134Y-9242079D01*
X8627325Y-9203984D02*
X8627325Y-9242079D01*
X8922563Y-9480174D02*
X8913039Y-9470650D01*
X8913039Y-9470650D02*
X8893991Y-9442079D01*
X8893991Y-9442079D02*
X8884468Y-9423031D01*
X8884468Y-9423031D02*
X8874944Y-9394460D01*
X8874944Y-9394460D02*
X8865420Y-9346841D01*
X8865420Y-9346841D02*
X8865420Y-9308746D01*
X8865420Y-9308746D02*
X8874944Y-9261127D01*
X8874944Y-9261127D02*
X8884468Y-9232555D01*
X8884468Y-9232555D02*
X8893991Y-9213508D01*
X8893991Y-9213508D02*
X8913039Y-9184936D01*
X8913039Y-9184936D02*
X8922563Y-9175412D01*
X8989230Y-9223031D02*
X8998753Y-9213508D01*
X8998753Y-9213508D02*
X9017801Y-9203984D01*
X9017801Y-9203984D02*
X9065420Y-9203984D01*
X9065420Y-9203984D02*
X9084468Y-9213508D01*
X9084468Y-9213508D02*
X9093991Y-9223031D01*
X9093991Y-9223031D02*
X9103515Y-9242079D01*
X9103515Y-9242079D02*
X9103515Y-9261127D01*
X9103515Y-9261127D02*
X9093991Y-9289698D01*
X9093991Y-9289698D02*
X8979706Y-9403984D01*
X8979706Y-9403984D02*
X9103515Y-9403984D01*
X9341611Y-9403984D02*
X9341611Y-9203984D01*
X9427325Y-9403984D02*
X9427325Y-9299222D01*
X9427325Y-9299222D02*
X9417801Y-9280174D01*
X9417801Y-9280174D02*
X9398753Y-9270650D01*
X9398753Y-9270650D02*
X9370182Y-9270650D01*
X9370182Y-9270650D02*
X9351134Y-9280174D01*
X9351134Y-9280174D02*
X9341611Y-9289698D01*
X9551134Y-9403984D02*
X9532087Y-9394460D01*
X9532087Y-9394460D02*
X9522563Y-9384936D01*
X9522563Y-9384936D02*
X9513039Y-9365889D01*
X9513039Y-9365889D02*
X9513039Y-9308746D01*
X9513039Y-9308746D02*
X9522563Y-9289698D01*
X9522563Y-9289698D02*
X9532087Y-9280174D01*
X9532087Y-9280174D02*
X9551134Y-9270650D01*
X9551134Y-9270650D02*
X9579706Y-9270650D01*
X9579706Y-9270650D02*
X9598753Y-9280174D01*
X9598753Y-9280174D02*
X9608277Y-9289698D01*
X9608277Y-9289698D02*
X9617801Y-9308746D01*
X9617801Y-9308746D02*
X9617801Y-9365889D01*
X9617801Y-9365889D02*
X9608277Y-9384936D01*
X9608277Y-9384936D02*
X9598753Y-9394460D01*
X9598753Y-9394460D02*
X9579706Y-9403984D01*
X9579706Y-9403984D02*
X9551134Y-9403984D01*
X9732087Y-9403984D02*
X9713039Y-9394460D01*
X9713039Y-9394460D02*
X9703515Y-9375412D01*
X9703515Y-9375412D02*
X9703515Y-9203984D01*
X9884468Y-9394460D02*
X9865420Y-9403984D01*
X9865420Y-9403984D02*
X9827325Y-9403984D01*
X9827325Y-9403984D02*
X9808277Y-9394460D01*
X9808277Y-9394460D02*
X9798753Y-9375412D01*
X9798753Y-9375412D02*
X9798753Y-9299222D01*
X9798753Y-9299222D02*
X9808277Y-9280174D01*
X9808277Y-9280174D02*
X9827325Y-9270650D01*
X9827325Y-9270650D02*
X9865420Y-9270650D01*
X9865420Y-9270650D02*
X9884468Y-9280174D01*
X9884468Y-9280174D02*
X9893992Y-9299222D01*
X9893992Y-9299222D02*
X9893992Y-9318270D01*
X9893992Y-9318270D02*
X9798753Y-9337317D01*
X9970182Y-9394460D02*
X9989230Y-9403984D01*
X9989230Y-9403984D02*
X10027325Y-9403984D01*
X10027325Y-9403984D02*
X10046373Y-9394460D01*
X10046373Y-9394460D02*
X10055896Y-9375412D01*
X10055896Y-9375412D02*
X10055896Y-9365889D01*
X10055896Y-9365889D02*
X10046373Y-9346841D01*
X10046373Y-9346841D02*
X10027325Y-9337317D01*
X10027325Y-9337317D02*
X9998753Y-9337317D01*
X9998753Y-9337317D02*
X9979706Y-9327793D01*
X9979706Y-9327793D02*
X9970182Y-9308746D01*
X9970182Y-9308746D02*
X9970182Y-9299222D01*
X9970182Y-9299222D02*
X9979706Y-9280174D01*
X9979706Y-9280174D02*
X9998753Y-9270650D01*
X9998753Y-9270650D02*
X10027325Y-9270650D01*
X10027325Y-9270650D02*
X10046373Y-9280174D01*
X10122563Y-9480174D02*
X10132087Y-9470650D01*
X10132087Y-9470650D02*
X10151134Y-9442079D01*
X10151134Y-9442079D02*
X10160658Y-9423031D01*
X10160658Y-9423031D02*
X10170182Y-9394460D01*
X10170182Y-9394460D02*
X10179706Y-9346841D01*
X10179706Y-9346841D02*
X10179706Y-9308746D01*
X10179706Y-9308746D02*
X10170182Y-9261127D01*
X10170182Y-9261127D02*
X10160658Y-9232555D01*
X10160658Y-9232555D02*
X10151134Y-9213508D01*
X10151134Y-9213508D02*
X10132087Y-9184936D01*
X10132087Y-9184936D02*
X10122563Y-9175412D01*
M02*
