%TF.GenerationSoftware,KiCad,Pcbnew,8.0.2*%
%TF.CreationDate,2024-12-11T18:03:45+01:00*%
%TF.ProjectId,Przetwornica_4_to_400,50727a65-7477-46f7-926e-6963615f345f,rev?*%
%TF.SameCoordinates,Original*%
%TF.FileFunction,Copper,L1,Top*%
%TF.FilePolarity,Positive*%
%FSLAX46Y46*%
G04 Gerber Fmt 4.6, Leading zero omitted, Abs format (unit mm)*
G04 Created by KiCad (PCBNEW 8.0.2) date 2024-12-11 18:03:45*
%MOMM*%
%LPD*%
G01*
G04 APERTURE LIST*
G04 Aperture macros list*
%AMRoundRect*
0 Rectangle with rounded corners*
0 $1 Rounding radius*
0 $2 $3 $4 $5 $6 $7 $8 $9 X,Y pos of 4 corners*
0 Add a 4 corners polygon primitive as box body*
4,1,4,$2,$3,$4,$5,$6,$7,$8,$9,$2,$3,0*
0 Add four circle primitives for the rounded corners*
1,1,$1+$1,$2,$3*
1,1,$1+$1,$4,$5*
1,1,$1+$1,$6,$7*
1,1,$1+$1,$8,$9*
0 Add four rect primitives between the rounded corners*
20,1,$1+$1,$2,$3,$4,$5,0*
20,1,$1+$1,$4,$5,$6,$7,0*
20,1,$1+$1,$6,$7,$8,$9,0*
20,1,$1+$1,$8,$9,$2,$3,0*%
G04 Aperture macros list end*
%TA.AperFunction,ComponentPad*%
%ADD10R,1.700000X1.700000*%
%TD*%
%TA.AperFunction,ComponentPad*%
%ADD11O,1.700000X1.700000*%
%TD*%
%TA.AperFunction,SMDPad,CuDef*%
%ADD12RoundRect,0.250000X0.450000X-0.262500X0.450000X0.262500X-0.450000X0.262500X-0.450000X-0.262500X0*%
%TD*%
%TA.AperFunction,SMDPad,CuDef*%
%ADD13RoundRect,0.250000X-0.475000X0.250000X-0.475000X-0.250000X0.475000X-0.250000X0.475000X0.250000X0*%
%TD*%
%TA.AperFunction,SMDPad,CuDef*%
%ADD14R,2.281000X3.274000*%
%TD*%
%TA.AperFunction,SMDPad,CuDef*%
%ADD15RoundRect,0.043500X0.941500X0.246500X-0.941500X0.246500X-0.941500X-0.246500X0.941500X-0.246500X0*%
%TD*%
%TA.AperFunction,ComponentPad*%
%ADD16C,1.725000*%
%TD*%
%TA.AperFunction,ComponentPad*%
%ADD17R,1.200000X1.200000*%
%TD*%
%TA.AperFunction,ComponentPad*%
%ADD18C,1.200000*%
%TD*%
%TA.AperFunction,SMDPad,CuDef*%
%ADD19R,1.120000X1.080000*%
%TD*%
%TA.AperFunction,SMDPad,CuDef*%
%ADD20R,1.854200X0.762000*%
%TD*%
%TA.AperFunction,ViaPad*%
%ADD21C,0.500000*%
%TD*%
%TA.AperFunction,ViaPad*%
%ADD22C,0.900000*%
%TD*%
%TA.AperFunction,ViaPad*%
%ADD23C,0.700000*%
%TD*%
%TA.AperFunction,Conductor*%
%ADD24C,0.500000*%
%TD*%
G04 APERTURE END LIST*
D10*
%TO.P,J2,1,Pin_1*%
%TO.N,GND1*%
X132000000Y-67290000D03*
D11*
%TO.P,J2,2,Pin_2*%
X132000000Y-64750000D03*
%TD*%
D12*
%TO.P,R2,1*%
%TO.N,GND*%
X66221250Y-66500000D03*
%TO.P,R2,2*%
%TO.N,Net-(U1-TC)*%
X66221250Y-64675000D03*
%TD*%
D13*
%TO.P,C4,1*%
%TO.N,Net-(U1-TC)*%
X63721250Y-64657500D03*
%TO.P,C4,2*%
%TO.N,GND*%
X63721250Y-66557500D03*
%TD*%
D14*
%TO.P,U1,9,EXP*%
%TO.N,GND*%
X69000000Y-61000000D03*
D15*
%TO.P,U1,8,TC*%
%TO.N,Net-(U1-TC)*%
X66530000Y-62905000D03*
%TO.P,U1,7,RREF*%
%TO.N,unconnected-(U1-RREF-Pad7)*%
X66530000Y-61635000D03*
%TO.P,U1,6,RFB*%
%TO.N,Net-(U1-RFB)*%
X66530000Y-60365000D03*
%TO.P,U1,5,SW*%
%TO.N,Net-(U1-SW)*%
X66530000Y-59095000D03*
%TO.P,U1,4,GND*%
%TO.N,GND*%
X71470000Y-59095000D03*
%TO.P,U1,3,VIN*%
%TO.N,Net-(J3-Pin_1)*%
X71470000Y-60365000D03*
%TO.P,U1,2,INTVCC*%
%TO.N,Net-(U1-INTVCC)*%
X71470000Y-61635000D03*
%TO.P,U1,1,EN/UVLO*%
%TO.N,Net-(J3-Pin_1)*%
X71470000Y-62905000D03*
%TD*%
D12*
%TO.P,R1,1*%
%TO.N,Net-(U1-RFB)*%
X62500000Y-59912500D03*
%TO.P,R1,2*%
%TO.N,Net-(U1-SW)*%
X62500000Y-58087500D03*
%TD*%
D10*
%TO.P,J3,1,Pin_1*%
%TO.N,Net-(J3-Pin_1)*%
X56500000Y-49225000D03*
D11*
%TO.P,J3,2,Pin_2*%
X56500000Y-51765000D03*
%TD*%
D16*
%TO.P,C1,1,1*%
%TO.N,GND1*%
X116500000Y-65500000D03*
%TO.P,C1,2,2*%
%TO.N,Net-(D1-K)*%
X116500000Y-50500000D03*
%TD*%
D10*
%TO.P,J1,1,Pin_1*%
%TO.N,Net-(D1-K)*%
X132000000Y-52275000D03*
D11*
%TO.P,J1,2,Pin_2*%
X132000000Y-49735000D03*
%TD*%
D17*
%TO.P,C2,1*%
%TO.N,Net-(U1-INTVCC)*%
X73222600Y-68000000D03*
D18*
%TO.P,C2,2*%
%TO.N,GND*%
X71722600Y-68000000D03*
%TD*%
D19*
%TO.P,D1,1,K*%
%TO.N,Net-(D1-K)*%
X104375000Y-53000000D03*
%TO.P,D1,2,A*%
%TO.N,Net-(D1-A)*%
X101125000Y-53000000D03*
%TD*%
D20*
%TO.P,U2,1,1*%
%TO.N,Net-(J3-Pin_1)*%
X79067200Y-52999756D03*
%TO.P,U2,2,2*%
%TO.N,unconnected-(U2-Pad2)*%
X79067200Y-55499878D03*
%TO.P,U2,3,3*%
%TO.N,Net-(U1-SW)*%
X79067200Y-58000000D03*
%TO.P,U2,4,4*%
%TO.N,unconnected-(U2-Pad4)*%
X79067200Y-60500122D03*
%TO.P,U2,5,5*%
%TO.N,unconnected-(U2-Pad5)*%
X79067200Y-63000244D03*
%TO.P,U2,6,6*%
%TO.N,GND1*%
X95932800Y-63000244D03*
%TO.P,U2,7,7*%
%TO.N,unconnected-(U2-Pad7)*%
X95932800Y-60500122D03*
%TO.P,U2,8,8*%
%TO.N,unconnected-(U2-Pad8)*%
X95932800Y-58000000D03*
%TO.P,U2,9,9*%
%TO.N,unconnected-(U2-Pad9)*%
X95932800Y-55499878D03*
%TO.P,U2,10,10*%
%TO.N,Net-(D1-A)*%
X95932800Y-52999756D03*
%TD*%
D10*
%TO.P,J5,1,Pin_1*%
%TO.N,GND*%
X56500000Y-57725000D03*
D11*
%TO.P,J5,2,Pin_2*%
X56500000Y-60265000D03*
%TD*%
D21*
%TO.N,GND*%
X77250000Y-55000000D03*
X77500000Y-56750000D03*
X77500000Y-59250000D03*
X81000000Y-59250000D03*
X81000000Y-56750000D03*
X81000000Y-54250000D03*
X81000000Y-51750000D03*
X68250000Y-58500000D03*
X69750000Y-58500000D03*
X70500000Y-66000000D03*
X69000000Y-65500000D03*
X68500000Y-64750000D03*
D22*
%TO.N,Net-(D1-K)*%
X108750000Y-53000000D03*
D21*
%TO.N,GND*%
X54250000Y-56250000D03*
X63250000Y-61750000D03*
X59500000Y-53000000D03*
X63000000Y-50000000D03*
X85750000Y-51750000D03*
X83000000Y-45250000D03*
X68000000Y-54500000D03*
X54500000Y-62500000D03*
X80000000Y-72250000D03*
X64500000Y-63000000D03*
X76750000Y-56000000D03*
X58500000Y-52000000D03*
X58500000Y-55750000D03*
X83750000Y-50000000D03*
X56750000Y-54000000D03*
X76750000Y-52250000D03*
X82750000Y-57500000D03*
X67750000Y-64750000D03*
X74500000Y-45500000D03*
X77250000Y-64250000D03*
X73250000Y-59250000D03*
X54500000Y-52750000D03*
X68250000Y-63500000D03*
X67750000Y-66000000D03*
X69500000Y-66000000D03*
X66500000Y-54500000D03*
X67000000Y-45500000D03*
X58000000Y-72000000D03*
X82750000Y-62250000D03*
X60500000Y-63500000D03*
X85750000Y-60750000D03*
X70000000Y-72250000D03*
X82500000Y-53250000D03*
X74750000Y-72250000D03*
X73000000Y-64250000D03*
X69000000Y-58500000D03*
X74000000Y-54750000D03*
X75250000Y-53500000D03*
X75750000Y-64250000D03*
X63500000Y-54500000D03*
X69500000Y-54500000D03*
X64500000Y-47250000D03*
X64750000Y-69500000D03*
X57500000Y-45500000D03*
X75500000Y-59000000D03*
X84000000Y-72000000D03*
X65000000Y-54500000D03*
X83000000Y-67250000D03*
X76250000Y-50000000D03*
X86000000Y-65250000D03*
X54750000Y-47000000D03*
X74250000Y-64250000D03*
X71000000Y-54500000D03*
X71500000Y-58000000D03*
X85750000Y-56000000D03*
X79000000Y-64250000D03*
X70500000Y-64000000D03*
X64500000Y-72250000D03*
X60750000Y-61250000D03*
X76250000Y-61750000D03*
X79000000Y-51250000D03*
X67750000Y-67500000D03*
X72500000Y-54750000D03*
X86000000Y-69750000D03*
X78250000Y-67750000D03*
X58750000Y-66000000D03*
X68750000Y-50000000D03*
X54500000Y-68750000D03*
X71750000Y-64250000D03*
X60250000Y-57250000D03*
X76000000Y-60500000D03*
X77500000Y-61750000D03*
X60500000Y-59750000D03*
X66500000Y-58000000D03*
X62000000Y-54500000D03*
X60500000Y-54000000D03*
D23*
%TO.N,Net-(U1-INTVCC)*%
X73500000Y-61500000D03*
%TO.N,Net-(J3-Pin_1)*%
X74500000Y-56000000D03*
X74500000Y-60500000D03*
D22*
%TO.N,GND1*%
X108750000Y-63000000D03*
%TD*%
D24*
%TO.N,Net-(D1-K)*%
X104375000Y-53000000D02*
X108750000Y-53000000D01*
%TO.N,Net-(D1-A)*%
X95933044Y-53000000D02*
X95932800Y-52999756D01*
X101125000Y-53000000D02*
X95933044Y-53000000D01*
%TO.N,Net-(U1-SW)*%
X75500000Y-57000000D02*
X76500000Y-58000000D01*
X63912500Y-58087500D02*
X62500000Y-58087500D01*
X76500000Y-58000000D02*
X79067200Y-58000000D01*
X64000000Y-58000000D02*
X63912500Y-58087500D01*
X65000000Y-57000000D02*
X75500000Y-57000000D01*
X66530000Y-59095000D02*
X65095000Y-59095000D01*
X64000000Y-58000000D02*
X65000000Y-57000000D01*
X65095000Y-59095000D02*
X64000000Y-58000000D01*
%TO.N,Net-(U1-RFB)*%
X62952500Y-60365000D02*
X62500000Y-59912500D01*
X66530000Y-60365000D02*
X62952500Y-60365000D01*
%TO.N,GND*%
X69000000Y-60580001D02*
X70485001Y-59095000D01*
X60557500Y-66557500D02*
X63721250Y-66557500D01*
X69000000Y-61000000D02*
X69000000Y-60580001D01*
X70485001Y-59095000D02*
X71470000Y-59095000D01*
X59500000Y-63265000D02*
X59500000Y-65500000D01*
X56500000Y-57725000D02*
X56500000Y-60265000D01*
X63778750Y-66500000D02*
X63721250Y-66557500D01*
X66221250Y-66500000D02*
X63778750Y-66500000D01*
X59500000Y-65500000D02*
X60557500Y-66557500D01*
X56500000Y-60265000D02*
X59500000Y-63265000D01*
%TO.N,Net-(U1-INTVCC)*%
X73365000Y-61635000D02*
X73500000Y-61500000D01*
X71470000Y-61635000D02*
X73365000Y-61635000D01*
%TO.N,Net-(U1-TC)*%
X66203750Y-64657500D02*
X66221250Y-64675000D01*
X63721250Y-64657500D02*
X66203750Y-64657500D01*
X66530000Y-62905000D02*
X66530000Y-64366250D01*
X66530000Y-64366250D02*
X66221250Y-64675000D01*
%TO.N,Net-(J3-Pin_1)*%
X74750000Y-56000000D02*
X74500000Y-56000000D01*
X74365000Y-60365000D02*
X74500000Y-60500000D01*
X56500000Y-49225000D02*
X56500000Y-51765000D01*
X74500000Y-60500000D02*
X75000000Y-61000000D01*
X79067200Y-52999756D02*
X77750244Y-52999756D01*
X71470000Y-60365000D02*
X74365000Y-60365000D01*
X75000000Y-63000244D02*
X71565244Y-63000244D01*
X77750244Y-52999756D02*
X74750000Y-56000000D01*
X70500000Y-56000000D02*
X74500000Y-56000000D01*
X75000000Y-61000000D02*
X75000000Y-63000244D01*
X71565244Y-63000244D02*
X71470000Y-62905000D01*
X60735000Y-56000000D02*
X70500000Y-56000000D01*
X56500000Y-51765000D02*
X60735000Y-56000000D01*
%TO.N,GND1*%
X108749756Y-63000244D02*
X108750000Y-63000000D01*
X95932800Y-63000244D02*
X108749756Y-63000244D01*
%TD*%
%TA.AperFunction,Conductor*%
%TO.N,GND*%
G36*
X56750000Y-59831988D02*
G01*
X56692993Y-59799075D01*
X56565826Y-59765000D01*
X56434174Y-59765000D01*
X56307007Y-59799075D01*
X56250000Y-59831988D01*
X56250000Y-58158012D01*
X56307007Y-58190925D01*
X56434174Y-58225000D01*
X56565826Y-58225000D01*
X56692993Y-58190925D01*
X56750000Y-58158012D01*
X56750000Y-59831988D01*
G37*
%TD.AperFunction*%
%TA.AperFunction,Conductor*%
G36*
X85016177Y-44020185D02*
G01*
X85036819Y-44036819D01*
X87463681Y-46463681D01*
X87497166Y-46525004D01*
X87500000Y-46551362D01*
X87500000Y-70448638D01*
X87480315Y-70515677D01*
X87463681Y-70536319D01*
X85036819Y-72963181D01*
X84975496Y-72996666D01*
X84949138Y-72999500D01*
X56758676Y-72999500D01*
X56691637Y-72979815D01*
X56670995Y-72963181D01*
X54036819Y-70329005D01*
X54003334Y-70267682D01*
X54000500Y-70241324D01*
X54000500Y-69999998D01*
X58994390Y-69999998D01*
X58994390Y-70000001D01*
X59014804Y-70285433D01*
X59075628Y-70565037D01*
X59175635Y-70833166D01*
X59312770Y-71084309D01*
X59312775Y-71084317D01*
X59484254Y-71313387D01*
X59484270Y-71313405D01*
X59686594Y-71515729D01*
X59686612Y-71515745D01*
X59915682Y-71687224D01*
X59915690Y-71687229D01*
X60166833Y-71824364D01*
X60166832Y-71824364D01*
X60166836Y-71824365D01*
X60166839Y-71824367D01*
X60434954Y-71924369D01*
X60434960Y-71924370D01*
X60434962Y-71924371D01*
X60714566Y-71985195D01*
X60714568Y-71985195D01*
X60714572Y-71985196D01*
X60968220Y-72003337D01*
X60999999Y-72005610D01*
X61000000Y-72005610D01*
X61000001Y-72005610D01*
X61028595Y-72003564D01*
X61285428Y-71985196D01*
X61565046Y-71924369D01*
X61833161Y-71824367D01*
X62084315Y-71687226D01*
X62313395Y-71515739D01*
X62515739Y-71313395D01*
X62687226Y-71084315D01*
X62824367Y-70833161D01*
X62924369Y-70565046D01*
X62964081Y-70382492D01*
X62985195Y-70285433D01*
X62985195Y-70285432D01*
X62985196Y-70285428D01*
X63005610Y-70000000D01*
X62985196Y-69714572D01*
X62924369Y-69434954D01*
X62824367Y-69166839D01*
X62788142Y-69100499D01*
X62687229Y-68915690D01*
X62687224Y-68915682D01*
X62515745Y-68686612D01*
X62515729Y-68686594D01*
X62313405Y-68484270D01*
X62313387Y-68484254D01*
X62084317Y-68312775D01*
X62084309Y-68312770D01*
X61833166Y-68175635D01*
X61833167Y-68175635D01*
X61672732Y-68115796D01*
X61565046Y-68075631D01*
X61565043Y-68075630D01*
X61565037Y-68075628D01*
X61285433Y-68014804D01*
X61078427Y-67999999D01*
X70617887Y-67999999D01*
X70617887Y-68000000D01*
X70636696Y-68202989D01*
X70636697Y-68202992D01*
X70692483Y-68399063D01*
X70692486Y-68399069D01*
X70783351Y-68581551D01*
X70785133Y-68583911D01*
X71369046Y-68000000D01*
X70785133Y-67416087D01*
X70783355Y-67418442D01*
X70783354Y-67418443D01*
X70692486Y-67600930D01*
X70692483Y-67600936D01*
X70636697Y-67797007D01*
X70636696Y-67797010D01*
X70617887Y-67999999D01*
X61078427Y-67999999D01*
X61000001Y-67994390D01*
X60999999Y-67994390D01*
X60714566Y-68014804D01*
X60434962Y-68075628D01*
X60166833Y-68175635D01*
X59915690Y-68312770D01*
X59915682Y-68312775D01*
X59686612Y-68484254D01*
X59686594Y-68484270D01*
X59484270Y-68686594D01*
X59484254Y-68686612D01*
X59312775Y-68915682D01*
X59312770Y-68915690D01*
X59175635Y-69166833D01*
X59075628Y-69434962D01*
X59014804Y-69714566D01*
X58994390Y-69999998D01*
X54000500Y-69999998D01*
X54000500Y-66857486D01*
X62496251Y-66857486D01*
X62506744Y-66960197D01*
X62561891Y-67126619D01*
X62561893Y-67126624D01*
X62653934Y-67275845D01*
X62777904Y-67399815D01*
X62927125Y-67491856D01*
X62927130Y-67491858D01*
X63093552Y-67547005D01*
X63093559Y-67547006D01*
X63196269Y-67557499D01*
X63471249Y-67557499D01*
X63471250Y-67557498D01*
X63471250Y-66807500D01*
X63971250Y-66807500D01*
X63971250Y-67557499D01*
X64246222Y-67557499D01*
X64246236Y-67557498D01*
X64348947Y-67547005D01*
X64515369Y-67491858D01*
X64515374Y-67491856D01*
X64664595Y-67399815D01*
X64788565Y-67275845D01*
X64880606Y-67126624D01*
X64883658Y-67120079D01*
X64886317Y-67121318D01*
X64918447Y-67074829D01*
X64982941Y-67047952D01*
X65051727Y-67060210D01*
X65101999Y-67106116D01*
X65178930Y-67230840D01*
X65178933Y-67230844D01*
X65302904Y-67354815D01*
X65452125Y-67446856D01*
X65452130Y-67446858D01*
X65618552Y-67502005D01*
X65618559Y-67502006D01*
X65721269Y-67512499D01*
X65971249Y-67512499D01*
X66471250Y-67512499D01*
X66721222Y-67512499D01*
X66721236Y-67512498D01*
X66823947Y-67502005D01*
X66990369Y-67446858D01*
X66990374Y-67446856D01*
X67139595Y-67354815D01*
X67263565Y-67230845D01*
X67355606Y-67081624D01*
X67355608Y-67081619D01*
X67360864Y-67065758D01*
X71141911Y-67065758D01*
X71781298Y-67705145D01*
X71762096Y-67700000D01*
X71683104Y-67700000D01*
X71606804Y-67720444D01*
X71538395Y-67759940D01*
X71482540Y-67815795D01*
X71443044Y-67884204D01*
X71422600Y-67960504D01*
X71422600Y-68039496D01*
X71443044Y-68115796D01*
X71482540Y-68184205D01*
X71538395Y-68240060D01*
X71606804Y-68279556D01*
X71683104Y-68300000D01*
X71762096Y-68300000D01*
X71781295Y-68294855D01*
X71141911Y-68934240D01*
X71230185Y-68988897D01*
X71420278Y-69062539D01*
X71620672Y-69100000D01*
X71824528Y-69100000D01*
X72024926Y-69062538D01*
X72211502Y-68990259D01*
X72281125Y-68984396D01*
X72330605Y-69006617D01*
X72348088Y-69019705D01*
X72380268Y-69043795D01*
X72380271Y-69043797D01*
X72515117Y-69094091D01*
X72515116Y-69094091D01*
X72522044Y-69094835D01*
X72574727Y-69100500D01*
X73870472Y-69100499D01*
X73930083Y-69094091D01*
X74064931Y-69043796D01*
X74180146Y-68957546D01*
X74266396Y-68842331D01*
X74316691Y-68707483D01*
X74323100Y-68647873D01*
X74323099Y-67352128D01*
X74316691Y-67292517D01*
X74293688Y-67230844D01*
X74266397Y-67157671D01*
X74266393Y-67157664D01*
X74180147Y-67042455D01*
X74180144Y-67042452D01*
X74064935Y-66956206D01*
X74064928Y-66956202D01*
X73930082Y-66905908D01*
X73930083Y-66905908D01*
X73870483Y-66899501D01*
X73870481Y-66899500D01*
X73870473Y-66899500D01*
X73870464Y-66899500D01*
X72574729Y-66899500D01*
X72574723Y-66899501D01*
X72515116Y-66905908D01*
X72380271Y-66956202D01*
X72380265Y-66956205D01*
X72330604Y-66993381D01*
X72265139Y-67017797D01*
X72211502Y-67009740D01*
X72024924Y-66937460D01*
X71824528Y-66900000D01*
X71620672Y-66900000D01*
X71420278Y-66937460D01*
X71230188Y-67011100D01*
X71230181Y-67011104D01*
X71141912Y-67065757D01*
X71141911Y-67065758D01*
X67360864Y-67065758D01*
X67410755Y-66915197D01*
X67410756Y-66915190D01*
X67421249Y-66812486D01*
X67421250Y-66812473D01*
X67421250Y-66750000D01*
X66471250Y-66750000D01*
X66471250Y-67512499D01*
X65971249Y-67512499D01*
X65971250Y-67512498D01*
X65971250Y-66750000D01*
X65021251Y-66750000D01*
X65000070Y-66771181D01*
X64938747Y-66804666D01*
X64912389Y-66807500D01*
X63971250Y-66807500D01*
X63471250Y-66807500D01*
X62496251Y-66807500D01*
X62496251Y-66857486D01*
X54000500Y-66857486D01*
X54000500Y-56827155D01*
X55150000Y-56827155D01*
X55150000Y-57475000D01*
X56066988Y-57475000D01*
X56034075Y-57532007D01*
X56000000Y-57659174D01*
X56000000Y-57790826D01*
X56034075Y-57917993D01*
X56066988Y-57975000D01*
X55150000Y-57975000D01*
X55150000Y-58622844D01*
X55156401Y-58682372D01*
X55156403Y-58682379D01*
X55206645Y-58817086D01*
X55206649Y-58817093D01*
X55292809Y-58932187D01*
X55292812Y-58932190D01*
X55407906Y-59018350D01*
X55407913Y-59018354D01*
X55539986Y-59067614D01*
X55595920Y-59109485D01*
X55620337Y-59174949D01*
X55605486Y-59243222D01*
X55584335Y-59271477D01*
X55461886Y-59393926D01*
X55326400Y-59587420D01*
X55326399Y-59587422D01*
X55226570Y-59801507D01*
X55226567Y-59801513D01*
X55169364Y-60014999D01*
X55169364Y-60015000D01*
X56066988Y-60015000D01*
X56034075Y-60072007D01*
X56000000Y-60199174D01*
X56000000Y-60330826D01*
X56034075Y-60457993D01*
X56066988Y-60515000D01*
X55169364Y-60515000D01*
X55226567Y-60728486D01*
X55226570Y-60728492D01*
X55326399Y-60942578D01*
X55461894Y-61136082D01*
X55628917Y-61303105D01*
X55822421Y-61438600D01*
X56036507Y-61538429D01*
X56036516Y-61538433D01*
X56250000Y-61595634D01*
X56250000Y-60698012D01*
X56307007Y-60730925D01*
X56434174Y-60765000D01*
X56565826Y-60765000D01*
X56692993Y-60730925D01*
X56750000Y-60698012D01*
X56750000Y-61595633D01*
X56963483Y-61538433D01*
X56963492Y-61538429D01*
X57177578Y-61438600D01*
X57371082Y-61303105D01*
X57538105Y-61136082D01*
X57673600Y-60942578D01*
X57773429Y-60728492D01*
X57773432Y-60728486D01*
X57830636Y-60515000D01*
X56933012Y-60515000D01*
X56965925Y-60457993D01*
X57000000Y-60330826D01*
X57000000Y-60199174D01*
X56965925Y-60072007D01*
X56933012Y-60015000D01*
X57830636Y-60015000D01*
X57830635Y-60014999D01*
X57773432Y-59801513D01*
X57773429Y-59801507D01*
X57673600Y-59587422D01*
X57673599Y-59587420D01*
X57538113Y-59393926D01*
X57538108Y-59393920D01*
X57415665Y-59271477D01*
X57382180Y-59210154D01*
X57387164Y-59140462D01*
X57429036Y-59084529D01*
X57460013Y-59067614D01*
X57592086Y-59018354D01*
X57592093Y-59018350D01*
X57707187Y-58932190D01*
X57707190Y-58932187D01*
X57793350Y-58817093D01*
X57793354Y-58817086D01*
X57843596Y-58682379D01*
X57843598Y-58682372D01*
X57849999Y-58622844D01*
X57850000Y-58622827D01*
X57850000Y-57975000D01*
X56933012Y-57975000D01*
X56965925Y-57917993D01*
X57000000Y-57790826D01*
X57000000Y-57659174D01*
X56965925Y-57532007D01*
X56933012Y-57475000D01*
X57850000Y-57475000D01*
X57850000Y-56827172D01*
X57849999Y-56827155D01*
X57843598Y-56767627D01*
X57843596Y-56767620D01*
X57793354Y-56632913D01*
X57793350Y-56632906D01*
X57707190Y-56517812D01*
X57707187Y-56517809D01*
X57592093Y-56431649D01*
X57592086Y-56431645D01*
X57457379Y-56381403D01*
X57457372Y-56381401D01*
X57397844Y-56375000D01*
X56750000Y-56375000D01*
X56750000Y-57291988D01*
X56692993Y-57259075D01*
X56565826Y-57225000D01*
X56434174Y-57225000D01*
X56307007Y-57259075D01*
X56250000Y-57291988D01*
X56250000Y-56375000D01*
X55602155Y-56375000D01*
X55542627Y-56381401D01*
X55542620Y-56381403D01*
X55407913Y-56431645D01*
X55407906Y-56431649D01*
X55292812Y-56517809D01*
X55292809Y-56517812D01*
X55206649Y-56632906D01*
X55206645Y-56632913D01*
X55156403Y-56767620D01*
X55156401Y-56767627D01*
X55150000Y-56827155D01*
X54000500Y-56827155D01*
X54000500Y-51764999D01*
X55144341Y-51764999D01*
X55144341Y-51765000D01*
X55164936Y-52000403D01*
X55164938Y-52000413D01*
X55226094Y-52228655D01*
X55226096Y-52228659D01*
X55226097Y-52228663D01*
X55295000Y-52376425D01*
X55325965Y-52442830D01*
X55325967Y-52442834D01*
X55373889Y-52511273D01*
X55461505Y-52636401D01*
X55628599Y-52803495D01*
X55725384Y-52871265D01*
X55822165Y-52939032D01*
X55822167Y-52939033D01*
X55822170Y-52939035D01*
X56036337Y-53038903D01*
X56264592Y-53100063D01*
X56452918Y-53116539D01*
X56499999Y-53120659D01*
X56500000Y-53120659D01*
X56500001Y-53120659D01*
X56535284Y-53117571D01*
X56713013Y-53102022D01*
X56781512Y-53115788D01*
X56811501Y-53137869D01*
X60152048Y-56478415D01*
X60152049Y-56478416D01*
X60256584Y-56582951D01*
X60256585Y-56582952D01*
X60379498Y-56665080D01*
X60379511Y-56665087D01*
X60516082Y-56721656D01*
X60516087Y-56721658D01*
X60516091Y-56721658D01*
X60516092Y-56721659D01*
X60661079Y-56750500D01*
X60661082Y-56750500D01*
X63888771Y-56750500D01*
X63955810Y-56770185D01*
X64001565Y-56822989D01*
X64011509Y-56892147D01*
X63982484Y-56955703D01*
X63976456Y-56962175D01*
X63798447Y-57140185D01*
X63650181Y-57288451D01*
X63588858Y-57321936D01*
X63519166Y-57316952D01*
X63474819Y-57288451D01*
X63418657Y-57232289D01*
X63418656Y-57232288D01*
X63269334Y-57140186D01*
X63102797Y-57085001D01*
X63102795Y-57085000D01*
X63000010Y-57074500D01*
X61999998Y-57074500D01*
X61999980Y-57074501D01*
X61897203Y-57085000D01*
X61897200Y-57085001D01*
X61730668Y-57140185D01*
X61730663Y-57140187D01*
X61581342Y-57232289D01*
X61457289Y-57356342D01*
X61365187Y-57505663D01*
X61365186Y-57505666D01*
X61310001Y-57672203D01*
X61310001Y-57672204D01*
X61310000Y-57672204D01*
X61299500Y-57774983D01*
X61299500Y-58400001D01*
X61299501Y-58400019D01*
X61310000Y-58502796D01*
X61310001Y-58502799D01*
X61365185Y-58669331D01*
X61365187Y-58669336D01*
X61397460Y-58721659D01*
X61449450Y-58805949D01*
X61457289Y-58818657D01*
X61550951Y-58912319D01*
X61584436Y-58973642D01*
X61579452Y-59043334D01*
X61550951Y-59087681D01*
X61457289Y-59181342D01*
X61365187Y-59330663D01*
X61365186Y-59330666D01*
X61310001Y-59497203D01*
X61310001Y-59497204D01*
X61310000Y-59497204D01*
X61299500Y-59599983D01*
X61299500Y-60225001D01*
X61299501Y-60225019D01*
X61310000Y-60327796D01*
X61310001Y-60327799D01*
X61353144Y-60457993D01*
X61365186Y-60494334D01*
X61457288Y-60643656D01*
X61581344Y-60767712D01*
X61730666Y-60859814D01*
X61897203Y-60914999D01*
X61999991Y-60925500D01*
X62402866Y-60925499D01*
X62469905Y-60945183D01*
X62471757Y-60946397D01*
X62596998Y-61030080D01*
X62597004Y-61030083D01*
X62597005Y-61030084D01*
X62650033Y-61052049D01*
X62733588Y-61086659D01*
X62849741Y-61109763D01*
X62868968Y-61113587D01*
X62878581Y-61115500D01*
X62878582Y-61115500D01*
X62878583Y-61115500D01*
X63026418Y-61115500D01*
X64932389Y-61115500D01*
X64999428Y-61135185D01*
X65045183Y-61187989D01*
X65055504Y-61254285D01*
X65044500Y-61345914D01*
X65044500Y-61924077D01*
X65054999Y-62011511D01*
X65055000Y-62011514D01*
X65109857Y-62150622D01*
X65109860Y-62150628D01*
X65143565Y-62195075D01*
X65168388Y-62260387D01*
X65153960Y-62328751D01*
X65143565Y-62344925D01*
X65109860Y-62389371D01*
X65109857Y-62389377D01*
X65055000Y-62528484D01*
X65054998Y-62528489D01*
X65044500Y-62615914D01*
X65044500Y-63194077D01*
X65054999Y-63281511D01*
X65055000Y-63281514D01*
X65109857Y-63420622D01*
X65109860Y-63420628D01*
X65200217Y-63539782D01*
X65305648Y-63619732D01*
X65347171Y-63675924D01*
X65351723Y-63745645D01*
X65317858Y-63806760D01*
X65307639Y-63815798D01*
X65302595Y-63819786D01*
X65251701Y-63870681D01*
X65190378Y-63904166D01*
X65164020Y-63907000D01*
X64808480Y-63907000D01*
X64741441Y-63887315D01*
X64720799Y-63870681D01*
X64664907Y-63814789D01*
X64664906Y-63814788D01*
X64541690Y-63738788D01*
X64515586Y-63722687D01*
X64515581Y-63722685D01*
X64513212Y-63721900D01*
X64349047Y-63667501D01*
X64349045Y-63667500D01*
X64246260Y-63657000D01*
X63196248Y-63657000D01*
X63196230Y-63657001D01*
X63093453Y-63667500D01*
X63093450Y-63667501D01*
X62926918Y-63722685D01*
X62926913Y-63722687D01*
X62777592Y-63814789D01*
X62653539Y-63938842D01*
X62561437Y-64088163D01*
X62561436Y-64088166D01*
X62506251Y-64254703D01*
X62506251Y-64254704D01*
X62506250Y-64254704D01*
X62495750Y-64357483D01*
X62495750Y-64957501D01*
X62495751Y-64957519D01*
X62506250Y-65060296D01*
X62506251Y-65060299D01*
X62561435Y-65226831D01*
X62561436Y-65226834D01*
X62653538Y-65376156D01*
X62777594Y-65500212D01*
X62780878Y-65502237D01*
X62780903Y-65502253D01*
X62782695Y-65504246D01*
X62783261Y-65504693D01*
X62783184Y-65504789D01*
X62827629Y-65554199D01*
X62838853Y-65623161D01*
X62811011Y-65687244D01*
X62780915Y-65713326D01*
X62777910Y-65715179D01*
X62777905Y-65715183D01*
X62653934Y-65839154D01*
X62561893Y-65988375D01*
X62561891Y-65988380D01*
X62506744Y-66154802D01*
X62506743Y-66154809D01*
X62496250Y-66257513D01*
X62496250Y-66307500D01*
X64946249Y-66307500D01*
X64967430Y-66286319D01*
X65028753Y-66252834D01*
X65055111Y-66250000D01*
X67421249Y-66250000D01*
X67421249Y-66187528D01*
X67421248Y-66187513D01*
X67410755Y-66084802D01*
X67355608Y-65918380D01*
X67355606Y-65918375D01*
X67263565Y-65769154D01*
X67169945Y-65675534D01*
X67136460Y-65614211D01*
X67141444Y-65544519D01*
X67169941Y-65500176D01*
X67263962Y-65406156D01*
X67356064Y-65256834D01*
X67411249Y-65090297D01*
X67421750Y-64987509D01*
X67421749Y-64362492D01*
X67421237Y-64357483D01*
X67411249Y-64259703D01*
X67411248Y-64259700D01*
X67409592Y-64254703D01*
X67356064Y-64093166D01*
X67352981Y-64088168D01*
X67298961Y-64000586D01*
X67280500Y-63935490D01*
X67280500Y-63819499D01*
X67300185Y-63752460D01*
X67352989Y-63706705D01*
X67404500Y-63695499D01*
X67514078Y-63695499D01*
X67514084Y-63695499D01*
X67601511Y-63685001D01*
X67740626Y-63630141D01*
X67859782Y-63539782D01*
X67950141Y-63420626D01*
X68005001Y-63281511D01*
X68009240Y-63246214D01*
X68036778Y-63182000D01*
X68094661Y-63142868D01*
X68132355Y-63137000D01*
X68750000Y-63137000D01*
X68750000Y-58863000D01*
X69250000Y-58863000D01*
X69250000Y-63137000D01*
X69867645Y-63137000D01*
X69934684Y-63156685D01*
X69980439Y-63209489D01*
X69990761Y-63246216D01*
X69994999Y-63281511D01*
X69995000Y-63281514D01*
X70049857Y-63420622D01*
X70049860Y-63420628D01*
X70140217Y-63539782D01*
X70259371Y-63630139D01*
X70259374Y-63630141D01*
X70398489Y-63685001D01*
X70485915Y-63695500D01*
X71257923Y-63695499D01*
X71305375Y-63704938D01*
X71346326Y-63721900D01*
X71346331Y-63721902D01*
X71346335Y-63721902D01*
X71346336Y-63721903D01*
X71491323Y-63750744D01*
X71491326Y-63750744D01*
X75073920Y-63750744D01*
X75171462Y-63731340D01*
X75218913Y-63721902D01*
X75350249Y-63667501D01*
X75355488Y-63665331D01*
X75355488Y-63665330D01*
X75355495Y-63665328D01*
X75478416Y-63583195D01*
X75582951Y-63478660D01*
X75665084Y-63355739D01*
X75721658Y-63219157D01*
X75736833Y-63142868D01*
X75750500Y-63074164D01*
X75750500Y-62571379D01*
X77639600Y-62571379D01*
X77639600Y-63429114D01*
X77639601Y-63429120D01*
X77646008Y-63488727D01*
X77696302Y-63623572D01*
X77696306Y-63623579D01*
X77782552Y-63738788D01*
X77782555Y-63738791D01*
X77897764Y-63825037D01*
X77897771Y-63825041D01*
X78032617Y-63875335D01*
X78032616Y-63875335D01*
X78039544Y-63876079D01*
X78092227Y-63881744D01*
X80042172Y-63881743D01*
X80101783Y-63875335D01*
X80236631Y-63825040D01*
X80351846Y-63738790D01*
X80438096Y-63623575D01*
X80488391Y-63488727D01*
X80494800Y-63429117D01*
X80494799Y-62571372D01*
X80488391Y-62511761D01*
X80438096Y-62376913D01*
X80438095Y-62376912D01*
X80438093Y-62376908D01*
X80351847Y-62261699D01*
X80351844Y-62261696D01*
X80236635Y-62175450D01*
X80236628Y-62175446D01*
X80101782Y-62125152D01*
X80101783Y-62125152D01*
X80042183Y-62118745D01*
X80042181Y-62118744D01*
X80042173Y-62118744D01*
X80042164Y-62118744D01*
X78092229Y-62118744D01*
X78092223Y-62118745D01*
X78032616Y-62125152D01*
X77897771Y-62175446D01*
X77897764Y-62175450D01*
X77782555Y-62261696D01*
X77782552Y-62261699D01*
X77696306Y-62376908D01*
X77696302Y-62376915D01*
X77646008Y-62511761D01*
X77644210Y-62528489D01*
X77639601Y-62571367D01*
X77639600Y-62571379D01*
X75750500Y-62571379D01*
X75750500Y-60926079D01*
X75721659Y-60781092D01*
X75721658Y-60781091D01*
X75721658Y-60781087D01*
X75700880Y-60730925D01*
X75665087Y-60644511D01*
X75665085Y-60644507D01*
X75665084Y-60644505D01*
X75624597Y-60583912D01*
X75582952Y-60521584D01*
X75334892Y-60273524D01*
X75304642Y-60224160D01*
X75281250Y-60152165D01*
X75281248Y-60152161D01*
X75234538Y-60071257D01*
X77639600Y-60071257D01*
X77639600Y-60928992D01*
X77639601Y-60928998D01*
X77646008Y-60988605D01*
X77696302Y-61123450D01*
X77696306Y-61123457D01*
X77782552Y-61238666D01*
X77782555Y-61238669D01*
X77897764Y-61324915D01*
X77897771Y-61324919D01*
X78032617Y-61375213D01*
X78032616Y-61375213D01*
X78039544Y-61375957D01*
X78092227Y-61381622D01*
X80042172Y-61381621D01*
X80101783Y-61375213D01*
X80236631Y-61324918D01*
X80351846Y-61238668D01*
X80438096Y-61123453D01*
X80488391Y-60988605D01*
X80494800Y-60928995D01*
X80494799Y-60071250D01*
X80488391Y-60011639D01*
X80483056Y-59997336D01*
X80438097Y-59876793D01*
X80438093Y-59876786D01*
X80351847Y-59761577D01*
X80351844Y-59761574D01*
X80236635Y-59675328D01*
X80236628Y-59675324D01*
X80101782Y-59625030D01*
X80101783Y-59625030D01*
X80042183Y-59618623D01*
X80042181Y-59618622D01*
X80042173Y-59618622D01*
X80042164Y-59618622D01*
X78092229Y-59618622D01*
X78092223Y-59618623D01*
X78032616Y-59625030D01*
X77897771Y-59675324D01*
X77897764Y-59675328D01*
X77782555Y-59761574D01*
X77782552Y-59761577D01*
X77696306Y-59876786D01*
X77696302Y-59876793D01*
X77646008Y-60011639D01*
X77639601Y-60071238D01*
X77639601Y-60071245D01*
X77639600Y-60071257D01*
X75234538Y-60071257D01*
X75234527Y-60071238D01*
X75191859Y-59997335D01*
X75183894Y-59988489D01*
X75072235Y-59864478D01*
X75072232Y-59864476D01*
X75072231Y-59864475D01*
X75072230Y-59864474D01*
X74927593Y-59759388D01*
X74764267Y-59686671D01*
X74764265Y-59686670D01*
X74619823Y-59655968D01*
X74598153Y-59649240D01*
X74583913Y-59643342D01*
X74583908Y-59643340D01*
X74438920Y-59614500D01*
X74438918Y-59614500D01*
X73067107Y-59614500D01*
X73000068Y-59594815D01*
X72954313Y-59542011D01*
X72943992Y-59475715D01*
X72955000Y-59384050D01*
X72955000Y-59345000D01*
X71344000Y-59345000D01*
X71276961Y-59325315D01*
X71231206Y-59272511D01*
X71220000Y-59221000D01*
X71220000Y-58845000D01*
X71720000Y-58845000D01*
X72955000Y-58845000D01*
X72955000Y-58805949D01*
X72944511Y-58718610D01*
X72944510Y-58718608D01*
X72889701Y-58579620D01*
X72889700Y-58579618D01*
X72799426Y-58460573D01*
X72680381Y-58370299D01*
X72680379Y-58370298D01*
X72541391Y-58315489D01*
X72541389Y-58315488D01*
X72454050Y-58305000D01*
X71720000Y-58305000D01*
X71720000Y-58845000D01*
X71220000Y-58845000D01*
X71220000Y-58305000D01*
X70485950Y-58305000D01*
X70398610Y-58315488D01*
X70398608Y-58315489D01*
X70259620Y-58370298D01*
X70259618Y-58370299D01*
X70140573Y-58460573D01*
X70050299Y-58579618D01*
X70050298Y-58579620D01*
X69995489Y-58718608D01*
X69995488Y-58718610D01*
X69991265Y-58753784D01*
X69963728Y-58817999D01*
X69905846Y-58857131D01*
X69868150Y-58863000D01*
X69250000Y-58863000D01*
X68750000Y-58863000D01*
X68132355Y-58863000D01*
X68065316Y-58843315D01*
X68019561Y-58790511D01*
X68009239Y-58753784D01*
X68008156Y-58744763D01*
X68005001Y-58718489D01*
X67950141Y-58579374D01*
X67950139Y-58579371D01*
X67859782Y-58460217D01*
X67740628Y-58369860D01*
X67740622Y-58369857D01*
X67601515Y-58315000D01*
X67601510Y-58314998D01*
X67514085Y-58304500D01*
X65545922Y-58304500D01*
X65486354Y-58311653D01*
X65458489Y-58314999D01*
X65458488Y-58314999D01*
X65450595Y-58315947D01*
X65450349Y-58313899D01*
X65391383Y-58311653D01*
X65343141Y-58281773D01*
X65149048Y-58087680D01*
X65115563Y-58026357D01*
X65120547Y-57956665D01*
X65149045Y-57912320D01*
X65274549Y-57786816D01*
X65335871Y-57753334D01*
X65362229Y-57750500D01*
X75137770Y-57750500D01*
X75204809Y-57770185D01*
X75225451Y-57786819D01*
X75629558Y-58190925D01*
X75917048Y-58478415D01*
X75917049Y-58478416D01*
X76021584Y-58582951D01*
X76021587Y-58582953D01*
X76021588Y-58582954D01*
X76144494Y-58665077D01*
X76144496Y-58665078D01*
X76144505Y-58665084D01*
X76157465Y-58670452D01*
X76281088Y-58721659D01*
X76397241Y-58744763D01*
X76416468Y-58748587D01*
X76426081Y-58750500D01*
X76426082Y-58750500D01*
X76426083Y-58750500D01*
X76573918Y-58750500D01*
X77757250Y-58750500D01*
X77824289Y-58770185D01*
X77831561Y-58775233D01*
X77889568Y-58818657D01*
X77897768Y-58824795D01*
X77897771Y-58824797D01*
X78032617Y-58875091D01*
X78032616Y-58875091D01*
X78039544Y-58875835D01*
X78092227Y-58881500D01*
X80042172Y-58881499D01*
X80101783Y-58875091D01*
X80236631Y-58824796D01*
X80351846Y-58738546D01*
X80438096Y-58623331D01*
X80488391Y-58488483D01*
X80494800Y-58428873D01*
X80494799Y-57571128D01*
X80488391Y-57511517D01*
X80486209Y-57505668D01*
X80438097Y-57376671D01*
X80438093Y-57376664D01*
X80351847Y-57261455D01*
X80351844Y-57261452D01*
X80236635Y-57175206D01*
X80236628Y-57175202D01*
X80101782Y-57124908D01*
X80101783Y-57124908D01*
X80042183Y-57118501D01*
X80042181Y-57118500D01*
X80042173Y-57118500D01*
X80042164Y-57118500D01*
X78092229Y-57118500D01*
X78092223Y-57118501D01*
X78032616Y-57124908D01*
X77897771Y-57175202D01*
X77897768Y-57175204D01*
X77831561Y-57224767D01*
X77766096Y-57249184D01*
X77757250Y-57249500D01*
X76862229Y-57249500D01*
X76795190Y-57229815D01*
X76774548Y-57213181D01*
X75978421Y-56417052D01*
X75978414Y-56417046D01*
X75904729Y-56367812D01*
X75904729Y-56367813D01*
X75855493Y-56334914D01*
X75758923Y-56294914D01*
X75704520Y-56251073D01*
X75682455Y-56184778D01*
X75699734Y-56117079D01*
X75718691Y-56092676D01*
X76740354Y-55071013D01*
X77639600Y-55071013D01*
X77639600Y-55928748D01*
X77639601Y-55928754D01*
X77646008Y-55988361D01*
X77696302Y-56123206D01*
X77696306Y-56123213D01*
X77782552Y-56238422D01*
X77782555Y-56238425D01*
X77897764Y-56324671D01*
X77897771Y-56324675D01*
X78032617Y-56374969D01*
X78032616Y-56374969D01*
X78039544Y-56375713D01*
X78092227Y-56381378D01*
X80042172Y-56381377D01*
X80101783Y-56374969D01*
X80236631Y-56324674D01*
X80351846Y-56238424D01*
X80438096Y-56123209D01*
X80488391Y-55988361D01*
X80494800Y-55928751D01*
X80494799Y-55071006D01*
X80488391Y-55011395D01*
X80438096Y-54876547D01*
X80438095Y-54876546D01*
X80438093Y-54876542D01*
X80351847Y-54761333D01*
X80351844Y-54761330D01*
X80236635Y-54675084D01*
X80236628Y-54675080D01*
X80101782Y-54624786D01*
X80101783Y-54624786D01*
X80042183Y-54618379D01*
X80042181Y-54618378D01*
X80042173Y-54618378D01*
X80042164Y-54618378D01*
X78092229Y-54618378D01*
X78092223Y-54618379D01*
X78032616Y-54624786D01*
X77897771Y-54675080D01*
X77897764Y-54675084D01*
X77782555Y-54761330D01*
X77782552Y-54761333D01*
X77696306Y-54876542D01*
X77696302Y-54876549D01*
X77646008Y-55011395D01*
X77639601Y-55070994D01*
X77639601Y-55071001D01*
X77639600Y-55071013D01*
X76740354Y-55071013D01*
X77906277Y-53905089D01*
X77967598Y-53871606D01*
X78024449Y-53875669D01*
X78025065Y-53873063D01*
X78032616Y-53874847D01*
X78039544Y-53875591D01*
X78092227Y-53881256D01*
X80042172Y-53881255D01*
X80101783Y-53874847D01*
X80236631Y-53824552D01*
X80351846Y-53738302D01*
X80438096Y-53623087D01*
X80488391Y-53488239D01*
X80494800Y-53428629D01*
X80494799Y-52570884D01*
X80488391Y-52511273D01*
X80462863Y-52442830D01*
X80438097Y-52376427D01*
X80438093Y-52376420D01*
X80351847Y-52261211D01*
X80351844Y-52261208D01*
X80236635Y-52174962D01*
X80236628Y-52174958D01*
X80101782Y-52124664D01*
X80101783Y-52124664D01*
X80042183Y-52118257D01*
X80042181Y-52118256D01*
X80042173Y-52118256D01*
X80042164Y-52118256D01*
X78092229Y-52118256D01*
X78092223Y-52118257D01*
X78032616Y-52124664D01*
X77897771Y-52174958D01*
X77897768Y-52174960D01*
X77831561Y-52224523D01*
X77766096Y-52248940D01*
X77757250Y-52249256D01*
X77676320Y-52249256D01*
X77647486Y-52254990D01*
X77647487Y-52254991D01*
X77531337Y-52278095D01*
X77531327Y-52278098D01*
X77451325Y-52311235D01*
X77451326Y-52311236D01*
X77394753Y-52334670D01*
X77394741Y-52334676D01*
X77374875Y-52347951D01*
X77374874Y-52347951D01*
X77271829Y-52416802D01*
X77271822Y-52416808D01*
X74575451Y-55113181D01*
X74514128Y-55146666D01*
X74487770Y-55149500D01*
X74410609Y-55149500D01*
X74379954Y-55156015D01*
X74235733Y-55186670D01*
X74118694Y-55238780D01*
X74068259Y-55249500D01*
X61097229Y-55249500D01*
X61030190Y-55229815D01*
X61009548Y-55213181D01*
X57872869Y-52076501D01*
X57839384Y-52015178D01*
X57837022Y-51978012D01*
X57855659Y-51765000D01*
X57855659Y-51764999D01*
X57835063Y-51529596D01*
X57835063Y-51529592D01*
X57773903Y-51301337D01*
X57674035Y-51087171D01*
X57538495Y-50893599D01*
X57416567Y-50771671D01*
X57383084Y-50710351D01*
X57388068Y-50640659D01*
X57429939Y-50584725D01*
X57460915Y-50567810D01*
X57592331Y-50518796D01*
X57707546Y-50432546D01*
X57793796Y-50317331D01*
X57844091Y-50182483D01*
X57850500Y-50122873D01*
X57850499Y-48327128D01*
X57844091Y-48267517D01*
X57793796Y-48132669D01*
X57793795Y-48132668D01*
X57793793Y-48132664D01*
X57707547Y-48017455D01*
X57707544Y-48017452D01*
X57592335Y-47931206D01*
X57592328Y-47931202D01*
X57457482Y-47880908D01*
X57457483Y-47880908D01*
X57397883Y-47874501D01*
X57397881Y-47874500D01*
X57397873Y-47874500D01*
X57397864Y-47874500D01*
X55602129Y-47874500D01*
X55602123Y-47874501D01*
X55542516Y-47880908D01*
X55407671Y-47931202D01*
X55407664Y-47931206D01*
X55292455Y-48017452D01*
X55292452Y-48017455D01*
X55206206Y-48132664D01*
X55206202Y-48132671D01*
X55155908Y-48267517D01*
X55150977Y-48313387D01*
X55149501Y-48327123D01*
X55149500Y-48327135D01*
X55149500Y-50122870D01*
X55149501Y-50122876D01*
X55155908Y-50182483D01*
X55206202Y-50317328D01*
X55206206Y-50317335D01*
X55292452Y-50432544D01*
X55292455Y-50432547D01*
X55407664Y-50518793D01*
X55407671Y-50518797D01*
X55539082Y-50567810D01*
X55595016Y-50609681D01*
X55619433Y-50675145D01*
X55604582Y-50743418D01*
X55583430Y-50771673D01*
X55461505Y-50893597D01*
X55325965Y-51087169D01*
X55325964Y-51087171D01*
X55226098Y-51301335D01*
X55226094Y-51301344D01*
X55164938Y-51529586D01*
X55164936Y-51529596D01*
X55144341Y-51764999D01*
X54000500Y-51764999D01*
X54000500Y-46999998D01*
X58994390Y-46999998D01*
X58994390Y-47000001D01*
X59014804Y-47285433D01*
X59075628Y-47565037D01*
X59175635Y-47833166D01*
X59312770Y-48084309D01*
X59312775Y-48084317D01*
X59484254Y-48313387D01*
X59484270Y-48313405D01*
X59686594Y-48515729D01*
X59686612Y-48515745D01*
X59915682Y-48687224D01*
X59915690Y-48687229D01*
X60166833Y-48824364D01*
X60166832Y-48824364D01*
X60166836Y-48824365D01*
X60166839Y-48824367D01*
X60434954Y-48924369D01*
X60434960Y-48924370D01*
X60434962Y-48924371D01*
X60714566Y-48985195D01*
X60714568Y-48985195D01*
X60714572Y-48985196D01*
X60968220Y-49003337D01*
X60999999Y-49005610D01*
X61000000Y-49005610D01*
X61000001Y-49005610D01*
X61028595Y-49003564D01*
X61285428Y-48985196D01*
X61565046Y-48924369D01*
X61833161Y-48824367D01*
X62084315Y-48687226D01*
X62313395Y-48515739D01*
X62515739Y-48313395D01*
X62687226Y-48084315D01*
X62824367Y-47833161D01*
X62924369Y-47565046D01*
X62985196Y-47285428D01*
X63005610Y-47000000D01*
X62985196Y-46714572D01*
X62975716Y-46670995D01*
X62924371Y-46434962D01*
X62924370Y-46434960D01*
X62924369Y-46434954D01*
X62824367Y-46166839D01*
X62744025Y-46019705D01*
X62687229Y-45915690D01*
X62687224Y-45915682D01*
X62515745Y-45686612D01*
X62515729Y-45686594D01*
X62313405Y-45484270D01*
X62313387Y-45484254D01*
X62084317Y-45312775D01*
X62084309Y-45312770D01*
X61833166Y-45175635D01*
X61833167Y-45175635D01*
X61725915Y-45135632D01*
X61565046Y-45075631D01*
X61565043Y-45075630D01*
X61565037Y-45075628D01*
X61285433Y-45014804D01*
X61000001Y-44994390D01*
X60999999Y-44994390D01*
X60714566Y-45014804D01*
X60434962Y-45075628D01*
X60166833Y-45175635D01*
X59915690Y-45312770D01*
X59915682Y-45312775D01*
X59686612Y-45484254D01*
X59686594Y-45484270D01*
X59484270Y-45686594D01*
X59484254Y-45686612D01*
X59312775Y-45915682D01*
X59312770Y-45915690D01*
X59175635Y-46166833D01*
X59075628Y-46434962D01*
X59014804Y-46714566D01*
X58994390Y-46999998D01*
X54000500Y-46999998D01*
X54000500Y-46758676D01*
X54020185Y-46691637D01*
X54036819Y-46670995D01*
X56670995Y-44036819D01*
X56732318Y-44003334D01*
X56758676Y-44000500D01*
X84949138Y-44000500D01*
X85016177Y-44020185D01*
G37*
%TD.AperFunction*%
%TD*%
M02*
