%TF.GenerationSoftware,KiCad,Pcbnew,8.0.2*%
%TF.CreationDate,2024-12-11T18:03:45+01:00*%
%TF.ProjectId,Przetwornica_4_to_400,50727a65-7477-46f7-926e-6963615f345f,rev?*%
%TF.SameCoordinates,Original*%
%TF.FileFunction,Profile,NP*%
%FSLAX46Y46*%
G04 Gerber Fmt 4.6, Leading zero omitted, Abs format (unit mm)*
G04 Created by KiCad (PCBNEW 8.0.2) date 2024-12-11 18:03:45*
%MOMM*%
%LPD*%
G01*
G04 APERTURE LIST*
%TA.AperFunction,Profile*%
%ADD10C,0.050000*%
%TD*%
G04 APERTURE END LIST*
D10*
X132000000Y-73500000D02*
X56500000Y-73500000D01*
X56500000Y-73500000D02*
X53500000Y-70500000D01*
X56500000Y-43500000D02*
X53500000Y-46500000D01*
X94000000Y-47000000D02*
G75*
G02*
X91000000Y-47000000I-1500000J0D01*
G01*
X91000000Y-47000000D02*
G75*
G02*
X94000000Y-47000000I1500000J0D01*
G01*
X126500000Y-70000000D02*
G75*
G02*
X123500000Y-70000000I-1500000J0D01*
G01*
X123500000Y-70000000D02*
G75*
G02*
X126500000Y-70000000I1500000J0D01*
G01*
X53500000Y-46500000D02*
X53500000Y-70500000D01*
X62500000Y-47000000D02*
G75*
G02*
X59500000Y-47000000I-1500000J0D01*
G01*
X59500000Y-47000000D02*
G75*
G02*
X62500000Y-47000000I1500000J0D01*
G01*
X135000000Y-46500000D02*
X135000000Y-70500000D01*
X132000000Y-43500000D02*
X135000000Y-46500000D01*
X126500000Y-47000000D02*
G75*
G02*
X123500000Y-47000000I-1500000J0D01*
G01*
X123500000Y-47000000D02*
G75*
G02*
X126500000Y-47000000I1500000J0D01*
G01*
X62500000Y-70000000D02*
G75*
G02*
X59500000Y-70000000I-1500000J0D01*
G01*
X59500000Y-70000000D02*
G75*
G02*
X62500000Y-70000000I1500000J0D01*
G01*
X132000000Y-73500000D02*
X135000000Y-70500000D01*
X132000000Y-43500000D02*
X56500000Y-43500000D01*
X94000000Y-70000000D02*
G75*
G02*
X91000000Y-70000000I-1500000J0D01*
G01*
X91000000Y-70000000D02*
G75*
G02*
X94000000Y-70000000I1500000J0D01*
G01*
M02*
