M48
; DRILL file {KiCad 8.0.2} date 2024-12-11T18:04:02+0100
; FORMAT={-:-/ absolute / metric / decimal}
; #@! TF.CreationDate,2024-12-11T18:04:02+01:00
; #@! TF.GenerationSoftware,Kicad,Pcbnew,8.0.2
; #@! TF.FileFunction,Plated,1,2,PTH
FMAT,2
METRIC
; #@! TA.AperFunction,Plated,PTH,ViaDrill
T1C0.300
; #@! TA.AperFunction,Plated,PTH,ViaDrill
T2C0.500
; #@! TA.AperFunction,Plated,PTH,ComponentDrill
T3C0.600
; #@! TA.AperFunction,Plated,PTH,ViaDrill
T4C0.700
; #@! TA.AperFunction,Plated,PTH,ComponentDrill
T5C1.000
; #@! TA.AperFunction,Plated,PTH,ComponentDrill
T6C1.150
%
G90
G05
T1
X54.25Y-56.25
X54.5Y-52.75
X54.5Y-62.5
X54.5Y-68.75
X54.75Y-47.0
X56.75Y-54.0
X57.5Y-45.5
X58.0Y-72.0
X58.5Y-52.0
X58.5Y-55.75
X58.75Y-66.0
X59.5Y-53.0
X60.25Y-57.25
X60.5Y-54.0
X60.5Y-59.75
X60.5Y-63.5
X60.75Y-61.25
X62.0Y-54.5
X63.0Y-50.0
X63.25Y-61.75
X63.5Y-54.5
X64.5Y-47.25
X64.5Y-63.0
X64.5Y-72.25
X64.75Y-69.5
X65.0Y-54.5
X66.5Y-54.5
X66.5Y-58.0
X67.0Y-45.5
X67.75Y-64.75
X67.75Y-66.0
X67.75Y-67.5
X68.0Y-54.5
X68.25Y-58.5
X68.25Y-63.5
X68.5Y-64.75
X68.75Y-50.0
X69.0Y-58.5
X69.0Y-65.5
X69.5Y-54.5
X69.5Y-66.0
X69.75Y-58.5
X70.0Y-72.25
X70.5Y-64.0
X70.5Y-66.0
X71.0Y-54.5
X71.5Y-58.0
X71.75Y-64.25
X72.5Y-54.75
X73.0Y-64.25
X73.25Y-59.25
X74.0Y-54.75
X74.25Y-64.25
X74.5Y-45.5
X74.75Y-72.25
X75.25Y-53.5
X75.5Y-59.0
X75.75Y-64.25
X76.0Y-60.5
X76.25Y-50.0
X76.25Y-61.75
X76.75Y-52.25
X76.75Y-56.0
X77.25Y-55.0
X77.25Y-64.25
X77.5Y-56.75
X77.5Y-59.25
X77.5Y-61.75
X78.25Y-67.75
X79.0Y-51.25
X79.0Y-64.25
X80.0Y-72.25
X81.0Y-51.75
X81.0Y-54.25
X81.0Y-56.75
X81.0Y-59.25
X82.5Y-53.25
X82.75Y-57.5
X82.75Y-62.25
X83.0Y-45.25
X83.0Y-67.25
X83.75Y-50.0
X84.0Y-72.0
X85.75Y-51.75
X85.75Y-56.0
X85.75Y-60.75
X86.0Y-65.25
X86.0Y-69.75
T2
X73.5Y-61.5
X74.5Y-56.0
X74.5Y-60.5
T3
X71.723Y-68.0
X73.223Y-68.0
T4
X108.75Y-53.0
X108.75Y-63.0
T5
X56.5Y-49.225
X56.5Y-51.765
X56.5Y-57.725
X56.5Y-60.265
X132.0Y-49.735
X132.0Y-52.275
X132.0Y-64.75
X132.0Y-67.29
T6
X116.5Y-50.5
X116.5Y-65.5
M30
