%TF.GenerationSoftware,KiCad,Pcbnew,8.0.2*%
%TF.CreationDate,2024-12-11T18:03:45+01:00*%
%TF.ProjectId,Przetwornica_4_to_400,50727a65-7477-46f7-926e-6963615f345f,rev?*%
%TF.SameCoordinates,Original*%
%TF.FileFunction,Copper,L2,Bot*%
%TF.FilePolarity,Positive*%
%FSLAX46Y46*%
G04 Gerber Fmt 4.6, Leading zero omitted, Abs format (unit mm)*
G04 Created by KiCad (PCBNEW 8.0.2) date 2024-12-11 18:03:45*
%MOMM*%
%LPD*%
G01*
G04 APERTURE LIST*
%TA.AperFunction,ComponentPad*%
%ADD10R,1.700000X1.700000*%
%TD*%
%TA.AperFunction,ComponentPad*%
%ADD11O,1.700000X1.700000*%
%TD*%
%TA.AperFunction,ComponentPad*%
%ADD12C,1.725000*%
%TD*%
%TA.AperFunction,ComponentPad*%
%ADD13R,1.200000X1.200000*%
%TD*%
%TA.AperFunction,ComponentPad*%
%ADD14C,1.200000*%
%TD*%
%TA.AperFunction,ViaPad*%
%ADD15C,0.500000*%
%TD*%
%TA.AperFunction,ViaPad*%
%ADD16C,0.900000*%
%TD*%
%TA.AperFunction,ViaPad*%
%ADD17C,0.700000*%
%TD*%
%TA.AperFunction,Conductor*%
%ADD18C,0.500000*%
%TD*%
G04 APERTURE END LIST*
D10*
%TO.P,J2,1,Pin_1*%
%TO.N,GND1*%
X132000000Y-67290000D03*
D11*
%TO.P,J2,2,Pin_2*%
X132000000Y-64750000D03*
%TD*%
D10*
%TO.P,J3,1,Pin_1*%
%TO.N,Net-(J3-Pin_1)*%
X56500000Y-49225000D03*
D11*
%TO.P,J3,2,Pin_2*%
X56500000Y-51765000D03*
%TD*%
D12*
%TO.P,C1,1,1*%
%TO.N,GND1*%
X116500000Y-65500000D03*
%TO.P,C1,2,2*%
%TO.N,Net-(D1-K)*%
X116500000Y-50500000D03*
%TD*%
D10*
%TO.P,J1,1,Pin_1*%
%TO.N,Net-(D1-K)*%
X132000000Y-52275000D03*
D11*
%TO.P,J1,2,Pin_2*%
X132000000Y-49735000D03*
%TD*%
D13*
%TO.P,C2,1*%
%TO.N,Net-(U1-INTVCC)*%
X73222600Y-68000000D03*
D14*
%TO.P,C2,2*%
%TO.N,GND*%
X71722600Y-68000000D03*
%TD*%
D10*
%TO.P,J5,1,Pin_1*%
%TO.N,GND*%
X56500000Y-57725000D03*
D11*
%TO.P,J5,2,Pin_2*%
X56500000Y-60265000D03*
%TD*%
D15*
%TO.N,GND*%
X77250000Y-55000000D03*
X77500000Y-56750000D03*
X77500000Y-59250000D03*
X81000000Y-59250000D03*
X81000000Y-56750000D03*
X81000000Y-54250000D03*
X81000000Y-51750000D03*
X68250000Y-58500000D03*
X69750000Y-58500000D03*
X70500000Y-66000000D03*
X69000000Y-65500000D03*
X68500000Y-64750000D03*
D16*
%TO.N,Net-(D1-K)*%
X108750000Y-53000000D03*
D15*
%TO.N,GND*%
X54250000Y-56250000D03*
X63250000Y-61750000D03*
X59500000Y-53000000D03*
X63000000Y-50000000D03*
X85750000Y-51750000D03*
X83000000Y-45250000D03*
X68000000Y-54500000D03*
X54500000Y-62500000D03*
X80000000Y-72250000D03*
X64500000Y-63000000D03*
X76750000Y-56000000D03*
X58500000Y-52000000D03*
X58500000Y-55750000D03*
X83750000Y-50000000D03*
X56750000Y-54000000D03*
X76750000Y-52250000D03*
X82750000Y-57500000D03*
X67750000Y-64750000D03*
X74500000Y-45500000D03*
X77250000Y-64250000D03*
X73250000Y-59250000D03*
X54500000Y-52750000D03*
X68250000Y-63500000D03*
X67750000Y-66000000D03*
X69500000Y-66000000D03*
X66500000Y-54500000D03*
X67000000Y-45500000D03*
X58000000Y-72000000D03*
X82750000Y-62250000D03*
X60500000Y-63500000D03*
X85750000Y-60750000D03*
X70000000Y-72250000D03*
X82500000Y-53250000D03*
X74750000Y-72250000D03*
X73000000Y-64250000D03*
X69000000Y-58500000D03*
X74000000Y-54750000D03*
X75250000Y-53500000D03*
X75750000Y-64250000D03*
X63500000Y-54500000D03*
X69500000Y-54500000D03*
X64500000Y-47250000D03*
X64750000Y-69500000D03*
X57500000Y-45500000D03*
X75500000Y-59000000D03*
X84000000Y-72000000D03*
X65000000Y-54500000D03*
X83000000Y-67250000D03*
X76250000Y-50000000D03*
X86000000Y-65250000D03*
X54750000Y-47000000D03*
X74250000Y-64250000D03*
X71000000Y-54500000D03*
X71500000Y-58000000D03*
X85750000Y-56000000D03*
X79000000Y-64250000D03*
X70500000Y-64000000D03*
X64500000Y-72250000D03*
X60750000Y-61250000D03*
X76250000Y-61750000D03*
X79000000Y-51250000D03*
X67750000Y-67500000D03*
X72500000Y-54750000D03*
X86000000Y-69750000D03*
X78250000Y-67750000D03*
X58750000Y-66000000D03*
X68750000Y-50000000D03*
X54500000Y-68750000D03*
X71750000Y-64250000D03*
X60250000Y-57250000D03*
X76000000Y-60500000D03*
X77500000Y-61750000D03*
X60500000Y-59750000D03*
X66500000Y-58000000D03*
X62000000Y-54500000D03*
X60500000Y-54000000D03*
D17*
%TO.N,Net-(U1-INTVCC)*%
X73500000Y-61500000D03*
%TO.N,Net-(J3-Pin_1)*%
X74500000Y-56000000D03*
X74500000Y-60500000D03*
D16*
%TO.N,GND1*%
X108750000Y-63000000D03*
%TD*%
D18*
%TO.N,Net-(D1-K)*%
X132000000Y-49735000D02*
X132000000Y-52275000D01*
X116500000Y-50500000D02*
X130225000Y-50500000D01*
X130225000Y-50500000D02*
X132000000Y-52275000D01*
X114000000Y-53000000D02*
X116500000Y-50500000D01*
X108750000Y-53000000D02*
X114000000Y-53000000D01*
%TO.N,Net-(U1-INTVCC)*%
X73222600Y-66722600D02*
X73222600Y-68000000D01*
X69500000Y-62500000D02*
X69500000Y-64500000D01*
X71500000Y-65000000D02*
X73222600Y-66722600D01*
X70500000Y-61500000D02*
X69500000Y-62500000D01*
X73500000Y-61500000D02*
X70500000Y-61500000D01*
X69500000Y-64500000D02*
X70000000Y-65000000D01*
X70000000Y-65000000D02*
X71500000Y-65000000D01*
%TO.N,Net-(J3-Pin_1)*%
X74500000Y-56200000D02*
X74500000Y-60500000D01*
%TO.N,GND1*%
X130210000Y-65500000D02*
X132000000Y-67290000D01*
X114000000Y-63000000D02*
X116500000Y-65500000D01*
X108750000Y-63000000D02*
X114000000Y-63000000D01*
X116500000Y-65500000D02*
X130210000Y-65500000D01*
X132000000Y-64750000D02*
X132000000Y-67290000D01*
%TD*%
%TA.AperFunction,Conductor*%
%TO.N,GND*%
G36*
X56750000Y-59831988D02*
G01*
X56692993Y-59799075D01*
X56565826Y-59765000D01*
X56434174Y-59765000D01*
X56307007Y-59799075D01*
X56250000Y-59831988D01*
X56250000Y-58158012D01*
X56307007Y-58190925D01*
X56434174Y-58225000D01*
X56565826Y-58225000D01*
X56692993Y-58190925D01*
X56750000Y-58158012D01*
X56750000Y-59831988D01*
G37*
%TD.AperFunction*%
%TA.AperFunction,Conductor*%
G36*
X85016177Y-44020185D02*
G01*
X85036819Y-44036819D01*
X87463681Y-46463681D01*
X87497166Y-46525004D01*
X87500000Y-46551362D01*
X87500000Y-70448638D01*
X87480315Y-70515677D01*
X87463681Y-70536319D01*
X85036819Y-72963181D01*
X84975496Y-72996666D01*
X84949138Y-72999500D01*
X56758676Y-72999500D01*
X56691637Y-72979815D01*
X56670995Y-72963181D01*
X54036819Y-70329005D01*
X54003334Y-70267682D01*
X54000500Y-70241324D01*
X54000500Y-69999998D01*
X58994390Y-69999998D01*
X58994390Y-70000001D01*
X59014804Y-70285433D01*
X59075628Y-70565037D01*
X59175635Y-70833166D01*
X59312770Y-71084309D01*
X59312775Y-71084317D01*
X59484254Y-71313387D01*
X59484270Y-71313405D01*
X59686594Y-71515729D01*
X59686612Y-71515745D01*
X59915682Y-71687224D01*
X59915690Y-71687229D01*
X60166833Y-71824364D01*
X60166832Y-71824364D01*
X60166836Y-71824365D01*
X60166839Y-71824367D01*
X60434954Y-71924369D01*
X60434960Y-71924370D01*
X60434962Y-71924371D01*
X60714566Y-71985195D01*
X60714568Y-71985195D01*
X60714572Y-71985196D01*
X60968220Y-72003337D01*
X60999999Y-72005610D01*
X61000000Y-72005610D01*
X61000001Y-72005610D01*
X61028595Y-72003564D01*
X61285428Y-71985196D01*
X61565046Y-71924369D01*
X61833161Y-71824367D01*
X62084315Y-71687226D01*
X62313395Y-71515739D01*
X62515739Y-71313395D01*
X62687226Y-71084315D01*
X62824367Y-70833161D01*
X62924369Y-70565046D01*
X62964081Y-70382492D01*
X62985195Y-70285433D01*
X62985195Y-70285432D01*
X62985196Y-70285428D01*
X63005610Y-70000000D01*
X62985196Y-69714572D01*
X62924369Y-69434954D01*
X62824367Y-69166839D01*
X62788142Y-69100499D01*
X62687229Y-68915690D01*
X62687224Y-68915682D01*
X62515745Y-68686612D01*
X62515729Y-68686594D01*
X62313405Y-68484270D01*
X62313387Y-68484254D01*
X62084317Y-68312775D01*
X62084309Y-68312770D01*
X61833166Y-68175635D01*
X61833167Y-68175635D01*
X61672732Y-68115796D01*
X61565046Y-68075631D01*
X61565043Y-68075630D01*
X61565037Y-68075628D01*
X61285433Y-68014804D01*
X61078427Y-67999999D01*
X70617887Y-67999999D01*
X70617887Y-68000000D01*
X70636696Y-68202989D01*
X70636697Y-68202992D01*
X70692483Y-68399063D01*
X70692486Y-68399069D01*
X70783351Y-68581551D01*
X70785133Y-68583911D01*
X71369046Y-68000000D01*
X70785133Y-67416087D01*
X70783355Y-67418442D01*
X70783354Y-67418443D01*
X70692486Y-67600930D01*
X70692483Y-67600936D01*
X70636697Y-67797007D01*
X70636696Y-67797010D01*
X70617887Y-67999999D01*
X61078427Y-67999999D01*
X61000001Y-67994390D01*
X60999999Y-67994390D01*
X60714566Y-68014804D01*
X60434962Y-68075628D01*
X60166833Y-68175635D01*
X59915690Y-68312770D01*
X59915682Y-68312775D01*
X59686612Y-68484254D01*
X59686594Y-68484270D01*
X59484270Y-68686594D01*
X59484254Y-68686612D01*
X59312775Y-68915682D01*
X59312770Y-68915690D01*
X59175635Y-69166833D01*
X59075628Y-69434962D01*
X59014804Y-69714566D01*
X58994390Y-69999998D01*
X54000500Y-69999998D01*
X54000500Y-64573920D01*
X68749499Y-64573920D01*
X68778340Y-64718907D01*
X68778343Y-64718917D01*
X68834914Y-64855492D01*
X68867812Y-64904727D01*
X68867813Y-64904730D01*
X68917046Y-64978414D01*
X68917052Y-64978421D01*
X69521584Y-65582952D01*
X69521586Y-65582954D01*
X69551058Y-65602645D01*
X69595270Y-65632186D01*
X69644505Y-65665084D01*
X69644506Y-65665084D01*
X69644507Y-65665085D01*
X69644509Y-65665086D01*
X69781082Y-65721656D01*
X69781087Y-65721658D01*
X69781091Y-65721658D01*
X69781092Y-65721659D01*
X69926079Y-65750500D01*
X69926082Y-65750500D01*
X69926083Y-65750500D01*
X70073918Y-65750500D01*
X71137770Y-65750500D01*
X71204809Y-65770185D01*
X71225451Y-65786819D01*
X72182516Y-66743883D01*
X72216001Y-66805206D01*
X72211017Y-66874897D01*
X72169145Y-66930831D01*
X72103681Y-66955248D01*
X72050042Y-66947191D01*
X72024924Y-66937460D01*
X71824528Y-66900000D01*
X71620672Y-66900000D01*
X71420278Y-66937460D01*
X71230188Y-67011100D01*
X71230181Y-67011104D01*
X71141912Y-67065757D01*
X71141911Y-67065758D01*
X71781298Y-67705145D01*
X71762096Y-67700000D01*
X71683104Y-67700000D01*
X71606804Y-67720444D01*
X71538395Y-67759940D01*
X71482540Y-67815795D01*
X71443044Y-67884204D01*
X71422600Y-67960504D01*
X71422600Y-68039496D01*
X71443044Y-68115796D01*
X71482540Y-68184205D01*
X71538395Y-68240060D01*
X71606804Y-68279556D01*
X71683104Y-68300000D01*
X71762096Y-68300000D01*
X71781295Y-68294855D01*
X71141911Y-68934240D01*
X71230185Y-68988897D01*
X71420278Y-69062539D01*
X71620672Y-69100000D01*
X71824528Y-69100000D01*
X72024926Y-69062538D01*
X72211502Y-68990259D01*
X72281125Y-68984396D01*
X72330605Y-69006617D01*
X72348088Y-69019705D01*
X72380268Y-69043795D01*
X72380271Y-69043797D01*
X72515117Y-69094091D01*
X72515116Y-69094091D01*
X72522044Y-69094835D01*
X72574727Y-69100500D01*
X73870472Y-69100499D01*
X73930083Y-69094091D01*
X74064931Y-69043796D01*
X74180146Y-68957546D01*
X74266396Y-68842331D01*
X74316691Y-68707483D01*
X74323100Y-68647873D01*
X74323099Y-67352128D01*
X74316691Y-67292517D01*
X74266396Y-67157669D01*
X74266395Y-67157668D01*
X74266393Y-67157664D01*
X74180147Y-67042455D01*
X74180144Y-67042452D01*
X74064935Y-66956206D01*
X74064932Y-66956205D01*
X74064931Y-66956204D01*
X74053761Y-66952038D01*
X73997831Y-66910166D01*
X73973416Y-66844701D01*
X73973100Y-66835858D01*
X73973100Y-66648679D01*
X73944259Y-66503692D01*
X73944258Y-66503691D01*
X73944258Y-66503687D01*
X73944256Y-66503682D01*
X73887687Y-66367111D01*
X73887680Y-66367098D01*
X73805552Y-66244185D01*
X73805551Y-66244184D01*
X73701016Y-66139649D01*
X73283023Y-65721656D01*
X71978421Y-64417052D01*
X71978414Y-64417046D01*
X71904729Y-64367812D01*
X71904729Y-64367813D01*
X71855491Y-64334913D01*
X71718917Y-64278343D01*
X71718907Y-64278340D01*
X71573920Y-64249500D01*
X71573918Y-64249500D01*
X70374500Y-64249500D01*
X70307461Y-64229815D01*
X70261706Y-64177011D01*
X70250500Y-64125500D01*
X70250500Y-62862229D01*
X70270185Y-62795190D01*
X70286819Y-62774548D01*
X70774548Y-62286819D01*
X70835871Y-62253334D01*
X70862229Y-62250500D01*
X73068259Y-62250500D01*
X73118693Y-62261219D01*
X73235733Y-62313329D01*
X73410609Y-62350500D01*
X73410610Y-62350500D01*
X73589389Y-62350500D01*
X73589391Y-62350500D01*
X73764267Y-62313329D01*
X73927593Y-62240612D01*
X74072230Y-62135526D01*
X74191859Y-62002665D01*
X74281250Y-61847835D01*
X74336497Y-61677803D01*
X74355185Y-61500000D01*
X74353867Y-61487460D01*
X74366437Y-61418731D01*
X74414169Y-61367708D01*
X74477188Y-61350500D01*
X74589389Y-61350500D01*
X74589391Y-61350500D01*
X74764267Y-61313329D01*
X74927593Y-61240612D01*
X75072230Y-61135526D01*
X75191859Y-61002665D01*
X75281250Y-60847835D01*
X75336497Y-60677803D01*
X75355185Y-60500000D01*
X75336497Y-60322197D01*
X75281250Y-60152165D01*
X75267113Y-60127678D01*
X75250500Y-60065678D01*
X75250500Y-56434320D01*
X75267112Y-56372322D01*
X75281250Y-56347835D01*
X75336497Y-56177803D01*
X75355185Y-56000000D01*
X75336497Y-55822197D01*
X75281250Y-55652165D01*
X75191859Y-55497335D01*
X75145003Y-55445296D01*
X75072235Y-55364478D01*
X75072232Y-55364476D01*
X75072231Y-55364475D01*
X75072230Y-55364474D01*
X74927593Y-55259388D01*
X74764267Y-55186671D01*
X74764265Y-55186670D01*
X74636594Y-55159533D01*
X74589391Y-55149500D01*
X74410609Y-55149500D01*
X74379954Y-55156015D01*
X74235733Y-55186670D01*
X74235728Y-55186672D01*
X74072408Y-55259387D01*
X73927768Y-55364475D01*
X73808140Y-55497336D01*
X73718750Y-55652164D01*
X73718747Y-55652170D01*
X73663504Y-55822192D01*
X73663503Y-55822194D01*
X73644815Y-56000000D01*
X73663503Y-56177805D01*
X73663504Y-56177807D01*
X73718747Y-56347829D01*
X73718748Y-56347830D01*
X73718750Y-56347835D01*
X73732887Y-56372322D01*
X73749500Y-56434320D01*
X73749500Y-60065678D01*
X73732887Y-60127678D01*
X73718750Y-60152163D01*
X73663504Y-60322192D01*
X73663503Y-60322194D01*
X73644815Y-60500000D01*
X73646133Y-60512540D01*
X73633563Y-60581269D01*
X73585830Y-60632293D01*
X73522812Y-60649500D01*
X73410609Y-60649500D01*
X73379954Y-60656015D01*
X73235733Y-60686670D01*
X73118694Y-60738780D01*
X73068259Y-60749500D01*
X70426076Y-60749500D01*
X70397242Y-60755234D01*
X70397243Y-60755235D01*
X70281093Y-60778339D01*
X70281083Y-60778342D01*
X70201081Y-60811479D01*
X70201082Y-60811480D01*
X70144505Y-60834915D01*
X70062372Y-60889795D01*
X70021585Y-60917047D01*
X70021581Y-60917050D01*
X68917048Y-62021583D01*
X68896478Y-62052369D01*
X68876045Y-62082951D01*
X68834919Y-62144499D01*
X68834912Y-62144511D01*
X68778343Y-62281082D01*
X68778340Y-62281092D01*
X68749500Y-62426079D01*
X68749500Y-62426082D01*
X68749500Y-64573918D01*
X68749500Y-64573920D01*
X68749499Y-64573920D01*
X54000500Y-64573920D01*
X54000500Y-56827155D01*
X55150000Y-56827155D01*
X55150000Y-57475000D01*
X56066988Y-57475000D01*
X56034075Y-57532007D01*
X56000000Y-57659174D01*
X56000000Y-57790826D01*
X56034075Y-57917993D01*
X56066988Y-57975000D01*
X55150000Y-57975000D01*
X55150000Y-58622844D01*
X55156401Y-58682372D01*
X55156403Y-58682379D01*
X55206645Y-58817086D01*
X55206649Y-58817093D01*
X55292809Y-58932187D01*
X55292812Y-58932190D01*
X55407906Y-59018350D01*
X55407913Y-59018354D01*
X55539986Y-59067614D01*
X55595920Y-59109485D01*
X55620337Y-59174949D01*
X55605486Y-59243222D01*
X55584335Y-59271477D01*
X55461886Y-59393926D01*
X55326400Y-59587420D01*
X55326399Y-59587422D01*
X55226570Y-59801507D01*
X55226567Y-59801513D01*
X55169364Y-60014999D01*
X55169364Y-60015000D01*
X56066988Y-60015000D01*
X56034075Y-60072007D01*
X56000000Y-60199174D01*
X56000000Y-60330826D01*
X56034075Y-60457993D01*
X56066988Y-60515000D01*
X55169364Y-60515000D01*
X55226567Y-60728486D01*
X55226570Y-60728492D01*
X55326399Y-60942578D01*
X55461894Y-61136082D01*
X55628917Y-61303105D01*
X55822421Y-61438600D01*
X56036507Y-61538429D01*
X56036516Y-61538433D01*
X56250000Y-61595634D01*
X56250000Y-60698012D01*
X56307007Y-60730925D01*
X56434174Y-60765000D01*
X56565826Y-60765000D01*
X56692993Y-60730925D01*
X56750000Y-60698012D01*
X56750000Y-61595633D01*
X56963483Y-61538433D01*
X56963492Y-61538429D01*
X57177578Y-61438600D01*
X57371082Y-61303105D01*
X57538105Y-61136082D01*
X57673600Y-60942578D01*
X57773429Y-60728492D01*
X57773432Y-60728486D01*
X57830636Y-60515000D01*
X56933012Y-60515000D01*
X56965925Y-60457993D01*
X57000000Y-60330826D01*
X57000000Y-60199174D01*
X56965925Y-60072007D01*
X56933012Y-60015000D01*
X57830636Y-60015000D01*
X57830635Y-60014999D01*
X57773432Y-59801513D01*
X57773429Y-59801507D01*
X57673600Y-59587422D01*
X57673599Y-59587420D01*
X57538113Y-59393926D01*
X57538108Y-59393920D01*
X57415665Y-59271477D01*
X57382180Y-59210154D01*
X57387164Y-59140462D01*
X57429036Y-59084529D01*
X57460013Y-59067614D01*
X57592086Y-59018354D01*
X57592093Y-59018350D01*
X57707187Y-58932190D01*
X57707190Y-58932187D01*
X57793350Y-58817093D01*
X57793354Y-58817086D01*
X57843596Y-58682379D01*
X57843598Y-58682372D01*
X57849999Y-58622844D01*
X57850000Y-58622827D01*
X57850000Y-57975000D01*
X56933012Y-57975000D01*
X56965925Y-57917993D01*
X57000000Y-57790826D01*
X57000000Y-57659174D01*
X56965925Y-57532007D01*
X56933012Y-57475000D01*
X57850000Y-57475000D01*
X57850000Y-56827172D01*
X57849999Y-56827155D01*
X57843598Y-56767627D01*
X57843596Y-56767620D01*
X57793354Y-56632913D01*
X57793350Y-56632906D01*
X57707190Y-56517812D01*
X57707187Y-56517809D01*
X57592093Y-56431649D01*
X57592086Y-56431645D01*
X57457379Y-56381403D01*
X57457372Y-56381401D01*
X57397844Y-56375000D01*
X56750000Y-56375000D01*
X56750000Y-57291988D01*
X56692993Y-57259075D01*
X56565826Y-57225000D01*
X56434174Y-57225000D01*
X56307007Y-57259075D01*
X56250000Y-57291988D01*
X56250000Y-56375000D01*
X55602155Y-56375000D01*
X55542627Y-56381401D01*
X55542620Y-56381403D01*
X55407913Y-56431645D01*
X55407906Y-56431649D01*
X55292812Y-56517809D01*
X55292809Y-56517812D01*
X55206649Y-56632906D01*
X55206645Y-56632913D01*
X55156403Y-56767620D01*
X55156401Y-56767627D01*
X55150000Y-56827155D01*
X54000500Y-56827155D01*
X54000500Y-51764999D01*
X55144341Y-51764999D01*
X55144341Y-51765000D01*
X55164936Y-52000403D01*
X55164938Y-52000413D01*
X55226094Y-52228655D01*
X55226096Y-52228659D01*
X55226097Y-52228663D01*
X55325965Y-52442830D01*
X55325967Y-52442834D01*
X55434281Y-52597521D01*
X55461505Y-52636401D01*
X55628599Y-52803495D01*
X55725384Y-52871265D01*
X55822165Y-52939032D01*
X55822167Y-52939033D01*
X55822170Y-52939035D01*
X56036337Y-53038903D01*
X56264592Y-53100063D01*
X56452918Y-53116539D01*
X56499999Y-53120659D01*
X56500000Y-53120659D01*
X56500001Y-53120659D01*
X56539234Y-53117226D01*
X56735408Y-53100063D01*
X56963663Y-53038903D01*
X57177830Y-52939035D01*
X57371401Y-52803495D01*
X57538495Y-52636401D01*
X57674035Y-52442830D01*
X57773903Y-52228663D01*
X57835063Y-52000408D01*
X57855659Y-51765000D01*
X57835063Y-51529592D01*
X57773903Y-51301337D01*
X57674035Y-51087171D01*
X57538495Y-50893599D01*
X57416567Y-50771671D01*
X57383084Y-50710351D01*
X57388068Y-50640659D01*
X57429939Y-50584725D01*
X57460915Y-50567810D01*
X57592331Y-50518796D01*
X57707546Y-50432546D01*
X57793796Y-50317331D01*
X57844091Y-50182483D01*
X57850500Y-50122873D01*
X57850499Y-48327128D01*
X57844091Y-48267517D01*
X57793796Y-48132669D01*
X57793795Y-48132668D01*
X57793793Y-48132664D01*
X57707547Y-48017455D01*
X57707544Y-48017452D01*
X57592335Y-47931206D01*
X57592328Y-47931202D01*
X57457482Y-47880908D01*
X57457483Y-47880908D01*
X57397883Y-47874501D01*
X57397881Y-47874500D01*
X57397873Y-47874500D01*
X57397864Y-47874500D01*
X55602129Y-47874500D01*
X55602123Y-47874501D01*
X55542516Y-47880908D01*
X55407671Y-47931202D01*
X55407664Y-47931206D01*
X55292455Y-48017452D01*
X55292452Y-48017455D01*
X55206206Y-48132664D01*
X55206202Y-48132671D01*
X55155908Y-48267517D01*
X55150977Y-48313387D01*
X55149501Y-48327123D01*
X55149500Y-48327135D01*
X55149500Y-50122870D01*
X55149501Y-50122876D01*
X55155908Y-50182483D01*
X55206202Y-50317328D01*
X55206206Y-50317335D01*
X55292452Y-50432544D01*
X55292455Y-50432547D01*
X55407664Y-50518793D01*
X55407671Y-50518797D01*
X55539081Y-50567810D01*
X55595015Y-50609681D01*
X55619432Y-50675145D01*
X55604580Y-50743418D01*
X55583430Y-50771673D01*
X55461503Y-50893600D01*
X55325965Y-51087169D01*
X55325964Y-51087171D01*
X55226098Y-51301335D01*
X55226094Y-51301344D01*
X55164938Y-51529586D01*
X55164936Y-51529596D01*
X55144341Y-51764999D01*
X54000500Y-51764999D01*
X54000500Y-46999998D01*
X58994390Y-46999998D01*
X58994390Y-47000001D01*
X59014804Y-47285433D01*
X59075628Y-47565037D01*
X59175635Y-47833166D01*
X59312770Y-48084309D01*
X59312775Y-48084317D01*
X59484254Y-48313387D01*
X59484270Y-48313405D01*
X59686594Y-48515729D01*
X59686612Y-48515745D01*
X59915682Y-48687224D01*
X59915690Y-48687229D01*
X60166833Y-48824364D01*
X60166832Y-48824364D01*
X60166836Y-48824365D01*
X60166839Y-48824367D01*
X60434954Y-48924369D01*
X60434960Y-48924370D01*
X60434962Y-48924371D01*
X60714566Y-48985195D01*
X60714568Y-48985195D01*
X60714572Y-48985196D01*
X60968220Y-49003337D01*
X60999999Y-49005610D01*
X61000000Y-49005610D01*
X61000001Y-49005610D01*
X61028595Y-49003564D01*
X61285428Y-48985196D01*
X61565046Y-48924369D01*
X61833161Y-48824367D01*
X62084315Y-48687226D01*
X62313395Y-48515739D01*
X62515739Y-48313395D01*
X62687226Y-48084315D01*
X62824367Y-47833161D01*
X62924369Y-47565046D01*
X62985196Y-47285428D01*
X63005610Y-47000000D01*
X62985196Y-46714572D01*
X62975716Y-46670995D01*
X62924371Y-46434962D01*
X62924370Y-46434960D01*
X62924369Y-46434954D01*
X62824367Y-46166839D01*
X62744025Y-46019705D01*
X62687229Y-45915690D01*
X62687224Y-45915682D01*
X62515745Y-45686612D01*
X62515729Y-45686594D01*
X62313405Y-45484270D01*
X62313387Y-45484254D01*
X62084317Y-45312775D01*
X62084309Y-45312770D01*
X61833166Y-45175635D01*
X61833167Y-45175635D01*
X61725915Y-45135632D01*
X61565046Y-45075631D01*
X61565043Y-45075630D01*
X61565037Y-45075628D01*
X61285433Y-45014804D01*
X61000001Y-44994390D01*
X60999999Y-44994390D01*
X60714566Y-45014804D01*
X60434962Y-45075628D01*
X60166833Y-45175635D01*
X59915690Y-45312770D01*
X59915682Y-45312775D01*
X59686612Y-45484254D01*
X59686594Y-45484270D01*
X59484270Y-45686594D01*
X59484254Y-45686612D01*
X59312775Y-45915682D01*
X59312770Y-45915690D01*
X59175635Y-46166833D01*
X59075628Y-46434962D01*
X59014804Y-46714566D01*
X58994390Y-46999998D01*
X54000500Y-46999998D01*
X54000500Y-46758676D01*
X54020185Y-46691637D01*
X54036819Y-46670995D01*
X56670995Y-44036819D01*
X56732318Y-44003334D01*
X56758676Y-44000500D01*
X84949138Y-44000500D01*
X85016177Y-44020185D01*
G37*
%TD.AperFunction*%
%TD*%
M02*
